<svg width="23" height="22" viewBox="0 0 23 22" fill="none" xmlns="http://www.w3.org/2000/svg">
<path d="M2.89102 11.7984L11.6437 20.5915C11.8003 20.75 11.8824 20.9359 11.8899 21.1494C11.8964 21.3628 11.8105 21.5585 11.6324 21.7363C11.4554 21.9088 11.2661 21.9967 11.0644 21.9999C10.8627 22.0031 10.6728 21.9153 10.4947 21.7363L0.710493 11.9051C0.569952 11.7639 0.471252 11.6195 0.414392 11.4718C0.357532 11.3252 0.329102 11.1646 0.329102 10.9899C0.329102 10.8153 0.357532 10.6547 0.414392 10.5081C0.471252 10.3604 0.569416 10.2165 0.708884 10.0763L10.4947 0.243498C10.6449 0.09258 10.8278 0.011731 11.0435 0.000951161C11.2591 -0.00982868 11.456 0.0710203 11.6341 0.243498C11.8111 0.421365 11.8996 0.613785 11.8996 0.820758C11.8996 1.02773 11.8111 1.21961 11.6341 1.3964L2.88941 10.1814H21.5245C21.753 10.1814 21.9445 10.2585 22.099 10.4127C22.2524 10.5679 22.3291 10.7603 22.3291 10.9899C22.3291 11.2195 22.2524 11.412 22.099 11.5672C21.9445 11.7213 21.753 11.7984 21.5245 11.7984H2.89102Z" />
</svg>
