<svg width="86" height="86" viewBox="0 0 86 86" fill="none" xmlns="http://www.w3.org/2000/svg">
<path d="M56.587 1.16549C57.9052 0.862504 59.2851 0.977499 60.535 1.49451C61.7849 2.01151 62.8429 2.90487 63.5619 4.05055L70.0354 14.386C70.5574 15.2184 71.2609 15.922 72.0934 16.4439L82.4288 22.9174C83.5769 23.6359 84.4724 24.6945 84.9907 25.9459C85.5089 27.1972 85.6242 28.579 85.3204 29.8989L82.5851 41.7778C82.3644 42.7378 82.3644 43.7354 82.5851 44.6954L85.3204 56.5808C85.6212 57.8988 85.5045 59.2777 84.9864 60.5264C84.4683 61.775 83.5744 62.8315 82.4288 63.5492L72.0934 70.0292C71.2599 70.5499 70.5561 71.2537 70.0354 72.0872L63.5619 82.4226C62.8438 83.5695 61.7862 84.4641 60.5363 84.9823C59.2863 85.5005 57.9059 85.6165 56.587 85.3142L44.7016 82.5789C43.7436 82.3592 42.7484 82.3592 41.7905 82.5789L29.905 85.3142C28.5861 85.6165 27.2058 85.5005 25.9558 84.9823C24.7058 84.4641 23.6482 83.5695 22.9301 82.4226L16.4566 72.0872C15.9326 71.2542 15.2268 70.5506 14.3922 70.0292L4.06325 63.5557C2.91639 62.8376 2.02169 61.7801 1.50349 60.5301C0.98529 59.2801 0.869311 57.8997 1.17167 56.5808L3.90043 44.6954C4.12108 43.7354 4.12108 42.7378 3.90043 41.7778L1.16516 29.8989C0.861956 28.5783 0.978186 27.196 1.49765 25.9446C2.01712 24.6932 2.91396 23.635 4.06325 22.9174L14.3922 16.4439C15.227 15.9227 15.9328 15.2191 16.4566 14.386L22.9301 4.05055C23.6487 2.90611 24.7056 2.01357 25.9542 1.49663C27.2028 0.979696 28.5812 0.863967 29.8985 1.16549L41.7905 3.89425C42.7484 4.1139 43.7436 4.1139 44.7016 3.89425L56.587 1.16549Z" />
<path d="M27.0597 46.727L40.3127 59.42L59.4271 27.0526" stroke="#B913E2" stroke-linecap="round" stroke-linejoin="round"/>
</svg>
