<svg width="24" height="24" viewBox="0 0 24 24" fill="none" xmlns="http://www.w3.org/2000/svg">
<path d="M11.9999 16.3299C9.60992 16.3299 7.66992 14.3899 7.66992 11.9999C7.66992 9.60992 9.60992 7.66992 11.9999 7.66992C14.3899 7.66992 16.3299 9.60992 16.3299 11.9999C16.3299 14.3899 14.3899 16.3299 11.9999 16.3299ZM11.9999 9.16992C10.4399 9.16992 9.16992 10.4399 9.16992 11.9999C9.16992 13.5599 10.4399 14.8299 11.9999 14.8299C13.5599 14.8299 14.8299 13.5599 14.8299 11.9999C14.8299 10.4399 13.5599 9.16992 11.9999 9.16992Z" />
<path d="M12.0001 21.02C8.24008 21.02 4.69008 18.82 2.25008 15C1.19008 13.35 1.19008 10.66 2.25008 8.99998C4.70008 5.17998 8.25008 2.97998 12.0001 2.97998C15.7501 2.97998 19.3001 5.17998 21.7401 8.99998C22.8001 10.65 22.8001 13.34 21.7401 15C19.3001 18.82 15.7501 21.02 12.0001 21.02ZM12.0001 4.47998C8.77008 4.47998 5.68008 6.41998 3.52008 9.80998C2.77008 10.98 2.77008 13.02 3.52008 14.19C5.68008 17.58 8.77008 19.52 12.0001 19.52C15.2301 19.52 18.3201 17.58 20.4801 14.19C21.2301 13.02 21.2301 10.98 20.4801 9.80998C18.3201 6.41998 15.2301 4.47998 12.0001 4.47998Z" />
<circle cx="18" cy="19" r="5" fill="#B913E2"/>
<path d="M19.4854 18.9515C19.3333 18.846 19.1611 18.766 18.9684 18.711C18.7758 18.656 18.5806 18.6116 18.3833 18.578V17.4665C18.7998 17.4864 19.2497 17.5801 19.7327 17.7468V16.7554C19.5346 16.682 19.3183 16.6243 19.0814 16.5822C18.845 16.5409 18.6122 16.5126 18.3836 16.4996V15.9988H17.6363V16.5149C17.383 16.5448 17.1544 16.5983 16.9528 16.6755C16.7508 16.752 16.5793 16.8529 16.4383 16.9779C16.2973 17.1037 16.189 17.2517 16.114 17.4241C16.0387 17.5962 16.001 17.7923 16.001 18.0126C16.001 18.2829 16.0494 18.5035 16.147 18.674C16.2439 18.8437 16.3705 18.981 16.5255 19.0846C16.6805 19.1882 16.8553 19.2658 17.0493 19.3174C17.2438 19.3691 17.4393 19.4099 17.6367 19.4394V20.5371C17.4774 20.5333 17.3299 20.5241 17.1954 20.5092C17.0604 20.4942 16.932 20.474 16.8097 20.4492C16.6881 20.4239 16.5686 20.3941 16.4523 20.3585C16.3371 20.3237 16.218 20.2832 16.0953 20.2362V21.218C16.2744 21.3048 16.4989 21.3717 16.7702 21.4203C17.0414 21.4692 17.3302 21.4983 17.637 21.5082V21.9988H18.3843V21.483C18.9013 21.423 19.2999 21.2712 19.5805 21.0276C19.8607 20.784 20.001 20.448 20.001 20.0206C20.001 19.7533 19.9533 19.535 19.8578 19.3644C19.7613 19.1943 19.6372 19.0566 19.4854 18.9515ZM17.6359 18.4529C17.4325 18.4132 17.2807 18.3558 17.1799 18.2824C17.0801 18.209 17.0299 18.1019 17.0299 17.962C17.0299 17.8389 17.0737 17.736 17.1613 17.6543C17.2492 17.572 17.4078 17.5181 17.6355 17.4914V18.4529H17.6359ZM18.3832 20.5015V19.5598C18.5805 19.5969 18.7276 19.6512 18.8227 19.7227C18.9185 19.7946 18.9659 19.9004 18.9659 20.0404C18.9659 20.2943 18.7718 20.4476 18.3832 20.5015Z" />
</svg>
