<svg width="22" height="22" viewBox="0 0 22 22" fill="none" xmlns="http://www.w3.org/2000/svg">
<path d="M11 20.8541C5.56417 20.8541 1.14584 16.4358 1.14584 10.9999C1.14584 5.56409 5.56417 1.14575 11 1.14575C16.4358 1.14575 20.8542 5.56409 20.8542 10.9999C20.8542 16.4358 16.4358 20.8541 11 20.8541ZM11 2.52075C6.325 2.52075 2.52084 6.32492 2.52084 10.9999C2.52084 15.6749 6.325 19.4791 11 19.4791C15.675 19.4791 19.4792 15.6749 19.4792 10.9999C19.4792 6.32492 15.675 2.52075 11 2.52075Z" />
<path d="M11 12.6041C10.6242 12.6041 10.3125 12.2924 10.3125 11.9166V7.33325C10.3125 6.95742 10.6242 6.64575 11 6.64575C11.3758 6.64575 11.6875 6.95742 11.6875 7.33325V11.9166C11.6875 12.2924 11.3758 12.6041 11 12.6041Z" />
<path d="M11 15.5834C10.8808 15.5834 10.7617 15.5559 10.6517 15.5101C10.5417 15.4642 10.4408 15.4001 10.3492 15.3176C10.2667 15.2259 10.2025 15.1342 10.1567 15.0151C10.1108 14.9051 10.0833 14.7859 10.0833 14.6667C10.0833 14.5476 10.1108 14.4284 10.1567 14.3184C10.2025 14.2084 10.2667 14.1076 10.3492 14.0159C10.4408 13.9334 10.5417 13.8692 10.6517 13.8234C10.8717 13.7317 11.1283 13.7317 11.3483 13.8234C11.4583 13.8692 11.5592 13.9334 11.6508 14.0159C11.7333 14.1076 11.7975 14.2084 11.8433 14.3184C11.8892 14.4284 11.9167 14.5476 11.9167 14.6667C11.9167 14.7859 11.8892 14.9051 11.8433 15.0151C11.7975 15.1342 11.7333 15.2259 11.6508 15.3176C11.5592 15.4001 11.4583 15.4642 11.3483 15.5101C11.2383 15.5559 11.1192 15.5834 11 15.5834Z" />
</svg>
