<svg width="25" height="24" viewBox="0 0 25 24" fill="none" xmlns="http://www.w3.org/2000/svg">
<path d="M12.2784 15.75C10.1932 15.75 8.50093 14.07 8.50093 12C8.50093 9.93 10.1932 8.25 12.2784 8.25C14.3636 8.25 16.0559 9.93 16.0559 12C16.0559 14.07 14.3636 15.75 12.2784 15.75ZM12.2784 9.75C11.0293 9.75 10.0119 10.76 10.0119 12C10.0119 13.24 11.0293 14.25 12.2784 14.25C13.5275 14.25 14.5449 13.24 14.5449 12C14.5449 10.76 13.5275 9.75 12.2784 9.75Z" />
<path d="M15.5119 22.19C15.3004 22.19 15.0888 22.16 14.8773 22.11C14.2528 21.94 13.7289 21.55 13.3965 21L13.2757 20.8C12.6813 19.78 11.8654 19.78 11.2711 20.8L11.1603 20.99C10.8279 21.55 10.304 21.95 9.6795 22.11C9.04488 22.28 8.39012 22.19 7.83609 21.86L6.10349 20.87C5.48902 20.52 5.0458 19.95 4.85441 19.26C4.67309 18.57 4.76375 17.86 5.11631 17.25C5.40844 16.74 5.48902 16.28 5.31778 15.99C5.14653 15.7 4.71338 15.53 4.11906 15.53C2.64836 15.53 1.44965 14.34 1.44965 12.88V11.12C1.44965 9.66004 2.64836 8.47004 4.11906 8.47004C4.71338 8.47004 5.14653 8.30004 5.31778 8.01004C5.48902 7.72004 5.41851 7.26004 5.11631 6.75004C4.76375 6.14004 4.67309 5.42004 4.85441 4.74004C5.03573 4.05004 5.47895 3.48004 6.10349 3.13004L7.84617 2.14004C8.98444 1.47004 10.4854 1.86004 11.1703 3.01004L11.2912 3.21004C11.8855 4.23004 12.7015 4.23004 13.2958 3.21004L13.4066 3.02004C14.0916 1.86004 15.5925 1.47004 16.7409 2.15004L18.4735 3.14004C19.0879 3.49004 19.5311 4.06004 19.7225 4.75004C19.9039 5.44004 19.8132 6.15004 19.4606 6.76004C19.1685 7.27004 19.0879 7.73004 19.2592 8.02004C19.4304 8.31004 19.8636 8.48004 20.4579 8.48004C21.9286 8.48004 23.1273 9.67004 23.1273 11.13V12.89C23.1273 14.35 21.9286 15.54 20.4579 15.54C19.8636 15.54 19.4304 15.71 19.2592 16C19.0879 16.29 19.1584 16.75 19.4606 17.26C19.8132 17.87 19.9139 18.59 19.7225 19.27C19.5412 19.96 19.098 20.53 18.4735 20.88L16.7308 21.87C16.348 22.08 15.935 22.19 15.5119 22.19ZM12.2784 18.49C13.1749 18.49 14.011 19.05 14.5852 20.04L14.696 20.23C14.8169 20.44 15.0183 20.59 15.2601 20.65C15.5018 20.71 15.7436 20.68 15.9451 20.56L17.6877 19.56C17.9496 19.41 18.1511 19.16 18.2317 18.86C18.3123 18.56 18.272 18.25 18.1209 17.99C17.5467 17.01 17.4762 16 17.9194 15.23C18.3626 14.46 19.2793 14.02 20.4277 14.02C21.0724 14.02 21.5861 13.51 21.5861 12.87V11.11C21.5861 10.48 21.0724 9.96004 20.4277 9.96004C19.2793 9.96004 18.3626 9.52004 17.9194 8.75004C17.4762 7.98004 17.5467 6.97004 18.1209 5.99004C18.272 5.73004 18.3123 5.42004 18.2317 5.12004C18.1511 4.82004 17.9597 4.58004 17.6978 4.42004L15.9551 3.43004C15.522 3.17004 14.9478 3.32004 14.6859 3.76004L14.5751 3.95004C14.0009 4.94004 13.1648 5.50004 12.2683 5.50004C11.3718 5.50004 10.5357 4.94004 9.96155 3.95004L9.85074 3.75004C9.59891 3.33004 9.03481 3.18004 8.60166 3.43004L6.85899 4.43004C6.59708 4.58004 6.39562 4.83004 6.31503 5.13004C6.23444 5.43004 6.27474 5.74004 6.42584 6.00004C7.00001 6.98004 7.07052 7.99004 6.6273 8.76004C6.18408 9.53004 5.26741 9.97004 4.11906 9.97004C3.47437 9.97004 2.96063 10.48 2.96063 11.12V12.88C2.96063 13.51 3.47437 14.03 4.11906 14.03C5.26741 14.03 6.18408 14.47 6.6273 15.24C7.07052 16.01 7.00001 17.02 6.42584 18C6.27474 18.26 6.23444 18.57 6.31503 18.87C6.39562 19.17 6.58701 19.41 6.84891 19.57L8.59159 20.56C8.80312 20.69 9.05496 20.72 9.28664 20.66C9.5284 20.6 9.72987 20.44 9.86082 20.23L9.97162 20.04C10.5458 19.06 11.3819 18.49 12.2784 18.49Z" />
</svg>
