<svg width="25" height="24" viewBox="0 0 25 24" fill="none" xmlns="http://www.w3.org/2000/svg">
<path d="M16.92 7.94987C19.36 10.3899 19.36 14.3498 16.92 16.7898C14.48 19.2298 10.52 19.2298 8.08 16.7898C5.64 14.3498 5.64 10.3899 8.08 7.94987C10.52 5.50987 14.48 5.50987 16.92 7.94987Z"  stroke-width="1.5" stroke-linecap="round" stroke-linejoin="round"/>
<path d="M8.75097 21.6399C6.75097 20.8399 5.00097 19.3899 3.84097 17.3799C2.70097 15.4099 2.32097 13.2199 2.59097 11.1299"  stroke-width="1.5" stroke-linecap="round" stroke-linejoin="round"/>
<path d="M6.35156 4.47986C8.05156 3.14986 10.1816 2.35986 12.5016 2.35986C14.7716 2.35986 16.8616 3.12985 18.5416 4.40985"  stroke-width="1.5" stroke-linecap="round" stroke-linejoin="round"/>
<path d="M16.25 21.6399C18.25 20.8399 20 19.3899 21.16 17.3799C22.3 15.4099 22.68 13.2199 22.41 11.1299"  stroke-width="1.5" stroke-linecap="round" stroke-linejoin="round"/>
</svg>
