<svg width="30" height="30" viewBox="0 0 30 30" fill="none" xmlns="http://www.w3.org/2000/svg">
<path d="M8.75 18.3626C8.2375 18.3626 7.8125 17.9376 7.8125 17.4251V13.4126C7.8125 12.9001 8.2375 12.4751 8.75 12.4751C9.2625 12.4751 9.6875 12.9001 9.6875 13.4126V17.4251C9.6875 17.9501 9.2625 18.3626 8.75 18.3626Z" fill="white"/>
<path d="M15 20.5375C14.4875 20.5375 14.0625 20.1125 14.0625 19.6V11.25C14.0625 10.7375 14.4875 10.3125 15 10.3125C15.5125 10.3125 15.9375 10.7375 15.9375 11.25V19.6C15.9375 20.1125 15.5125 20.5375 15 20.5375Z" fill="white"/>
<path d="M21.25 18.3626C20.7375 18.3626 20.3125 17.9376 20.3125 17.4251V13.4126C20.3125 12.9001 20.7375 12.4751 21.25 12.4751C21.7625 12.4751 22.1875 12.9001 22.1875 13.4126V17.4251C22.1875 17.9501 21.7625 18.3626 21.25 18.3626Z" fill="white"/>
<path d="M18.75 28.4375H11.25C4.4625 28.4375 1.5625 25.5375 1.5625 18.75V11.25C1.5625 4.4625 4.4625 1.5625 11.25 1.5625H18.75C25.5375 1.5625 28.4375 4.4625 28.4375 11.25V18.75C28.4375 25.5375 25.5375 28.4375 18.75 28.4375ZM11.25 3.4375C5.4875 3.4375 3.4375 5.4875 3.4375 11.25V18.75C3.4375 24.5125 5.4875 26.5625 11.25 26.5625H18.75C24.5125 26.5625 26.5625 24.5125 26.5625 18.75V11.25C26.5625 5.4875 24.5125 3.4375 18.75 3.4375H11.25Z" fill="white"/>
</svg>
