<svg width="30" height="30" viewBox="0 0 30 30" fill="none" xmlns="http://www.w3.org/2000/svg">
<path d="M8.88889 5.62272L14.2667 2H17.2L19.6444 5.62272C20.4593 7.86536 22.0889 12.4541 22.0889 12.8682C22.0889 13.2822 24.6963 17.871 26 20.1136L24.5333 22.7013C22.9037 23.2188 19.5467 24.3574 19.1556 24.7714C18.7644 25.1854 13.4519 24.9439 10.8444 24.7714L4 22.7013V19.5961L6.93333 14.4208V9.24544L8.88889 5.62272Z" fill="#B913E2"/>
<path d="M15.025 25.4373C11.8 25.4373 8.58746 24.9248 5.52496 23.8998C4.38746 23.5248 3.52496 22.7123 3.14996 21.6873C2.77496 20.6623 2.89996 19.4873 3.51246 18.4623L5.09996 15.8123C5.44996 15.2248 5.76246 14.1248 5.76246 13.4373V10.8123C5.76246 5.6998 9.91246 1.5498 15.025 1.5498C20.1375 1.5498 24.2875 5.6998 24.2875 10.8123V13.4373C24.2875 14.1123 24.6 15.2248 24.95 15.8123L26.5375 18.4623C27.125 19.4373 27.225 20.5998 26.8375 21.6623C26.45 22.7248 25.6 23.5373 24.525 23.8998C21.4625 24.9373 18.25 25.4373 15.025 25.4373ZM15.025 3.4373C10.95 3.4373 7.63746 6.7498 7.63746 10.8248V13.4498C7.63746 14.4623 7.23746 15.9248 6.71246 16.7873L5.12496 19.4498C4.79996 19.9873 4.72496 20.5623 4.91246 21.0623C5.09996 21.5623 5.52496 21.9373 6.12496 22.1373C11.875 24.0498 18.2 24.0498 23.95 22.1373C24.4875 21.9623 24.9 21.5623 25.0875 21.0373C25.2875 20.5123 25.225 19.9373 24.9375 19.4498L23.35 16.7998C22.825 15.9373 22.425 14.4748 22.425 13.4623V10.8373C22.4125 6.7498 19.1 3.4373 15.025 3.4373Z" fill="#B913E2"/>
<path d="M15 13.1498C14.4875 13.1498 14.0625 12.7248 14.0625 12.2123V8.0498C14.0625 7.5373 14.4875 7.1123 15 7.1123C15.5125 7.1123 15.9375 7.5373 15.9375 8.0498V12.2123C15.9375 12.7373 15.5125 13.1498 15 13.1498Z" fill="#171A1F"/>
<path d="M15 28.6249C13.6625 28.6249 12.35 28.0749 11.4 27.1249C10.45 26.1749 9.90002 24.8624 9.90002 23.5249H11.775C11.775 24.3749 12.125 25.1999 12.725 25.7999C13.325 26.3999 14.15 26.7499 15 26.7499C16.775 26.7499 18.225 25.2999 18.225 23.5249H20.1C20.1 26.3374 17.8125 28.6249 15 28.6249Z" fill="#B913E2"/>
</svg>
