<svg width="30" height="30" viewBox="0 0 30 30" fill="none" xmlns="http://www.w3.org/2000/svg">
<path d="M15 13.15C14.4875 13.15 14.0625 12.725 14.0625 12.2125V8.05005C14.0625 7.53755 14.4875 7.11255 15 7.11255C15.5125 7.11255 15.9375 7.53755 15.9375 8.05005V12.2125C15.9375 12.7375 15.5125 13.15 15 13.15Z" fill="white"/>
<path d="M15.025 25.4375C11.8 25.4375 8.58746 24.9251 5.52496 23.9001C4.38746 23.525 3.52496 22.7125 3.14996 21.6875C2.77496 20.6625 2.89996 19.4875 3.51246 18.4625L5.09996 15.8125C5.44996 15.225 5.76246 14.125 5.76246 13.4375V10.8125C5.76246 5.70005 9.91246 1.55005 15.025 1.55005C20.1375 1.55005 24.2875 5.70005 24.2875 10.8125V13.4375C24.2875 14.1125 24.6 15.225 24.95 15.8125L26.5375 18.4625C27.125 19.4375 27.225 20.6 26.8375 21.6625C26.45 22.725 25.6 23.5375 24.525 23.9001C21.4625 24.9375 18.25 25.4375 15.025 25.4375ZM15.025 3.43755C10.95 3.43755 7.63746 6.75005 7.63746 10.825V13.45C7.63746 14.4625 7.23746 15.925 6.71246 16.7875L5.12496 19.4501C4.79996 19.9875 4.72496 20.5625 4.91246 21.0625C5.09996 21.5625 5.52496 21.9375 6.12496 22.1375C11.875 24.05 18.2 24.05 23.95 22.1375C24.4875 21.9625 24.9 21.5625 25.0875 21.0375C25.2875 20.5125 25.225 19.9375 24.9375 19.4501L23.35 16.8C22.825 15.9375 22.425 14.475 22.425 13.4625V10.8375C22.4125 6.75005 19.1 3.43755 15.025 3.43755Z" fill="white"/>
<path d="M15 28.6249C13.6625 28.6249 12.35 28.0749 11.4 27.1249C10.45 26.1749 9.90002 24.8624 9.90002 23.5249H11.775C11.775 24.3749 12.125 25.1999 12.725 25.7999C13.325 26.3999 14.15 26.7499 15 26.7499C16.775 26.7499 18.225 25.2999 18.225 23.5249H20.1C20.1 26.3374 17.8125 28.6249 15 28.6249Z" fill="white"/>
</svg>
