<svg stroke-width="1.2" width="30" height="30" viewBox="0 0 30 30" fill="none" xmlns="http://www.w3.org/2000/svg">
<rect x="3" y="3" width="24" height="24" rx="6"/>
<path d="M8.75 18.3621C8.2375 18.3621 7.8125 17.9371 7.8125 17.4246V13.4121C7.8125 12.8996 8.2375 12.4746 8.75 12.4746C9.2625 12.4746 9.6875 12.8996 9.6875 13.4121V17.4246C9.6875 17.9496 9.2625 18.3621 8.75 18.3621Z" />
<path d="M15 20.5375C14.4875 20.5375 14.0625 20.1125 14.0625 19.6V11.25C14.0625 10.7375 14.4875 10.3125 15 10.3125C15.5125 10.3125 15.9375 10.7375 15.9375 11.25V19.6C15.9375 20.1125 15.5125 20.5375 15 20.5375Z" />
<path d="M21.25 18.3621C20.7375 18.3621 20.3125 17.9371 20.3125 17.4246V13.4121C20.3125 12.8996 20.7375 12.4746 21.25 12.4746C21.7625 12.4746 22.1875 12.8996 22.1875 13.4121V17.4246C22.1875 17.9496 21.7625 18.3621 21.25 18.3621Z" />
<path d="M18.75 27.9375H11.25C7.91365 27.9375 5.6518 27.2228 4.21449 25.7855C2.77718 24.3482 2.0625 22.0864 2.0625 18.75V11.25C2.0625 7.91365 2.77718 5.6518 4.21449 4.21449C5.6518 2.77718 7.91365 2.0625 11.25 2.0625H18.75C22.0864 2.0625 24.3482 2.77718 25.7855 4.21449C27.2228 5.6518 27.9375 7.91365 27.9375 11.25V18.75C27.9375 22.0864 27.2228 24.3482 25.7855 25.7855C24.3482 27.2228 22.0864 27.9375 18.75 27.9375ZM11.25 2.9375C8.33347 2.9375 6.20745 3.45107 4.82926 4.82926C3.45107 6.20745 2.9375 8.33347 2.9375 11.25V18.75C2.9375 21.6665 3.45107 23.7926 4.82926 25.1707C6.20745 26.5489 8.33347 27.0625 11.25 27.0625H18.75C21.6665 27.0625 23.7926 26.5489 25.1707 25.1707C26.5489 23.7926 27.0625 21.6665 27.0625 18.75V11.25C27.0625 8.33347 26.5489 6.20745 25.1707 4.82926C23.7926 3.45107 21.6665 2.9375 18.75 2.9375H11.25Z" />
</svg>
