<svg width="28" height="26" viewBox="0 0 28 26" fill="none" xmlns="http://www.w3.org/2000/svg">
<path d="M14 13V24.25M14 13L10.875 15.5M14 13L17.125 15.5M5.29251 9.39625C4.11028 9.69374 3.07736 10.4127 2.38783 11.418C1.6983 12.4234 1.39962 13.6459 1.5479 14.856C1.69618 16.066 2.28122 17.1803 3.19309 17.9894C4.10497 18.7985 5.28093 19.2468 6.50001 19.25H7.75001" stroke="white" stroke-width="2" stroke-linecap="round" stroke-linejoin="round"/>
<path d="M18.7875 6.9225C18.3603 5.23072 17.3057 3.76468 15.8377 2.82157C14.3696 1.87847 12.5979 1.52886 10.8816 1.84363C9.16531 2.1584 7.63294 3.11398 6.59509 4.51667C5.55725 5.91937 5.09159 7.66421 5.29252 9.3975C5.29252 9.3975 5.48377 10.5 5.87502 11.125" stroke="white" stroke-width="2" stroke-linecap="round" stroke-linejoin="round"/>
<path d="M20.25 19.25C21.1325 19.2494 22.005 19.0619 22.8098 18.6998C23.6147 18.3378 24.3337 17.8093 24.9197 17.1493C25.5056 16.4894 25.9451 15.7128 26.2092 14.8707C26.4734 14.0286 26.5562 13.1401 26.4522 12.2637C26.3482 11.3873 26.0598 10.5428 25.606 9.78593C25.1521 9.02902 24.5431 8.37681 23.819 7.87223C23.095 7.36765 22.2722 7.02215 21.405 6.85845C20.5378 6.69475 19.6457 6.71658 18.7875 6.9225L17.125 7.375" stroke="white" stroke-width="2" stroke-linecap="round" stroke-linejoin="round"/>
</svg>
