<svg stroke-width="1.8" width="30" height="30" viewBox="0 0 30 30" fill="none" xmlns="http://www.w3.org/2000/svg">
<path d="M22.2375 28.4375H7.7625C4.3375 28.4375 1.5625 25.65 1.5625 22.225V12.9625C1.5625 11.2625 2.6125 9.12497 3.9625 8.07497L10.7 2.82497C12.725 1.24997 15.9625 1.17497 18.0625 2.64997L25.7875 8.06247C27.275 9.09997 28.4375 11.325 28.4375 13.1375V22.2375C28.4375 25.65 25.6625 28.4375 22.2375 28.4375Z 25.7 10.275 24.7125 9.59997L16.9875 4.18747C15.5625 3.18747 13.2125 3.23747 11.85 4.29997Z "  />
<path d="M15 23.4375C14.4875 23.4375 14.0625 23.0125 14.0625 22.5V18.75C14.0625 18.2375 14.4875 17.8125 15 17.8125C15.5125 17.8125 15.9375 18.2375 15.9375 18.75V22.5C15.9375 23.0125 15.5125 23.4375 15 23.4375Z" />
</svg>
