<svg stroke-width="1.6" width="28" height="28" viewBox="0 0 28 28" fill="none" xmlns="http://www.w3.org/2000/svg">
<path d="M13.4167 25.3749C6.82504 25.3749 1.45837 20.0083 1.45837 13.4166C1.45837 6.82492 6.82504 1.45825 13.4167 1.45825C20.0084 1.45825 25.375 6.82492 25.375 13.4166C25.375 20.0083 20.0084 25.3749 13.4167 25.3749ZM13.4167 3.20825C7.78171 3.20825 3.20837 7.79325 3.20837 " />
<path d="M25.6667 26.5416C25.4451 26.5416 25.2234 26.4599 25.0484 26.2849L22.7151 23.9516C22.3767 23.6133 22.3767 23.0533 22.7151 22.7149C23.0534 22.3766 23.6134 22.3766 23.9517 22.7149L26.2851 25.0483C26.6234 25.3866 26.6234 25.9466 26.2851 26.2849C26.1101 26.4599 25.8884 26.5416 25.6667 26.5416Z" />
</svg>
