<svg width="25" height="23" viewBox="0 0 25 23" fill="none" xmlns="http://www.w3.org/2000/svg">
<path d="M12.3807 11.2692V21.5207M12.3807 11.2692L9.53309 13.5473M12.3807 11.2692L15.2283 13.5473M4.4461 7.98535C3.3688 8.25644 2.42756 8.91158 1.79924 9.8277C1.17091 10.7438 0.898737 11.8578 1.03386 12.9605C1.16898 14.0631 1.70209 15.0785 2.53303 15.8157C3.36396 16.553 4.43554 16.9615 5.54642 16.9645H6.68547" stroke="#B913E2" stroke-width="2" stroke-linecap="round" stroke-linejoin="round"/>
<path d="M16.7433 5.73086C16.354 4.18924 15.3931 2.85333 14.0553 1.99393C12.7176 1.13454 11.1031 0.815968 9.53915 1.1028C7.97522 1.38962 6.57886 2.26039 5.63313 3.53858C4.6874 4.81677 4.26308 6.40674 4.44617 7.98618C4.44617 7.98618 4.62045 8.99082 4.97697 9.56034" stroke="#B913E2" stroke-width="2" stroke-linecap="round" stroke-linejoin="round"/>
<path d="M18.0764 16.9647C18.8806 16.9642 19.6755 16.7933 20.409 16.4634C21.1424 16.1334 21.7976 15.6519 22.3315 15.0505C22.8654 14.4491 23.2659 13.7414 23.5066 12.9741C23.7473 12.2067 23.8228 11.3971 23.7281 10.5985C23.6333 9.79989 23.3705 9.0304 22.9569 8.34067C22.5434 7.65095 21.9884 7.05663 21.3286 6.59684C20.6688 6.13705 19.9191 5.82221 19.1288 5.67304C18.3386 5.52388 17.5257 5.54377 16.7437 5.73141L15.2287 6.14374" stroke="#B913E2" stroke-width="2" stroke-linecap="round" stroke-linejoin="round"/>
</svg>
