<svg stroke-width="1.5" width="30" height="30" viewBox="0 0 30 30" fill="none" xmlns="http://www.w3.org/2000/svg">
<path d="M15 15V26.25M15 15L11.875 17.5M15 15L18.125 17.5M6.29251 11.3962C5.11028 11.6937 4.07736 12.4127 3.38783 13.418C2.6983 14.4234 2.39962 15.6459 2.5479 16.856C2.69618 18.066 3.28122 19.1803 4.19309 19.9894C5.10497 20.7985 6.28093 21.2468 7.50001 21.25H8.75001"  stroke-width="2" stroke-linecap="round" stroke-linejoin="round"/>
<path d="M19.7875 8.92239C19.3602 7.23061 18.3057 5.76457 16.8376 4.82146C15.3695 3.87836 13.5978 3.52875 11.8815 3.84352C10.1653 4.15829 8.63288 5.11387 7.59503 6.51656C6.55719 7.91926 6.09153 9.6641 6.29246 11.3974C6.29246 11.3974 6.48371 12.4999 6.87496 13.1249"  stroke-width="2" stroke-linecap="round" stroke-linejoin="round"/>
<path d="M21.25 21.25C22.1325 21.2494 23.005 21.0619 23.8098 20.6998C24.6147 20.3378 25.3337 19.8093 25.9197 19.1493C26.5056 18.4894 26.9451 17.7128 27.2092 16.8707C27.4734 16.0286 27.5562 15.1401 27.4522 14.2637C27.3482 13.3873 27.0598 12.5428 26.606 11.7859C26.1521 11.029 25.5431 10.3768 24.819 9.87223C24.095 9.36765 23.2722 9.02215 22.405 8.85845C21.5378 8.69475 20.6457 8.71658 19.7875 8.9225L18.125 9.375"  stroke-width="2" stroke-linecap="round" stroke-linejoin="round"/>
</svg>
