<svg width="22" height="22" viewBox="0 0 22 22" fill="none" xmlns="http://www.w3.org/2000/svg">
<path d="M21 6.55556V15.4444C21 16.9179 20.4147 18.3309 19.3728 19.3728C18.3309 20.4147 16.9179 21 15.4444 21H6.55556C5.08213 21 3.66905 20.4147 2.62718 19.3728C1.58532 18.3309 1 16.9179 1 15.4444V6.55556C1 5.08213 1.58532 3.66905 2.62718 2.62718C3.66905 1.58532 5.08213 1 6.55556 1H15.4444C16.9179 1 18.3309 1.58532 19.3728 2.62718C20.4147 3.66905 21 5.08213 21 6.55556Z"  stroke-width="1.5" stroke-linecap="round" stroke-linejoin="round"/>
<path d="M8.77779 11.0007C8.11852 11.0007 7.47406 11.1961 6.92589 11.5624C6.37773 11.9287 5.95049 12.4493 5.69819 13.0584C5.4459 13.6675 5.37989 14.3377 5.50851 14.9843C5.63713 15.6309 5.9546 16.2248 6.42077 16.691C6.88695 17.1572 7.48089 17.4747 8.12749 17.6033C8.77409 17.7319 9.44432 17.6659 10.0534 17.4136C10.6625 17.1613 11.1831 16.734 11.5494 16.1859C11.9156 15.6377 12.1111 14.9933 12.1111 14.334V4.33398C12.4811 5.4451 13.8889 7.66732 16.5556 7.66732"  stroke-width="1.5" stroke-linecap="round" stroke-linejoin="round"/>
</svg>
