<svg width="26" height="26" viewBox="0 0 26 26" fill="none" xmlns="http://www.w3.org/2000/svg">
<path d="M14.1378 17.6039H12.1012C10.6603 17.6039 9.47949 16.3906 9.47949 14.8956C9.47949 14.4514 9.84783 14.0831 10.292 14.0831C10.7362 14.0831 11.1045 14.4514 11.1045 14.8956C11.1045 15.4914 11.5487 15.9789 12.1012 15.9789H14.1378C14.5603 15.9789 14.8962 15.5998 14.8962 15.1339C14.8962 14.5489 14.7337 14.4623 14.3653 14.3323L11.1045 13.1948C10.4112 12.9456 9.47949 12.4473 9.47949 10.8548C9.47949 9.5006 10.552 8.38477 11.8628 8.38477H13.8995C15.3403 8.38477 16.5212 9.5981 16.5212 11.0931C16.5212 11.5373 16.1528 11.9056 15.7087 11.9056C15.2645 11.9056 14.8962 11.5373 14.8962 11.0931C14.8962 10.4973 14.452 10.0098 13.8995 10.0098H11.8628C11.4403 10.0098 11.1045 10.3889 11.1045 10.8548C11.1045 11.4398 11.267 11.5264 11.6353 11.6564L14.8962 12.7939C15.5895 13.0431 16.5212 13.5414 16.5212 15.1339C16.5212 16.4989 15.4486 17.6039 14.1378 17.6039Z" fill="white"/>
<path d="M13 18.6875C12.5558 18.6875 12.1875 18.3192 12.1875 17.875V8.125C12.1875 7.68083 12.5558 7.3125 13 7.3125C13.4442 7.3125 13.8125 7.68083 13.8125 8.125V17.875C13.8125 18.3192 13.4442 18.6875 13 18.6875Z" fill="white"/>
<path d="M13.0003 24.6457C6.57616 24.6457 1.35449 19.424 1.35449 12.9998C1.35449 6.57567 6.57616 1.354 13.0003 1.354C13.4445 1.354 13.8128 1.72234 13.8128 2.1665C13.8128 2.61067 13.4445 2.979 13.0003 2.979C7.47533 2.979 2.97949 7.47484 2.97949 12.9998C2.97949 18.5248 7.47533 23.0207 13.0003 23.0207C18.5253 23.0207 23.0212 18.5248 23.0212 12.9998C23.0212 12.5557 23.3895 12.1873 23.8337 12.1873C24.2778 12.1873 24.6462 12.5557 24.6462 12.9998C24.6462 19.424 19.4245 24.6457 13.0003 24.6457Z" fill="white"/>
<path d="M23.8333 7.31234C23.3892 7.31234 23.0208 6.944 23.0208 6.49984V2.979H19.5C19.0558 2.979 18.6875 2.61067 18.6875 2.1665C18.6875 1.72234 19.0558 1.354 19.5 1.354H23.8333C24.2775 1.354 24.6458 1.72234 24.6458 2.1665V6.49984C24.6458 6.944 24.2775 7.31234 23.8333 7.31234Z" fill="#B913E2"/>
<path d="M18.4162 8.39589C18.2104 8.39589 18.0046 8.32006 17.8421 8.15756C17.5279 7.84339 17.5279 7.32339 17.8421 7.00923L23.2587 1.59256C23.5729 1.27839 24.0929 1.27839 24.4071 1.59256C24.7212 1.90673 24.7212 2.42672 24.4071 2.74089L18.9904 8.15756C18.8279 8.32006 18.6221 8.39589 18.4162 8.39589Z" fill="#B913E2"/>
</svg>
