<svg width="34" height="38" viewBox="0 0 34 38" fill="none" xmlns="http://www.w3.org/2000/svg">
<path d="M17 20.1106C16.2067 20.1106 15.5833 19.4144 15.5833 18.5636C15.5833 17.7127 16.2208 17.0166 17 17.0166C17.7792 17.0166 18.4167 17.7127 18.4167 18.5636C18.4167 19.4144 17.7933 20.1106 17 20.1106Z" fill="#B913E2"/>
<path d="M22.6667 20.1106C21.8733 20.1106 21.25 19.4144 21.25 18.5636C21.25 17.7127 21.8875 17.0166 22.6667 17.0166C23.4458 17.0166 24.0833 17.7127 24.0833 18.5636C24.0833 19.4144 23.46 20.1106 22.6667 20.1106Z" fill="#B913E2"/>
<path d="M11.3333 20.1106C10.54 20.1106 9.91667 19.4144 9.91667 18.5636C9.91667 17.7127 10.5542 17.0166 11.3333 17.0166C12.1125 17.0166 12.75 17.7127 12.75 18.5636C12.75 19.4144 12.1267 20.1106 11.3333 20.1106Z" fill="#B913E2"/>
</svg>
