<svg width="40" height="40" viewBox="0 0 40 40" fill="none" xmlns="http://www.w3.org/2000/svg">
<ellipse cx="19.9313" cy="20" rx="19.9313" ry="20" fill="#B913E2"/>
<path d="M28.0933 22.0598L26.9672 20.1798C26.718 19.7698 26.4988 18.9798 26.4988 18.4998V16.6298C26.4988 12.9998 23.5589 10.0498 19.9514 10.0498C16.3338 10.0598 13.394 12.9998 13.394 16.6298V18.4898C13.394 18.9698 13.1747 19.7598 12.9355 20.1698L11.8094 22.0498C11.3809 22.7798 11.2812 23.6098 11.5503 24.3298C11.8194 25.0598 12.4273 25.6398 13.2245 25.8998C14.3008 26.2598 15.3871 26.5198 16.4933 26.7098C16.6029 26.7298 16.7125 26.7398 16.8221 26.7598C16.9617 26.7798 17.1111 26.7998 17.2606 26.8198C17.5197 26.8598 17.7788 26.8898 18.0479 26.9098C18.6757 26.9698 19.3136 26.9998 19.9514 26.9998C20.5792 26.9998 21.207 26.9698 21.8249 26.9098C22.0541 26.8898 22.2833 26.8698 22.5026 26.8398C22.6819 26.8198 22.8613 26.7998 23.0407 26.7698C23.1503 26.7598 23.2599 26.7398 23.3696 26.7198C24.4857 26.5398 25.5919 26.2598 26.6682 25.8998C27.4355 25.6398 28.0235 25.0598 28.3026 24.3198C28.5816 23.5698 28.5019 22.7498 28.0933 22.0598ZM20.6788 17.9998C20.6788 18.4198 20.34 18.7598 19.9215 18.7598C19.5029 18.7598 19.1641 18.4198 19.1641 17.9998V14.8998C19.1641 14.4798 19.5029 14.1398 19.9215 14.1398C20.34 14.1398 20.6788 14.4798 20.6788 14.8998V17.9998Z" fill="white"/>
<path d="M22.7517 28.01C22.3331 29.17 21.2269 30 19.9314 30C19.1441 30 18.3668 29.68 17.8187 29.11C17.4998 28.81 17.2606 28.41 17.1211 28C17.2506 28.02 17.3802 28.03 17.5197 28.05C17.7489 28.08 17.9881 28.11 18.2273 28.13C18.7953 28.18 19.3733 28.21 19.9513 28.21C20.5194 28.21 21.0874 28.18 21.6455 28.13C21.8548 28.11 22.064 28.1 22.2634 28.07C22.4228 28.05 22.5823 28.03 22.7517 28.01Z" fill="white"/>
</svg>
