<svg width="28" height="28" viewBox="0 0 28 28" fill="none" xmlns="http://www.w3.org/2000/svg">
<rect x="6.81653" y="7" width="13.625" height="14" fill="white"/>
<path d="M18.3824 2.3335H8.86758C4.73467 2.3335 2.27081 4.86516 2.27081 9.11183V18.8768C2.27081 23.1352 4.73467 25.6668 8.86758 25.6668H18.371C22.5039 25.6668 24.9678 23.1352 24.9678 18.8885V9.11183C24.9791 4.86516 22.5153 2.3335 18.3824 2.3335ZM19.0523 11.3168L12.6145 17.9318C12.4555 18.0952 12.2398 18.1885 12.0127 18.1885C11.7856 18.1885 11.5699 18.0952 11.4109 17.9318L8.19769 14.6302C7.86842 14.2918 7.86842 13.7318 8.19769 13.3935C8.52696 13.0552 9.07196 13.0552 9.40123 13.3935L12.0127 16.0768L17.8487 10.0802C18.178 9.74183 18.723 9.74183 19.0523 10.0802C19.3815 10.4185 19.3815 10.9668 19.0523 11.3168Z" fill="#B913E2"/>
</svg>
