<svg width="46" height="47" viewBox="0 0 46 47" fill="none" xmlns="http://www.w3.org/2000/svg">
<path d="M25.6833 33.7654H20.8725C17.7292 33.7654 15.18 31.0989 15.18 27.8141C15.18 27.0219 15.8317 26.3649 16.6175 26.3649C17.4033 26.3649 18.055 27.0219 18.055 27.8141C18.055 29.4951 19.32 30.867 20.8725 30.867H25.6833C26.9292 30.867 27.9642 29.7463 27.9642 28.3938C27.9642 26.7127 27.37 26.3842 26.3925 26.0364L18.6683 23.2926C17.1733 22.7709 15.1608 21.6502 15.1608 18.1915C15.1608 15.2158 17.48 12.8198 20.3167 12.8198H25.1275C28.2708 12.8198 30.82 15.4863 30.82 18.7712C30.82 19.5634 30.1683 20.2203 29.3825 20.2203C28.5967 20.2203 27.945 19.5634 27.945 18.7712C27.945 17.0901 26.68 15.7182 25.1275 15.7182H20.3167C19.0708 15.7182 18.0358 16.8389 18.0358 18.1915C18.0358 19.8725 18.63 20.201 19.6075 20.5488L27.3317 23.2926C28.8267 23.8143 30.8392 24.935 30.8392 28.3938C30.82 31.3501 28.52 33.7654 25.6833 33.7654Z" fill="#B913E2"/>
<path d="M23 36.3354C22.2142 36.3354 21.5625 35.6784 21.5625 34.8862V11.6992C21.5625 10.907 22.2142 10.25 23 10.25C23.7858 10.25 24.4375 10.907 24.4375 11.6992V34.8862C24.4375 35.6784 23.7858 36.3354 23 36.3354Z" fill="#B913E2"/>
<path d="M23 44.0644C11.6341 44.0644 2.39581 34.7509 2.39581 23.2927C2.39581 11.8344 11.6341 2.521 23 2.521C34.3658 2.521 43.6041 11.8344 43.6041 23.2927C43.6041 34.7509 34.3658 44.0644 23 44.0644ZM23 5.41937C13.225 5.41937 5.27081 13.4382 5.27081 23.2927C5.27081 33.1472 13.225 41.166 23 41.166C32.775 41.166 40.7291 33.1472 40.7291 23.2927C40.7291 13.4382 32.775 5.41937 23 5.41937Z" fill="#B913E2"/>
</svg>
