<svg width="46" height="46" viewBox="0 0 46 46" fill="none" xmlns="http://www.w3.org/2000/svg">
<path d="M15.3333 42.78C14.7967 42.78 14.2408 42.6459 13.7425 42.3776C12.65 41.8026 11.9792 40.6525 11.9792 39.4258V36.7043C6.19084 36.1101 2.39584 31.855 2.39584 25.76V14.2601C2.39584 7.66676 6.82334 3.23926 13.4167 3.23926H32.5833C39.1767 3.23926 43.6042 7.66676 43.6042 14.2601V25.76C43.6042 32.3533 39.1767 36.7808 32.5833 36.7808H25.3575L17.1925 42.2243C16.6366 42.5885 15.985 42.78 15.3333 42.78ZM13.4167 6.09507C8.47168 6.09507 5.27084 9.29591 5.27084 14.2409V25.741C5.27084 30.686 8.47168 33.8869 13.4167 33.8869C14.2025 33.8869 14.8542 34.5385 14.8542 35.3244V39.4069C14.8542 39.656 15.0075 39.771 15.1034 39.8285C15.1992 39.886 15.3909 39.9435 15.6017 39.8093L24.1309 34.136C24.3609 33.9827 24.6484 33.8869 24.9359 33.8869H32.6025C37.5475 33.8869 40.7484 30.686 40.7484 25.741V14.2409C40.7484 9.29591 37.5475 6.09507 32.6025 6.09507H13.4167Z" fill="#B913E2"/>
<path d="M22.9996 23.2109C22.2138 23.2109 21.5621 22.5593 21.5621 21.7734V21.371C21.5621 19.1477 23.1913 18.0552 23.8046 17.6335C24.5138 17.1543 24.7438 16.8285 24.7438 16.3302C24.7438 15.3718 23.958 14.5859 22.9996 14.5859C22.0413 14.5859 21.2555 15.3718 21.2555 16.3302C21.2555 17.116 20.6039 17.7677 19.818 17.7677C19.0322 17.7677 18.3805 17.116 18.3805 16.3302C18.3805 13.781 20.4505 11.7109 22.9996 11.7109C25.5488 11.7109 27.6188 13.781 27.6188 16.3302C27.6188 18.5152 26.0088 19.6076 25.4147 20.0101C24.6672 20.5085 24.4371 20.8343 24.4371 21.371V21.7734C24.4371 22.5784 23.7855 23.2109 22.9996 23.2109Z" fill="#B913E2"/>
<path d="M23 27.9834C22.195 27.9834 21.5625 27.3317 21.5625 26.5459C21.5625 25.7601 22.2142 25.1084 23 25.1084C23.7858 25.1084 24.4375 25.7601 24.4375 26.5459C24.4375 27.3317 23.805 27.9834 23 27.9834Z" fill="#B913E2"/>
</svg>
