<svg width="65" height="46" viewBox="0 0 65 46" fill="none" xmlns="http://www.w3.org/2000/svg">
<rect x="0.5" y="0.5" width="63.5999" height="44.6" rx="3.5" fill="white"/>
<rect x="0.5" y="0.5" width="63.5999" height="44.6" rx="3.5" stroke="#F3F4F6"/>
<path fill-rule="evenodd" clip-rule="evenodd" d="M20.4255 30.1308H16.512L13.5773 18.6056C13.438 18.0755 13.1423 17.6068 12.7072 17.3859C11.6215 16.8308 10.4251 16.389 9.12 16.1662V15.7224H15.4243C16.2944 15.7224 16.947 16.389 17.0558 17.1631L18.5784 25.4766L22.49 15.7224H26.2948L20.4255 30.1308ZM28.47 30.1308H24.774L27.8174 15.7224H31.5134L28.47 30.1308ZM36.2951 19.714C36.4039 18.938 37.0564 18.4942 37.8178 18.4942C39.0141 18.3828 40.3174 18.6057 41.405 19.1589L42.0576 16.0567C40.9699 15.613 39.7736 15.3901 38.6879 15.3901C35.1006 15.3901 32.4904 17.3859 32.4904 20.1558C32.4904 22.263 34.3393 23.3694 35.6444 24.0359C37.0564 24.7005 37.6002 25.1443 37.4915 25.8089C37.4915 26.8058 36.4039 27.2495 35.3182 27.2495C34.013 27.2495 32.7079 26.9172 31.5134 26.3621L30.8608 29.4662C32.166 30.0194 33.578 30.2422 34.8831 30.2422C38.9054 30.3517 41.405 28.3579 41.405 25.3652C41.405 21.5964 36.2951 21.3755 36.2951 19.714ZM54.34 30.1308L51.4053 15.7224H48.2531C47.6006 15.7224 46.948 16.1662 46.7305 16.8308L41.2962 30.1308H45.101L45.8604 28.0255H50.5352L50.9703 30.1308H54.34ZM48.7969 19.6026L49.8826 25.0329H46.8392L48.7969 19.6026Z" fill="#172B85"/>
</svg>
