<svg width="981" height="305" viewBox="0 0 981 305" fill="none" xmlns="http://www.w3.org/2000/svg">
<path d="M46.1826 287.69C45.3613 287.69 44.7365 287.356 44.3083 286.689C43.8801 286.016 43.666 285.075 43.666 283.867C43.666 282.653 43.8836 281.716 44.3188 281.056C44.7611 280.396 45.3894 280.066 46.2037 280.066C47.025 280.066 47.6498 280.4 48.078 281.066C48.5063 281.733 48.7204 282.674 48.7204 283.889C48.7204 285.103 48.4992 286.04 48.057 286.7C47.6217 287.36 46.997 287.69 46.1826 287.69ZM46.1932 286.826C46.5091 286.826 46.7793 286.735 47.004 286.553C47.2356 286.363 47.4111 286.054 47.5305 285.626C47.6568 285.198 47.72 284.622 47.72 283.899C47.72 282.93 47.5831 282.193 47.3094 281.688C47.0426 281.182 46.6705 280.93 46.1932 280.93C45.8773 280.93 45.6035 281.024 45.3718 281.214C45.1472 281.396 44.9717 281.702 44.8453 282.13C44.726 282.551 44.6663 283.127 44.6663 283.857C44.6663 284.826 44.7997 285.563 45.0665 286.068C45.3402 286.574 45.7158 286.826 46.1932 286.826Z" fill="#9CA3AF"/>
<path d="M31.9227 246.928V246.085H33.4285V240.768L32.0175 241.831L31.5015 241.126L33.6812 239.557H34.3762V246.085H35.6293V246.928H31.9227ZM39.8688 247.054C39.0474 247.054 38.4226 246.721 37.9944 246.054C37.5662 245.38 37.3521 244.439 37.3521 243.232C37.3521 242.017 37.5697 241.08 38.005 240.42C38.4472 239.76 39.0755 239.43 39.8898 239.43C40.7112 239.43 41.3359 239.764 41.7642 240.431C42.1924 241.098 42.4065 242.038 42.4065 243.253C42.4065 244.467 42.1854 245.404 41.7431 246.064C41.3079 246.724 40.6831 247.054 39.8688 247.054ZM39.8793 246.191C40.1952 246.191 40.4655 246.099 40.6901 245.917C40.9218 245.727 41.0973 245.418 41.2166 244.99C41.343 244.562 41.4061 243.986 41.4061 243.263C41.4061 242.295 41.2693 241.557 40.9955 241.052C40.7287 240.547 40.3567 240.294 39.8793 240.294C39.5634 240.294 39.2896 240.389 39.058 240.578C38.8333 240.761 38.6578 241.066 38.5315 241.494C38.4121 241.915 38.3524 242.491 38.3524 243.221C38.3524 244.19 38.4858 244.927 38.7526 245.432C39.0264 245.938 39.4019 246.191 39.8793 246.191ZM46.1826 247.054C45.3613 247.054 44.7365 246.721 44.3083 246.054C43.8801 245.38 43.666 244.439 43.666 243.232C43.666 242.017 43.8836 241.08 44.3188 240.42C44.7611 239.76 45.3894 239.43 46.2037 239.43C47.025 239.43 47.6498 239.764 48.078 240.431C48.5063 241.098 48.7204 242.038 48.7204 243.253C48.7204 244.467 48.4992 245.404 48.057 246.064C47.6217 246.724 46.997 247.054 46.1826 247.054ZM46.1932 246.191C46.5091 246.191 46.7793 246.099 47.004 245.917C47.2356 245.727 47.4111 245.418 47.5305 244.99C47.6568 244.562 47.72 243.986 47.72 243.263C47.72 242.295 47.5831 241.557 47.3094 241.052C47.0426 240.547 46.6705 240.294 46.1932 240.294C45.8773 240.294 45.6035 240.389 45.3718 240.578C45.1472 240.761 44.9717 241.066 44.8453 241.494C44.726 241.915 44.6663 242.491 44.6663 243.221C44.6663 244.19 44.7997 244.927 45.0665 245.432C45.3402 245.938 45.7158 246.191 46.1932 246.191Z" fill="#9CA3AF"/>
<path d="M31.333 199.343C31.312 199.216 31.3015 199.087 31.3015 198.953C31.3015 198.497 31.3787 198.09 31.5331 197.732C31.6946 197.367 31.9017 197.037 32.1544 196.742C32.4071 196.44 32.6739 196.163 32.9547 195.91C33.2425 195.65 33.5092 195.405 33.7549 195.173C34.0077 194.934 34.2148 194.696 34.3762 194.457C34.5377 194.218 34.6184 193.969 34.6184 193.709C34.6184 193.414 34.5096 193.172 34.292 192.983C34.0744 192.786 33.7936 192.688 33.4496 192.688C33.1547 192.688 32.8845 192.747 32.6388 192.867C32.4001 192.979 32.1754 193.134 31.9648 193.33L31.4383 192.688C31.7191 192.435 32.028 192.232 32.365 192.077C32.709 191.923 33.1056 191.845 33.5549 191.845C33.9691 191.845 34.3306 191.926 34.6395 192.088C34.9483 192.242 35.187 192.456 35.3555 192.73C35.531 193.004 35.6188 193.309 35.6188 193.646C35.6188 193.983 35.545 194.295 35.3976 194.583C35.2502 194.871 35.0607 195.141 34.829 195.394C34.5973 195.647 34.3481 195.892 34.0814 196.131C33.8146 196.363 33.5584 196.601 33.3127 196.847C33.067 197.093 32.8564 197.349 32.6809 197.616C32.5124 197.883 32.4071 198.17 32.365 198.479H35.6082V199.343H31.333ZM39.8688 199.469C39.0474 199.469 38.4226 199.136 37.9944 198.469C37.5662 197.795 37.3521 196.854 37.3521 195.647C37.3521 194.432 37.5697 193.495 38.005 192.835C38.4472 192.175 39.0755 191.845 39.8898 191.845C40.7112 191.845 41.3359 192.179 41.7642 192.846C42.1924 193.513 42.4065 194.453 42.4065 195.668C42.4065 196.882 42.1854 197.819 41.7431 198.479C41.3079 199.139 40.6831 199.469 39.8688 199.469ZM39.8793 198.606C40.1952 198.606 40.4655 198.514 40.6901 198.332C40.9218 198.142 41.0973 197.833 41.2166 197.405C41.343 196.977 41.4061 196.401 41.4061 195.678C41.4061 194.71 41.2693 193.972 40.9955 193.467C40.7287 192.962 40.3567 192.709 39.8793 192.709C39.5634 192.709 39.2896 192.804 39.058 192.993C38.8333 193.176 38.6578 193.481 38.5315 193.909C38.4121 194.33 38.3524 194.906 38.3524 195.636C38.3524 196.605 38.4858 197.342 38.7526 197.848C39.0264 198.353 39.4019 198.606 39.8793 198.606ZM46.1826 199.469C45.3613 199.469 44.7365 199.136 44.3083 198.469C43.8801 197.795 43.666 196.854 43.666 195.647C43.666 194.432 43.8836 193.495 44.3188 192.835C44.7611 192.175 45.3894 191.845 46.2037 191.845C47.025 191.845 47.6498 192.179 48.078 192.846C48.5063 193.513 48.7204 194.453 48.7204 195.668C48.7204 196.882 48.4992 197.819 48.057 198.479C47.6217 199.139 46.997 199.469 46.1826 199.469ZM46.1932 198.606C46.5091 198.606 46.7793 198.514 47.004 198.332C47.2356 198.142 47.4111 197.833 47.5305 197.405C47.6568 196.977 47.72 196.401 47.72 195.678C47.72 194.71 47.5831 193.972 47.3094 193.467C47.0426 192.962 46.6705 192.709 46.1932 192.709C45.8773 192.709 45.6035 192.804 45.3718 192.993C45.1472 193.176 44.9717 193.481 44.8453 193.909C44.726 194.33 44.6663 194.906 44.6663 195.636C44.6663 196.605 44.7997 197.342 45.0665 197.848C45.3402 198.353 45.7158 198.606 46.1932 198.606Z" fill="#9CA3AF"/>
<path d="M33.1337 153.646C32.6774 153.646 32.2807 153.586 31.9438 153.467C31.6068 153.341 31.319 153.19 31.0803 153.014L31.5121 152.224C31.7086 152.372 31.9368 152.502 32.1965 152.614C32.4562 152.726 32.7721 152.782 33.1442 152.782C33.6075 152.782 33.9726 152.66 34.2393 152.414C34.5131 152.168 34.65 151.863 34.65 151.498C34.65 151.238 34.5798 151.003 34.4394 150.792C34.299 150.575 34.0814 150.399 33.7865 150.266C33.4987 150.132 33.1231 150.066 32.6598 150.066H32.0701V149.297H32.6177C33.0319 149.297 33.3724 149.234 33.6391 149.107C33.9129 148.981 34.1165 148.816 34.2499 148.613C34.3832 148.409 34.4499 148.195 34.4499 147.97C34.4499 147.64 34.3236 147.374 34.0708 147.17C33.8251 146.966 33.5198 146.865 33.1547 146.865C32.8248 146.865 32.53 146.921 32.2702 147.033C32.0175 147.138 31.8104 147.258 31.6489 147.391L31.2593 146.643C31.4699 146.503 31.7402 146.366 32.0701 146.233C32.4001 146.092 32.7862 146.022 33.2284 146.022C33.6918 146.022 34.0849 146.106 34.4078 146.275C34.7307 146.443 34.9764 146.668 35.1449 146.949C35.3204 147.223 35.4082 147.521 35.4082 147.844C35.4082 148.258 35.3029 148.606 35.0923 148.886C34.8887 149.167 34.5973 149.399 34.2183 149.581C34.6605 149.75 35.0045 149.999 35.2502 150.329C35.5029 150.652 35.6293 151.031 35.6293 151.466C35.6293 151.831 35.538 152.182 35.3555 152.519C35.18 152.849 34.9062 153.119 34.5342 153.33C34.1691 153.541 33.7023 153.646 33.1337 153.646ZM39.8688 153.646C39.0474 153.646 38.4226 153.312 37.9944 152.646C37.5662 151.972 37.3521 151.031 37.3521 149.824C37.3521 148.609 37.5697 147.672 38.005 147.012C38.4472 146.352 39.0755 146.022 39.8898 146.022C40.7112 146.022 41.3359 146.356 41.7642 147.023C42.1924 147.689 42.4065 148.63 42.4065 149.845C42.4065 151.059 42.1854 151.996 41.7431 152.656C41.3079 153.316 40.6831 153.646 39.8688 153.646ZM39.8793 152.782C40.1952 152.782 40.4655 152.691 40.6901 152.509C40.9218 152.319 41.0973 152.01 41.2166 151.582C41.343 151.154 41.4061 150.578 41.4061 149.855C41.4061 148.886 41.2693 148.149 40.9955 147.644C40.7287 147.138 40.3567 146.886 39.8793 146.886C39.5634 146.886 39.2896 146.98 39.058 147.17C38.8333 147.352 38.6578 147.658 38.5315 148.086C38.4121 148.507 38.3524 149.083 38.3524 149.813C38.3524 150.782 38.4858 151.519 38.7526 152.024C39.0264 152.53 39.4019 152.782 39.8793 152.782ZM46.1826 153.646C45.3613 153.646 44.7365 153.312 44.3083 152.646C43.8801 151.972 43.666 151.031 43.666 149.824C43.666 148.609 43.8836 147.672 44.3188 147.012C44.7611 146.352 45.3894 146.022 46.2037 146.022C47.025 146.022 47.6498 146.356 48.078 147.023C48.5063 147.689 48.7204 148.63 48.7204 149.845C48.7204 151.059 48.4992 151.996 48.057 152.656C47.6217 153.316 46.997 153.646 46.1826 153.646ZM46.1932 152.782C46.5091 152.782 46.7793 152.691 47.004 152.509C47.2356 152.319 47.4111 152.01 47.5305 151.582C47.6568 151.154 47.72 150.578 47.72 149.855C47.72 148.886 47.5831 148.149 47.3094 147.644C47.0426 147.138 46.6705 146.886 46.1932 146.886C45.8773 146.886 45.6035 146.98 45.3718 147.17C45.1472 147.352 44.9717 147.658 44.8453 148.086C44.726 148.507 44.6663 149.083 44.6663 149.813C44.6663 150.782 44.7997 151.519 45.0665 152.024C45.3402 152.53 45.7158 152.782 46.1932 152.782Z" fill="#9CA3AF"/>
<path d="M34.2288 104.171V102.602H31.0803V101.844L33.2811 96.7262L34.1024 97.0737L32.1123 101.738H34.2288V99.643H35.1765V101.738H36.0505V102.602H35.1765V104.171H34.2288ZM39.8688 104.297C39.0474 104.297 38.4226 103.964 37.9944 103.297C37.5662 102.623 37.3521 101.682 37.3521 100.475C37.3521 99.2604 37.5697 98.3232 38.005 97.6634C38.4472 97.0035 39.0755 96.6735 39.8898 96.6735C40.7112 96.6735 41.3359 97.007 41.7642 97.6739C42.1924 98.3408 42.4065 99.2815 42.4065 100.496C42.4065 101.71 42.1854 102.648 41.7431 103.307C41.3079 103.967 40.6831 104.297 39.8688 104.297ZM39.8793 103.434C40.1952 103.434 40.4655 103.343 40.6901 103.16C40.9218 102.97 41.0973 102.662 41.2166 102.233C41.343 101.805 41.4061 101.23 41.4061 100.506C41.4061 99.5377 41.2693 98.8006 40.9955 98.2952C40.7287 97.7897 40.3567 97.537 39.8793 97.537C39.5634 97.537 39.2896 97.6318 39.058 97.8213C38.8333 98.0038 38.6578 98.3092 38.5315 98.7374C38.4121 99.1586 38.3524 99.7343 38.3524 100.464C38.3524 101.433 38.4858 102.17 38.7526 102.676C39.0264 103.181 39.4019 103.434 39.8793 103.434ZM46.1826 104.297C45.3613 104.297 44.7365 103.964 44.3083 103.297C43.8801 102.623 43.666 101.682 43.666 100.475C43.666 99.2604 43.8836 98.3232 44.3188 97.6634C44.7611 97.0035 45.3894 96.6735 46.2037 96.6735C47.025 96.6735 47.6498 97.007 48.078 97.6739C48.5063 98.3408 48.7204 99.2815 48.7204 100.496C48.7204 101.71 48.4992 102.648 48.057 103.307C47.6217 103.967 46.997 104.297 46.1826 104.297ZM46.1932 103.434C46.5091 103.434 46.7793 103.343 47.004 103.16C47.2356 102.97 47.4111 102.662 47.5305 102.233C47.6568 101.805 47.72 101.23 47.72 100.506C47.72 99.5377 47.5831 98.8006 47.3094 98.2952C47.0426 97.7897 46.6705 97.537 46.1932 97.537C45.8773 97.537 45.6035 97.6318 45.3718 97.8213C45.1472 98.0038 44.9717 98.3092 44.8453 98.7374C44.726 99.1586 44.6663 99.7343 44.6663 100.464C44.6663 101.433 44.7997 102.17 45.0665 102.676C45.3402 103.181 45.7158 103.434 46.1932 103.434Z" fill="#9CA3AF"/>
<path d="M33.2495 56.7123C32.8213 56.7123 32.4527 56.6667 32.1439 56.5754C31.835 56.4771 31.5542 56.3402 31.3015 56.1647L31.7964 55.3539C31.9929 55.4943 32.2105 55.6137 32.4492 55.7119C32.6879 55.8032 32.9582 55.8488 33.26 55.8488C33.7304 55.8488 34.1095 55.7155 34.3973 55.4487C34.6851 55.1749 34.829 54.8274 34.829 54.4062C34.829 53.971 34.6781 53.6165 34.3762 53.3427C34.0814 53.0619 33.6567 52.9215 33.1021 52.9215H31.7964V49.2149H35.4397V50.0679H32.6914V52.0686H33.2179C33.7655 52.0686 34.2323 52.1633 34.6184 52.3529C35.0115 52.5424 35.3099 52.8057 35.5135 53.1426C35.7241 53.4796 35.8294 53.8657 35.8294 54.3009C35.8294 54.7713 35.7205 55.189 35.5029 55.554C35.2923 55.912 34.994 56.1963 34.6079 56.4069C34.2218 56.6105 33.769 56.7123 33.2495 56.7123ZM39.8688 56.7123C39.0474 56.7123 38.4226 56.3788 37.9944 55.7119C37.5662 55.038 37.3521 54.0973 37.3521 52.8899C37.3521 51.6754 37.5697 50.7383 38.005 50.0784C38.4472 49.4185 39.0755 49.0886 39.8898 49.0886C40.7112 49.0886 41.3359 49.422 41.7642 50.0889C42.1924 50.7558 42.4065 51.6965 42.4065 52.911C42.4065 54.1254 42.1854 55.0626 41.7431 55.7225C41.3079 56.3824 40.6831 56.7123 39.8688 56.7123ZM39.8793 55.8488C40.1952 55.8488 40.4655 55.7576 40.6901 55.5751C40.9218 55.3855 41.0973 55.0766 41.2166 54.6484C41.343 54.2202 41.4061 53.6446 41.4061 52.9215C41.4061 51.9527 41.2693 51.2156 40.9955 50.7102C40.7287 50.2048 40.3567 49.952 39.8793 49.952C39.5634 49.952 39.2896 50.0468 39.058 50.2363C38.8333 50.4189 38.6578 50.7242 38.5315 51.1525C38.4121 51.5737 38.3524 52.1493 38.3524 52.8794C38.3524 53.8481 38.4858 54.5852 38.7526 55.0907C39.0264 55.5961 39.4019 55.8488 39.8793 55.8488ZM46.1826 56.7123C45.3613 56.7123 44.7365 56.3788 44.3083 55.7119C43.8801 55.038 43.666 54.0973 43.666 52.8899C43.666 51.6754 43.8836 50.7383 44.3188 50.0784C44.7611 49.4185 45.3894 49.0886 46.2037 49.0886C47.025 49.0886 47.6498 49.422 48.078 50.0889C48.5063 50.7558 48.7204 51.6965 48.7204 52.911C48.7204 54.1254 48.4992 55.0626 48.057 55.7225C47.6217 56.3824 46.997 56.7123 46.1826 56.7123ZM46.1932 55.8488C46.5091 55.8488 46.7793 55.7576 47.004 55.5751C47.2356 55.3855 47.4111 55.0766 47.5305 54.6484C47.6568 54.2202 47.72 53.6446 47.72 52.9215C47.72 51.9527 47.5831 51.2156 47.3094 50.7102C47.0426 50.2048 46.6705 49.952 46.1932 49.952C45.8773 49.952 45.6035 50.0468 45.3718 50.2363C45.1472 50.4189 44.9717 50.7242 44.8453 51.1525C44.726 51.5737 44.6663 52.1493 44.6663 52.8794C44.6663 53.8481 44.7997 54.5852 45.0665 55.0907C45.3402 55.5961 45.7158 55.8488 46.1932 55.8488Z" fill="#9CA3AF"/>
<path d="M33.6075 9.12636C33.1653 9.12636 32.7546 9.01755 32.3755 8.79993C32.0035 8.57529 31.7051 8.23131 31.4805 7.76799C31.2558 7.30467 31.1435 6.7185 31.1435 6.00948C31.1435 5.41278 31.2207 4.85118 31.3752 4.32468C31.5366 3.79116 31.7753 3.32082 32.0912 2.91366C32.4141 2.5065 32.8108 2.18709 33.2811 1.95543C33.7514 1.72377 34.299 1.60794 34.9238 1.60794C34.987 1.60794 35.0536 1.61145 35.1238 1.61847C35.2011 1.61847 35.2678 1.62198 35.3239 1.629V2.49246C35.2678 2.48544 35.2046 2.48193 35.1344 2.48193C35.0642 2.47491 34.9975 2.4714 34.9343 2.4714C34.1691 2.4714 33.5373 2.70657 33.0389 3.17691C32.5475 3.64023 32.2456 4.27905 32.1333 5.09337C32.3299 4.90383 32.5826 4.73184 32.8915 4.5774C33.2004 4.41594 33.5514 4.33521 33.9445 4.33521C34.3376 4.33521 34.6886 4.42647 34.9975 4.60899C35.3064 4.79151 35.5486 5.04774 35.7241 5.37768C35.9066 5.7006 35.9978 6.0867 35.9978 6.53598C35.9978 7.04844 35.8925 7.50123 35.6819 7.89435C35.4784 8.28045 35.1976 8.58231 34.8395 8.79993C34.4815 9.01755 34.0708 9.12636 33.6075 9.12636ZM33.6496 8.2629C34.0708 8.2629 34.4078 8.10846 34.6605 7.79958C34.9203 7.4907 35.0501 7.10811 35.0501 6.65181C35.0501 6.19551 34.9273 5.82696 34.6816 5.54616C34.4359 5.26536 34.1095 5.12496 33.7023 5.12496C33.4004 5.12496 33.1126 5.19867 32.8388 5.34609C32.5651 5.49351 32.3229 5.69007 32.1123 5.93577V6.16743C32.1263 6.82731 32.2772 7.34328 32.5651 7.71534C32.8599 8.08038 33.2214 8.2629 33.6496 8.2629ZM39.8688 9.12636C39.0474 9.12636 38.4226 8.79291 37.9944 8.12601C37.5662 7.45209 37.3521 6.51141 37.3521 5.30397C37.3521 4.08951 37.5697 3.15234 38.005 2.49246C38.4472 1.83258 39.0755 1.50264 39.8898 1.50264C40.7112 1.50264 41.3359 1.83609 41.7642 2.50299C42.1924 3.16989 42.4065 4.11057 42.4065 5.32503C42.4065 6.53949 42.1854 7.47666 41.7431 8.13654C41.3079 8.79642 40.6831 9.12636 39.8688 9.12636ZM39.8793 8.2629C40.1952 8.2629 40.4655 8.17164 40.6901 7.98912C40.9218 7.79958 41.0973 7.4907 41.2166 7.06248C41.343 6.63426 41.4061 6.05862 41.4061 5.33556C41.4061 4.3668 41.2693 3.6297 40.9955 3.12426C40.7287 2.61882 40.3567 2.3661 39.8793 2.3661C39.5634 2.3661 39.2896 2.46087 39.058 2.65041C38.8333 2.83293 38.6578 3.1383 38.5315 3.56652C38.4121 3.98772 38.3524 4.56336 38.3524 5.29344C38.3524 6.2622 38.4858 6.9993 38.7526 7.50474C39.0264 8.01018 39.4019 8.2629 39.8793 8.2629ZM46.1826 9.12636C45.3613 9.12636 44.7365 8.79291 44.3083 8.12601C43.8801 7.45209 43.666 6.51141 43.666 5.30397C43.666 4.08951 43.8836 3.15234 44.3188 2.49246C44.7611 1.83258 45.3894 1.50264 46.2037 1.50264C47.025 1.50264 47.6498 1.83609 48.078 2.50299C48.5063 3.16989 48.7204 4.11057 48.7204 5.32503C48.7204 6.53949 48.4992 7.47666 48.057 8.13654C47.6217 8.79642 46.997 9.12636 46.1826 9.12636ZM46.1932 8.2629C46.5091 8.2629 46.7793 8.17164 47.004 7.98912C47.2356 7.79958 47.4111 7.4907 47.5305 7.06248C47.6568 6.63426 47.72 6.05862 47.72 5.33556C47.72 4.3668 47.5831 3.6297 47.3094 3.12426C47.0426 2.61882 46.6705 2.3661 46.1932 2.3661C45.8773 2.3661 45.6035 2.46087 45.3718 2.65041C45.1472 2.83293 44.9717 3.1383 44.8453 3.56652C44.726 3.98772 44.6663 4.56336 44.6663 5.29344C44.6663 6.2622 44.7997 6.9993 45.0665 7.50474C45.3402 8.01018 45.7158 8.2629 46.1932 8.2629Z" fill="#9CA3AF"/>
<path d="M75.5891 89.5479H620.231" stroke="#4F5866" stroke-width="0.904614"/>
<path d="M75.5891 132.596H620.231" stroke="#4F5866" stroke-width="0.904614"/>
<path d="M75.5891 175.644H620.231" stroke="#4F5866" stroke-width="0.904614"/>
<path d="M75.5891 218.688H620.231" stroke="#4F5866" stroke-width="0.904614"/>
<rect x="76.0414" y="2.31364" width="543.737" height="265.347" stroke="#4F5866" stroke-width="0.904614"/>
<path d="M167.212 1.86133L167.212 268.113" stroke="#4F5866" stroke-width="0.904614"/>
<path d="M257.135 1.86133L257.135 268.113" stroke="#4F5866" stroke-width="0.904614"/>
<path d="M347.062 1.86133L347.062 268.113" stroke="#4F5866" stroke-width="0.904614"/>
<path d="M436.989 1.86133L436.989 268.113" stroke="#4F5866" stroke-width="0.904614"/>
<path d="M526.911 1.86133L526.911 268.113" stroke="#4F5866" stroke-width="0.904614"/>
<path d="M436.358 89.5479H981" stroke="#4F5866" stroke-width="0.904614"/>
<path d="M436.358 132.596H981" stroke="#4F5866" stroke-width="0.904614"/>
<path d="M436.358 175.644H981" stroke="#4F5866" stroke-width="0.904614"/>
<path d="M436.358 218.688H981" stroke="#4F5866" stroke-width="0.904614"/>
<rect x="436.811" y="2.31364" width="543.737" height="265.347" stroke="#4F5866" stroke-width="0.904614"/>
<path d="M527.982 1.86133L527.982 268.113" stroke="#4F5866" stroke-width="0.904614"/>
<path d="M617.905 1.86133L617.905 268.113" stroke="#4F5866" stroke-width="0.904614"/>
<path d="M707.831 1.86133L707.831 268.113" stroke="#4F5866" stroke-width="0.904614"/>
<path d="M797.758 1.86133L797.758 268.113" stroke="#4F5866" stroke-width="0.904614"/>
<path d="M887.68 1.86133L887.68 268.113" stroke="#4F5866" stroke-width="0.904614"/>
<ellipse cx="76.4355" cy="201.86" rx="5.93846" ry="5.58012" fill="#B913E2"/>
<ellipse cx="168.058" cy="158.814" rx="5.93846" ry="5.58012" fill="#B913E2"/>
<ellipse cx="257.981" cy="201.86" rx="5.93846" ry="5.58012" fill="#B913E2"/>
<ellipse cx="347.908" cy="29.6739" rx="5.93846" ry="5.58012" fill="#B913E2"/>
<ellipse cx="437.834" cy="115.766" rx="5.93846" ry="5.58012" fill="#B913E2"/>
<ellipse cx="527.758" cy="72.7207" rx="5.93846" ry="5.58012" fill="#B913E2"/>
<ellipse cx="616.984" cy="199.547" rx="5.93846" ry="5.58012" fill="#B913E2"/>
<ellipse cx="706.984" cy="193.547" rx="5.93846" ry="5.58012" fill="#B913E2"/>
<ellipse cx="796.984" cy="195.547" rx="5.93846" ry="5.58012" fill="#B913E2"/>
<ellipse cx="886.984" cy="168.547" rx="5.93846" ry="5.58012" fill="#B913E2"/>
<path d="M76.2505 199.972L167.662 156.069L255.525 200.325L344.704 30.4683L433.318 114.084L522.21 72.5386L610.724 201.024" stroke="#B913E2" stroke-width="1.78659"/>
<path d="M77.9995 130.541L169.122 89.9834L257.714 130.541L346.306 175.87L436.585 220.403L526.02 175.87L616.299 130.541" stroke="#E47DE1" stroke-width="1.80923"/>
<path d="M77.9995 265.343L169.904 238.907L258.058 242.432L346.212 220.401L438.116 250.363L529.083 234.501L619.113 263.581" stroke="#7375FD" stroke-width="1.80923"/>
<g clip-path="url(#clip0_311_7599)">
<path d="M616.526 133.72L702.181 102L785.457 133.72L868.733 169.171L953.595 204L1037.66 169.171L1122.53 133.72" stroke="#E47DE1" stroke-width="1.80923"/>
<path d="M616.526 202.773L702.349 193.419L784.983 203.126L868.502 166.528L951.905 184.749L1035.37 175.901L1118.75 203.826" stroke="#B913E2" stroke-width="1.78659"/>
<path d="M609.526 266.768L695.885 240.332L778.719 243.857L861.554 221.826L947.913 251.787L1033.39 235.926L1117.99 265.006" stroke="#7375FD" stroke-width="1.80923"/>
</g>
<ellipse cx="76.4355" cy="131.799" rx="5.93846" ry="5.58012" fill="#E47DE1"/>
<ellipse cx="168.059" cy="90.3457" rx="5.93846" ry="5.58012" fill="#E47DE1"/>
<ellipse cx="257.981" cy="128.609" rx="5.93846" ry="5.58012" fill="#E47DE1"/>
<ellipse cx="347.908" cy="176.439" rx="5.93846" ry="5.58012" fill="#E47DE1"/>
<ellipse cx="437.835" cy="221.08" rx="5.93846" ry="5.58012" fill="#E47DE1"/>
<ellipse cx="527.758" cy="176.439" rx="5.93846" ry="5.58012" fill="#E47DE1"/>
<ellipse cx="616.984" cy="132.575" rx="5.93846" ry="5.58012" fill="#E47DE1"/>
<ellipse cx="700.984" cy="102.575" rx="5.93846" ry="5.58012" fill="#E47DE1"/>
<ellipse cx="797.984" cy="137.575" rx="5.93846" ry="5.58012" fill="#E47DE1"/>
<ellipse cx="887.984" cy="178.575" rx="5.93846" ry="5.58012" fill="#E47DE1"/>
<ellipse cx="78.3113" cy="265.637" rx="5.93846" ry="5.58012" fill="#7375FD"/>
<ellipse cx="168.34" cy="239.2" rx="5.93846" ry="5.58012" fill="#7375FD"/>
<ellipse cx="258.37" cy="242.725" rx="5.93846" ry="5.58012" fill="#7375FD"/>
<ellipse cx="346.523" cy="221.575" rx="5.93846" ry="5.58012" fill="#7375FD"/>
<ellipse cx="438.428" cy="251.537" rx="5.93846" ry="5.58012" fill="#7375FD"/>
<ellipse cx="528.457" cy="235.675" rx="5.93846" ry="5.58012" fill="#7375FD"/>
<ellipse cx="618.487" cy="263.874" rx="5.93846" ry="5.58012" fill="#7375FD"/>
<ellipse cx="708.486" cy="242.874" rx="5.93846" ry="5.58012" fill="#7375FD"/>
<ellipse cx="798.486" cy="237.874" rx="5.93846" ry="5.58012" fill="#7375FD"/>
<ellipse cx="888.486" cy="231.874" rx="5.93846" ry="5.58012" fill="#7375FD"/>
<defs>
<clipPath id="clip0_311_7599">
<rect width="371.412" height="236" fill="white" transform="translate(609.526 32)"/>
</clipPath>
</defs>
</svg>
