<svg width="21" height="19" viewBox="0 0 21 19" fill="none" xmlns="http://www.w3.org/2000/svg">
<path d="M10.4012 17.1395C10.1473 17.1395 9.90158 17.1079 9.69684 17.0366C6.56828 15.9995 1.59698 12.3183 1.59698 6.87952C1.59698 4.10868 3.91474 1.86035 6.76484 1.86035C8.14894 1.86035 9.44295 2.38285 10.4012 3.31702C11.3594 2.38285 12.6534 1.86035 14.0375 1.86035C16.8876 1.86035 19.2054 4.1166 19.2054 6.87952C19.2054 12.3262 14.2341 15.9995 11.1055 17.0366C10.9008 17.1079 10.6551 17.1395 10.4012 17.1395ZM6.76484 3.04785C4.5945 3.04785 2.82548 4.76577 2.82548 6.87952C2.82548 12.2866 8.20627 15.2949 10.0981 15.9204C10.2456 15.9679 10.565 15.9679 10.7124 15.9204C12.5961 15.2949 17.9851 12.2945 17.9851 6.87952C17.9851 4.76577 16.216 3.04785 14.0457 3.04785C12.8008 3.04785 11.646 3.60994 10.9008 4.58369C10.6714 4.88452 10.1473 4.88452 9.91796 4.58369C9.1563 3.60202 8.00971 3.04785 6.76484 3.04785Z" fill="white"/>
</svg>
