<svg width="24" height="24" viewBox="0 0 24 24" fill="none" xmlns="http://www.w3.org/2000/svg">
<path d="M6.70997 4.14004L6.77997 7.93004C6.78997 8.45004 6.45997 9.14004 6.03997 9.45004L3.55997 11.33C1.96997 12.53 2.22997 14 4.12997 14.6L7.35997 15.61C7.89997 15.78 8.46997 16.37 8.60997 16.92L9.37997 19.86C9.98997 22.18 11.51 22.41 12.77 20.37L14.53 17.52C14.85 17 15.61 16.61 16.21 16.64L19.55 16.81C21.94 16.93 22.62 15.55 21.06 13.73L19.08 11.43C18.71 11 18.54 10.2 18.71 9.66004L19.73 6.42004C20.32 4.52004 19.26 3.47004 17.37 4.09004L14.42 5.06004C13.92 5.22004 13.17 5.11004 12.75 4.80004L9.66997 2.58004C7.99997 1.39004 6.66997 2.09004 6.70997 4.14004Z" fill="#FBBF24"/>
<path d="M2.55999 20.4702L5.58999 17.4402C5.87999 17.1502 6.35999 17.1502 6.64999 17.4402C6.93999 17.7302 6.93999 18.2102 6.64999 18.5002L3.61999 21.5302C3.46999 21.6802 3.27999 21.7502 3.08999 21.7502C2.89999 21.7502 2.70999 21.6802 2.55999 21.5302C2.26999 21.2402 2.26999 20.7602 2.55999 20.4702Z" fill="#FBBF24"/>
</svg>
