<svg width="21" height="21" viewBox="0 0 21 21" fill="none" xmlns="http://www.w3.org/2000/svg">
<path d="M17.845 9.41895C17.845 11.102 17.3459 12.6457 16.4869 13.9341C15.2334 15.7913 13.2485 17.1029 10.9387 17.4395C10.5441 17.5091 10.1378 17.5439 9.71997 17.5439C9.30211 17.5439 8.89586 17.5091 8.50122 17.4395C6.1914 17.1029 4.20658 15.7913 2.95301 13.9341C2.09408 12.6457 1.59497 11.102 1.59497 9.41895C1.59497 4.92698 5.22801 1.29395 9.71997 1.29395C14.2119 1.29395 17.845 4.92698 17.845 9.41895Z" stroke="white" stroke-linecap="round" stroke-linejoin="round"/>
<path d="M10.3933 5.91359L11.0782 7.28322C11.171 7.46894 11.4148 7.65466 11.6353 7.68948L12.8773 7.8984C13.6666 8.02608 13.8523 8.60644 13.2835 9.17519L12.3201 10.1386C12.1576 10.3011 12.0648 10.6145 12.1228 10.8466L12.4014 12.0422C12.6219 12.9823 12.1228 13.3537 11.2871 12.8546L10.1264 12.1698C9.91745 12.0421 9.56923 12.0421 9.36031 12.1698L8.19959 12.8546C7.36388 13.3421 6.86477 12.9823 7.08531 12.0422L7.36388 10.8466C7.41031 10.6261 7.32906 10.3011 7.16656 10.1386L6.20316 9.17519C5.63441 8.60644 5.82013 8.03769 6.60941 7.8984L7.85138 7.68948C8.06031 7.65466 8.30406 7.46894 8.39691 7.28322L9.08173 5.91359C9.41834 5.17073 10.0219 5.17073 10.3933 5.91359Z" stroke="white" stroke-linecap="round" stroke-linejoin="round"/>
</svg>
