<svg width="12" height="7" viewBox="0 0 12 7" fill="none" xmlns="http://www.w3.org/2000/svg">
<path d="M5.59129 0.659347L0.696238 5.55449C0.58293 5.66771 0.520508 5.81884 0.520508 5.98C0.520508 6.14115 0.58293 6.29229 0.696238 6.4055L1.05664 6.766C1.29149 7.00057 1.67317 7.00057 1.90766 6.766L6.01823 2.65543L10.1334 6.77056C10.2467 6.88378 10.3977 6.94629 10.5588 6.94629C10.72 6.94629 10.8711 6.88378 10.9845 6.77056L11.3448 6.41007C11.4581 6.29676 11.5205 6.14571 11.5205 5.98456C11.5205 5.8234 11.4581 5.67227 11.3448 5.55905L6.44526 0.659347C6.33159 0.54586 6.17983 0.483527 6.0185 0.483885C5.85654 0.483527 5.70486 0.54586 5.59129 0.659347Z" fill="#27AE60"/>
</svg>
