<svg width="24" height="25" viewBox="0 0 24 25" fill="none" xmlns="http://www.w3.org/2000/svg">
<path d="M8 5.86719C7.59 5.86719 7.25 5.52719 7.25 5.11719V2.11719C7.25 1.70719 7.59 1.36719 8 1.36719C8.41 1.36719 8.75 1.70719 8.75 2.11719V5.11719C8.75 5.52719 8.41 5.86719 8 5.86719Z" fill="#6B7280"/>
<path d="M16 5.86719C15.59 5.86719 15.25 5.52719 15.25 5.11719V2.11719C15.25 1.70719 15.59 1.36719 16 1.36719C16.41 1.36719 16.75 1.70719 16.75 2.11719V5.11719C16.75 5.52719 16.41 5.86719 16 5.86719Z" fill="#6B7280"/>
<path d="M8.5 14.6173C8.37 14.6173 8.24 14.5873 8.12 14.5373C7.99 14.4873 7.89 14.4172 7.79 14.3272C7.61 14.1372 7.5 13.8873 7.5 13.6173C7.5 13.4873 7.53 13.3573 7.58 13.2373C7.63 13.1173 7.7 13.0073 7.79 12.9073C7.89 12.8173 7.99 12.7472 8.12 12.6972C8.48 12.5472 8.93 12.6273 9.21 12.9073C9.39 13.0973 9.5 13.3573 9.5 13.6173C9.5 13.6773 9.49 13.7473 9.48 13.8173C9.47 13.8773 9.45 13.9373 9.42 13.9973C9.4 14.0573 9.37 14.1173 9.33 14.1773C9.3 14.2273 9.25 14.2772 9.21 14.3272C9.02 14.5072 8.76 14.6173 8.5 14.6173Z" fill="#6B7280"/>
<path d="M12 14.6172C11.87 14.6172 11.74 14.5872 11.62 14.5372C11.49 14.4872 11.39 14.4172 11.29 14.3272C11.11 14.1372 11 13.8872 11 13.6172C11 13.4872 11.03 13.3572 11.08 13.2372C11.13 13.1172 11.2 13.0072 11.29 12.9072C11.39 12.8172 11.49 12.7472 11.62 12.6972C11.98 12.5372 12.43 12.6272 12.71 12.9072C12.89 13.0972 13 13.3572 13 13.6172C13 13.6772 12.99 13.7472 12.98 13.8172C12.97 13.8772 12.95 13.9372 12.92 13.9972C12.9 14.0572 12.87 14.1172 12.83 14.1772C12.8 14.2272 12.75 14.2772 12.71 14.3272C12.52 14.5072 12.26 14.6172 12 14.6172Z" fill="#6B7280"/>
<path d="M15.5 14.6172C15.37 14.6172 15.24 14.5872 15.12 14.5372C14.99 14.4872 14.89 14.4172 14.79 14.3272C14.75 14.2772 14.71 14.2272 14.67 14.1772C14.63 14.1172 14.6 14.0572 14.58 13.9972C14.55 13.9372 14.53 13.8772 14.52 13.8172C14.51 13.7472 14.5 13.6772 14.5 13.6172C14.5 13.3572 14.61 13.0972 14.79 12.9072C14.89 12.8172 14.99 12.7472 15.12 12.6972C15.49 12.5372 15.93 12.6272 16.21 12.9072C16.39 13.0972 16.5 13.3572 16.5 13.6172C16.5 13.6772 16.49 13.7472 16.48 13.8172C16.47 13.8772 16.45 13.9372 16.42 13.9972C16.4 14.0572 16.37 14.1172 16.33 14.1772C16.3 14.2272 16.25 14.2772 16.21 14.3272C16.02 14.5072 15.76 14.6172 15.5 14.6172Z" fill="#6B7280"/>
<path d="M8.5 18.1171C8.37 18.1171 8.24 18.0871 8.12 18.0371C8 17.9871 7.89 17.9171 7.79 17.8271C7.61 17.6371 7.5 17.3771 7.5 17.1171C7.5 16.9871 7.53 16.8571 7.58 16.7371C7.63 16.6071 7.7 16.4971 7.79 16.4071C8.16 16.0371 8.84 16.0371 9.21 16.4071C9.39 16.5971 9.5 16.8571 9.5 17.1171C9.5 17.3771 9.39 17.6371 9.21 17.8271C9.02 18.0071 8.76 18.1171 8.5 18.1171Z" fill="#6B7280"/>
<path d="M12 18.1171C11.74 18.1171 11.48 18.0071 11.29 17.8271C11.11 17.6371 11 17.3771 11 17.1171C11 16.9871 11.03 16.8571 11.08 16.7371C11.13 16.6071 11.2 16.4971 11.29 16.4071C11.66 16.0371 12.34 16.0371 12.71 16.4071C12.8 16.4971 12.87 16.6071 12.92 16.7371C12.97 16.8571 13 16.9871 13 17.1171C13 17.3771 12.89 17.6371 12.71 17.8271C12.52 18.0071 12.26 18.1171 12 18.1171Z" fill="#6B7280"/>
<path d="M15.5 18.1172C15.24 18.1172 14.98 18.0072 14.79 17.8272C14.7 17.7372 14.63 17.6272 14.58 17.4972C14.53 17.3772 14.5 17.2472 14.5 17.1172C14.5 16.9872 14.53 16.8572 14.58 16.7372C14.63 16.6072 14.7 16.4972 14.79 16.4072C15.02 16.1772 15.37 16.0672 15.69 16.1372C15.76 16.1472 15.82 16.1672 15.88 16.1972C15.94 16.2172 16 16.2472 16.06 16.2872C16.11 16.3172 16.16 16.3672 16.21 16.4072C16.39 16.5972 16.5 16.8572 16.5 17.1172C16.5 17.3772 16.39 17.6372 16.21 17.8272C16.02 18.0072 15.76 18.1172 15.5 18.1172Z" fill="#6B7280"/>
<path d="M20.5 9.95715H3.5C3.09 9.95715 2.75 9.61715 2.75 9.20715C2.75 8.79715 3.09 8.45715 3.5 8.45715H20.5C20.91 8.45715 21.25 8.79715 21.25 9.20715C21.25 9.61715 20.91 9.95715 20.5 9.95715Z" fill="#6B7280"/>
<path d="M16 22.8672H8C4.35 22.8672 2.25 20.7672 2.25 17.1172V8.61719C2.25 4.96719 4.35 2.86719 8 2.86719H16C19.65 2.86719 21.75 4.96719 21.75 8.61719V17.1172C21.75 20.7672 19.65 22.8672 16 22.8672ZM8 4.36719C5.14 4.36719 3.75 5.75719 3.75 8.61719V17.1172C3.75 19.9772 5.14 21.3672 8 21.3672H16C18.86 21.3672 20.25 19.9772 20.25 17.1172V8.61719C20.25 5.75719 18.86 4.36719 16 4.36719H8Z" fill="#6B7280"/>
</svg>
