<svg width="280" height="280" viewBox="0 0 280 280" fill="none" xmlns="http://www.w3.org/2000/svg">
<path d="M234.054 218.137C246.62 203.018 255.36 185.095 259.534 165.884C263.708 146.673 263.194 126.739 258.035 107.769C252.876 88.7982 243.223 71.3494 229.894 56.8984C216.566 42.4473 199.952 31.4191 181.46 24.7466C162.967 18.0741 143.14 15.9537 123.655 18.5647C104.169 21.1757 85.5997 28.4413 69.5163 39.7469C53.4329 51.0525 40.309 66.0655 31.2549 83.5158C22.2008 100.966 17.4828 120.341 17.5 140C17.5067 168.579 27.5778 196.243 45.9463 218.137L45.7713 218.286C46.3838 219.021 47.0838 219.651 47.7138 220.377C48.5013 221.279 49.35 222.127 50.1638 223.002C52.6138 225.662 55.1338 228.217 57.7763 230.615C58.5813 231.35 59.4125 232.032 60.2263 232.732C63.0263 235.147 65.905 237.44 68.8888 239.575C69.2738 239.837 69.6238 240.179 70.0088 240.45V240.345C90.5022 254.766 114.95 262.506 140.009 262.506C165.068 262.506 189.515 254.766 210.009 240.345V240.45C210.394 240.179 210.735 239.837 211.129 239.575C214.104 237.431 216.991 235.147 219.791 232.732C220.605 232.032 221.436 231.341 222.241 230.615C224.884 228.209 227.404 225.662 229.854 223.002C230.667 222.127 231.507 221.279 232.304 220.377C232.925 219.651 233.634 219.021 234.246 218.277L234.054 218.137ZM140 69.9999C147.788 69.9999 155.4 72.3092 161.876 76.6358C168.351 80.9624 173.398 87.1119 176.378 94.3068C179.358 101.502 180.138 109.419 178.618 117.057C177.099 124.695 173.349 131.711 167.842 137.217C162.336 142.724 155.32 146.474 147.682 147.993C140.044 149.513 132.127 148.733 124.932 145.753C117.737 142.772 111.587 137.726 107.261 131.25C102.934 124.775 100.625 117.163 100.625 109.375C100.625 98.932 104.773 88.9168 112.158 81.5326C119.542 74.1484 129.557 69.9999 140 69.9999ZM70.0613 218.137C70.2131 206.648 74.8821 195.681 83.0582 187.608C91.2343 179.535 102.26 175.006 113.75 175H166.25C177.74 175.006 188.766 179.535 196.942 187.608C205.118 195.681 209.787 206.648 209.939 218.137C190.749 235.43 165.832 245 140 245C114.168 245 89.2514 235.43 70.0613 218.137Z" fill="#353A44"/>
</svg>
