<svg width="22" height="22" viewBox="0 0 22 22" fill="none" xmlns="http://www.w3.org/2000/svg">
<circle cx="11.0001" cy="10.9999" r="6.6" fill="white"/>
<path d="M10.9999 1.83337C5.94908 1.83337 1.83325 5.94921 1.83325 11C1.83325 16.0509 5.94908 20.1667 10.9999 20.1667C16.0508 20.1667 20.1666 16.0509 20.1666 11C20.1666 5.94921 16.0508 1.83337 10.9999 1.83337ZM15.3816 8.89171L10.1841 14.0892C10.0558 14.2175 9.88159 14.2909 9.69825 14.2909C9.51492 14.2909 9.34075 14.2175 9.21242 14.0892L6.61825 11.495C6.35242 11.2292 6.35242 10.7892 6.61825 10.5234C6.88408 10.2575 7.32408 10.2575 7.58992 10.5234L9.69825 12.6317L14.4099 7.92004C14.6758 7.65421 15.1158 7.65421 15.3816 7.92004C15.6474 8.18587 15.6474 8.61671 15.3816 8.89171Z" fill="#27AE60"/>
</svg>
