<svg width="180" height="36" viewBox="0 0 180 36" fill="none" xmlns="http://www.w3.org/2000/svg">
<path d="M27.1563 35H21.9723V19.352L5.60429 19.352V35H0.420291L0.420291 0.727998H5.60429V14.936L21.9723 14.936V0.727998H27.1563L27.1563 35ZM45.7825 8.648C49.0465 8.648 51.4785 9.368 53.0785 10.808C54.6785 12.216 55.4785 14.44 55.4785 17.48V35H51.8785L50.8705 31.4H50.6785C49.9425 32.328 49.1745 33.096 48.3745 33.704C47.6065 34.312 46.7105 34.76 45.6865 35.048C44.6945 35.336 43.4785 35.48 42.0385 35.48C40.5025 35.48 39.1105 35.208 37.8625 34.664C36.6465 34.088 35.6865 33.224 34.9825 32.072C34.2785 30.888 33.9265 29.416 33.9265 27.656C33.9265 25.032 34.9185 23.032 36.9025 21.656C38.9185 20.28 41.9745 19.528 46.0705 19.4L50.4865 19.256V17.816C50.4865 15.896 50.0545 14.552 49.1905 13.784C48.3265 13.016 47.1105 12.632 45.5425 12.632C44.1985 12.632 42.9185 12.824 41.7025 13.208C40.4865 13.592 39.3345 14.056 38.2465 14.6L36.6145 10.904C37.8305 10.264 39.2225 9.736 40.7905 9.32C42.3905 8.872 44.0545 8.648 45.7825 8.648ZM46.9825 22.664C44.0385 22.792 41.9905 23.288 40.8385 24.152C39.7185 24.984 39.1585 26.168 39.1585 27.704C39.1585 29.048 39.5585 30.024 40.3585 30.632C41.1905 31.24 42.2305 31.544 43.4785 31.544C45.4945 31.544 47.1585 30.984 48.4705 29.864C49.7825 28.744 50.4385 27.064 50.4385 24.824V22.568L46.9825 22.664ZM69.121 35L59.329 9.128H64.705L70.081 24.248C70.305 24.888 70.529 25.608 70.753 26.408C71.009 27.208 71.233 27.976 71.425 28.712C71.617 29.448 71.745 30.088 71.809 30.632H72.001C72.097 30.088 72.241 29.448 72.433 28.712C72.657 27.944 72.897 27.176 73.153 26.408C73.409 25.608 73.633 24.888 73.825 24.248L79.201 9.128L84.577 9.128L74.737 35L69.121 35ZM98.7547 8.648C101.027 8.648 102.979 9.128 104.611 10.088C106.243 11.016 107.491 12.36 108.355 14.12C109.251 15.88 109.699 17.96 109.699 20.36V23.144L92.3227 23.144C92.3867 25.8 93.0747 27.832 94.3867 29.24C95.7307 30.648 97.6027 31.352 100.003 31.352C101.667 31.352 103.139 31.208 104.419 30.92C105.731 30.6 107.075 30.136 108.451 29.528V33.752C107.171 34.328 105.859 34.76 104.515 35.048C103.203 35.336 101.635 35.48 99.8107 35.48C97.3147 35.48 95.1067 34.984 93.1867 33.992C91.2667 33 89.7627 31.528 88.6747 29.576C87.6187 27.592 87.0907 25.16 87.0907 22.28C87.0907 19.368 87.5707 16.904 88.5307 14.888C89.5227 12.872 90.8827 11.336 92.6107 10.28C94.3707 9.192 96.4187 8.648 98.7547 8.648ZM98.7547 12.584C96.9307 12.584 95.4587 13.176 94.3387 14.36C93.2507 15.544 92.6107 17.224 92.4187 19.4L104.611 19.4C104.611 18.056 104.403 16.872 103.987 15.848C103.571 14.824 102.931 14.024 102.067 13.448C101.203 12.872 100.099 12.584 98.7547 12.584Z" fill="white"/>
<path d="M131.551 35L121.183 5.864H120.991C121.023 6.504 121.071 7.368 121.135 8.456C121.199 9.544 121.247 10.712 121.279 11.96C121.311 13.208 121.327 14.44 121.327 15.656V35H116.623V0.727998L124.015 0.727998L133.855 28.232H134.047L144.175 0.727998L151.567 0.727998V35H146.527V15.368C146.527 14.248 146.543 13.096 146.575 11.912C146.639 10.696 146.687 9.56 146.719 8.504C146.783 7.448 146.831 6.584 146.863 5.912H146.671L136.015 35H131.551ZM179.982 35H160.686V0.727998L179.982 0.727998V5.144L165.87 5.144V14.936L179.118 14.936V19.304L165.87 19.304V30.536H179.982V35Z" fill="#B913E2"/>
</svg>
