<svg width="120" height="24" viewBox="0 0 120 24" fill="none" xmlns="http://www.w3.org/2000/svg">
<path d="M17.864 23H14.408L14.408 12.568L3.496 12.568L3.496 23H0.0400002L0.0400002 0.151999H3.496L3.496 9.624L14.408 9.624L14.408 0.151999H17.864L17.864 23ZM30.2815 5.432C32.4575 5.432 34.0788 5.912 35.1455 6.872C36.2122 7.81067 36.7455 9.29333 36.7455 11.32V23H34.3455L33.6735 20.6H33.5455C33.0548 21.2187 32.5428 21.7307 32.0095 22.136C31.4975 22.5413 30.9002 22.84 30.2175 23.032C29.5562 23.224 28.7455 23.32 27.7855 23.32C26.7615 23.32 25.8335 23.1387 25.0015 22.776C24.1908 22.392 23.5508 21.816 23.0815 21.048C22.6122 20.2587 22.3775 19.2773 22.3775 18.104C22.3775 16.3547 23.0388 15.0213 24.3615 14.104C25.7055 13.1867 27.7428 12.6853 30.4735 12.6L33.4175 12.504V11.544C33.4175 10.264 33.1295 9.368 32.5535 8.856C31.9775 8.344 31.1668 8.088 30.1215 8.088C29.2255 8.088 28.3722 8.216 27.5615 8.472C26.7508 8.728 25.9828 9.03733 25.2575 9.4L24.1695 6.936C24.9802 6.50933 25.9082 6.15733 26.9535 5.88C28.0202 5.58133 29.1295 5.432 30.2815 5.432ZM31.0815 14.776C29.1188 14.8613 27.7535 15.192 26.9855 15.768C26.2388 16.3227 25.8655 17.112 25.8655 18.136C25.8655 19.032 26.1322 19.6827 26.6655 20.088C27.2202 20.4933 27.9135 20.696 28.7455 20.696C30.0895 20.696 31.1988 20.3227 32.0735 19.576C32.9482 18.8293 33.3855 17.7093 33.3855 16.216V14.712L31.0815 14.776ZM45.8405 23L39.3125 5.752H42.8965L46.4805 15.832C46.6298 16.2587 46.7792 16.7387 46.9285 17.272C47.0992 17.8053 47.2485 18.3173 47.3765 18.808C47.5045 19.2987 47.5898 19.7253 47.6325 20.088H47.7605C47.8245 19.7253 47.9205 19.2987 48.0485 18.808C48.1978 18.296 48.3578 17.784 48.5285 17.272C48.6992 16.7387 48.8485 16.2587 48.9765 15.832L52.5605 5.752H56.1445L49.5845 23H45.8405ZM65.5963 5.432C67.1109 5.432 68.4123 5.752 69.5003 6.392C70.5883 7.01067 71.4203 7.90667 71.9963 9.08C72.5936 10.2533 72.8923 11.64 72.8923 13.24V15.096L61.3083 15.096C61.3509 16.8667 61.8096 18.2213 62.6843 19.16C63.5803 20.0987 64.8283 20.568 66.4283 20.568C67.5376 20.568 68.5189 20.472 69.3723 20.28C70.2469 20.0667 71.1429 19.7573 72.0603 19.352V22.168C71.2069 22.552 70.3323 22.84 69.4363 23.032C68.5616 23.224 67.5163 23.32 66.3003 23.32C64.6363 23.32 63.1643 22.9893 61.8843 22.328C60.6043 21.6667 59.6016 20.6853 58.8763 19.384C58.1723 18.0613 57.8203 16.44 57.8203 14.52C57.8203 12.5787 58.1403 10.936 58.7803 9.592C59.4416 8.248 60.3483 7.224 61.5003 6.52C62.6736 5.79467 64.0389 5.432 65.5963 5.432ZM65.5963 8.056C64.3803 8.056 63.3989 8.45067 62.6523 9.24C61.9269 10.0293 61.5003 11.1493 61.3723 12.6L69.5003 12.6C69.5003 11.704 69.3616 10.9147 69.0843 10.232C68.8069 9.54933 68.3803 9.016 67.8043 8.632C67.2283 8.248 66.4923 8.056 65.5963 8.056Z" fill="#111827"/>
<path d="M87.4608 23L80.5488 3.576H80.4208C80.4421 4.00267 80.4741 4.57867 80.5168 5.304C80.5594 6.02933 80.5914 6.808 80.6128 7.64C80.6341 8.472 80.6448 9.29333 80.6448 10.104L80.6448 23H77.5088L77.5088 0.151999H82.4368L88.9968 18.488H89.1248L95.8768 0.151999H100.805L100.805 23L97.4448 23L97.4448 9.912C97.4448 9.16533 97.4554 8.39733 97.4768 7.608C97.5194 6.79733 97.5514 6.04 97.5728 5.336C97.6154 4.632 97.6474 4.056 97.6688 3.608H97.5408L90.4368 23H87.4608ZM119.748 23H106.884L106.884 0.151999H119.748V3.096H110.34V9.624H119.172L119.172 12.536H110.34V20.024H119.748V23Z" fill="#B913E2"/>
</svg>
