<svg width="12" height="20" viewBox="0 0 12 20" fill="none" xmlns="http://www.w3.org/2000/svg">
<path d="M0.366667 11.1999C0.132179 10.9657 0.000291753 10.648 0 10.3166V9.68325C0.00384001 9.35256 0.135193 9.03612 0.366667 8.79992L8.93333 0.249917C9.08981 0.092156 9.3028 0.00341797 9.525 0.00341797C9.7472 0.00341797 9.9602 0.092156 10.1167 0.249917L11.3 1.43325C11.4568 1.58686 11.5451 1.7971 11.5451 2.01658C11.5451 2.23607 11.4568 2.44631 11.3 2.59992L3.88333 9.99992L11.3 17.3999C11.4578 17.5564 11.5465 17.7694 11.5465 17.9916C11.5465 18.2138 11.4578 18.4268 11.3 18.5833L10.1167 19.7499C9.9602 19.9077 9.7472 19.9964 9.525 19.9964C9.3028 19.9964 9.08981 19.9077 8.93333 19.7499L0.366667 11.1999Z" fill="black"/>
</svg>
