<svg width="25" height="20" viewBox="0 0 25 20" fill="none" xmlns="http://www.w3.org/2000/svg">
<path d="M16.5118 9.41861L11.0582 5.69768C10.9555 5.62754 10.8361 5.58727 10.7127 5.58118C10.5894 5.57509 10.4667 5.60341 10.3579 5.66311C10.249 5.72281 10.1581 5.81165 10.0947 5.92014C10.0314 6.02863 9.998 6.15269 9.99818 6.27908V13.7209C9.998 13.8473 10.0314 13.9714 10.0947 14.0799C10.1581 14.1884 10.249 14.2772 10.3579 14.3369C10.4667 14.3966 10.5894 14.4249 10.7127 14.4188C10.8361 14.4127 10.9555 14.3725 11.0582 14.3023L16.5118 10.5814C16.6055 10.5178 16.6824 10.4314 16.7356 10.3299C16.7888 10.2285 16.8166 10.1151 16.8166 10C16.8166 9.88487 16.7888 9.77153 16.7356 9.67009C16.6824 9.56864 16.6055 9.48225 16.5118 9.41861ZM11.3616 12.4174V7.58256L14.9041 10L11.3616 12.4174ZM24.3592 3.25583C24.2606 2.86363 24.0724 2.50099 23.81 2.19777C23.5477 1.89454 23.2188 1.65939 22.8504 1.51165C18.9738 -0.0243954 12.7556 2.31861e-05 12.4977 2.31861e-05C12.2398 2.31861e-05 6.02163 -0.0243954 2.14052 1.51165C1.77292 1.65999 1.44493 1.89541 1.18344 2.1986C0.921956 2.50179 0.73443 2.86411 0.636248 3.25583C0.346528 4.40583 0 6.51164 0 10C0 13.4884 0.346528 15.5942 0.636248 16.7442C0.734887 17.1364 0.923102 17.499 1.18541 17.8022C1.44772 18.1055 1.77662 18.3406 2.14506 18.4884C6.02163 20.0244 12.2387 20 12.4977 20H12.5784C13.3635 20 19.1681 19.9488 22.8549 18.4884C23.2234 18.3406 23.5523 18.1055 23.8146 17.8022C24.0769 17.499 24.2651 17.1364 24.3638 16.7442C24.6535 15.5965 25 13.4965 25 10C25 6.5035 24.6546 4.40583 24.3592 3.25583ZM23.039 16.3953C22.9952 16.5741 22.9106 16.7396 22.7921 16.8783C22.6736 17.017 22.5245 17.1248 22.3573 17.193C18.7216 18.6267 12.5636 18.6046 12.4977 18.6046C12.4318 18.6046 6.28181 18.6279 2.64157 17.1895C2.47431 17.1213 2.32529 17.0135 2.20677 16.8748C2.08825 16.7361 2.00362 16.5706 1.95987 16.3918C1.68606 15.3232 1.36339 13.3465 1.36339 10C1.36339 6.6535 1.68606 4.67676 1.95646 3.60467C2.00021 3.42594 2.08484 3.26042 2.20336 3.12173C2.32188 2.98304 2.47091 2.87517 2.63816 2.80699C6.14207 1.4256 11.9899 1.39537 12.4705 1.39537H12.4977C12.5591 1.39537 18.7136 1.37211 22.3539 2.81048C22.5211 2.87866 22.6702 2.98653 22.7887 3.12522C22.9072 3.26391 22.9918 3.42943 23.0356 3.60815C23.306 4.67676 23.6287 6.6535 23.6287 10.0035C23.6287 13.3535 23.3094 15.3232 23.039 16.3953Z" />
</svg>
