<svg width="23" height="23" viewBox="0 0 23 23" fill="none" xmlns="http://www.w3.org/2000/svg">
<g clip-path="url(#clip0_87_3712)">
<path d="M11.5938 1.96875C6.505 1.96875 2.375 6.09875 2.375 11.1875C2.375 16.2762 6.505 20.4062 11.5938 20.4062H16.2031V18.5625H11.5938C7.59281 18.5625 4.21875 15.1884 4.21875 11.1875C4.21875 7.18656 7.59281 3.8125 11.5938 3.8125C15.5947 3.8125 18.9688 7.18656 18.9688 11.1875V12.5058C18.9688 13.2341 18.3142 13.9531 17.5859 13.9531C16.8577 13.9531 16.2031 13.2341 16.2031 12.5058V11.1875C16.2031 8.64313 14.1381 6.57812 11.5938 6.57812C9.04938 6.57812 6.98438 8.64313 6.98438 11.1875C6.98438 13.7319 9.04938 15.7969 11.5938 15.7969C12.8659 15.7969 14.0275 15.2806 14.8572 14.4417C15.4564 15.2622 16.4889 15.7969 17.5859 15.7969C19.402 15.7969 20.8125 14.3219 20.8125 12.5058V11.1875C20.8125 6.09875 16.6825 1.96875 11.5938 1.96875ZM11.5938 13.9531C10.0634 13.9531 8.82812 12.7178 8.82812 11.1875C8.82812 9.65719 10.0634 8.42188 11.5938 8.42188C13.1241 8.42188 14.3594 9.65719 14.3594 11.1875C14.3594 12.7178 13.1241 13.9531 11.5938 13.9531Z" fill="white"/>
</g>
<defs>
<clipPath id="clip0_87_3712">
<rect width="22.125" height="22.125" fill="white" transform="translate(0.53125 0.125)"/>
</clipPath>
</defs>
</svg>
