<svg width="25" height="25" viewBox="0 0 25 25" fill="none" xmlns="http://www.w3.org/2000/svg">
<path d="M16.0518 20.125H8.05176C7.25611 20.125 6.49305 19.8089 5.93044 19.2463C5.36783 18.6837 5.05176 17.9206 5.05176 17.125V7.125C5.05176 6.85978 4.9464 6.60543 4.75886 6.41789C4.57133 6.23036 4.31697 6.125 4.05176 6.125C3.78654 6.125 3.53219 6.23036 3.34465 6.41789C3.15711 6.60543 3.05176 6.85978 3.05176 7.125V17.125C3.05176 18.4511 3.57854 19.7229 4.51622 20.6605C5.45391 21.5982 6.72568 22.125 8.05176 22.125H16.0518C16.317 22.125 16.5713 22.0196 16.7589 21.8321C16.9464 21.6446 17.0518 21.3902 17.0518 21.125C17.0518 20.8598 16.9464 20.6054 16.7589 20.4179C16.5713 20.2304 16.317 20.125 16.0518 20.125ZM21.0518 9.065C21.0413 8.97313 21.0212 8.88263 20.9918 8.795V8.705C20.9437 8.60218 20.8795 8.50767 20.8018 8.425L14.8018 2.425C14.7191 2.34722 14.6246 2.28308 14.5218 2.235H14.4318L14.1118 2.125H10.0518C9.25611 2.125 8.49305 2.44107 7.93044 3.00368C7.36783 3.56629 7.05176 4.32935 7.05176 5.125V15.125C7.05176 15.9206 7.36783 16.6837 7.93044 17.2463C8.49305 17.8089 9.25611 18.125 10.0518 18.125H18.0518C18.8474 18.125 19.6105 17.8089 20.1731 17.2463C20.7357 16.6837 21.0518 15.9206 21.0518 15.125V9.125C21.0518 9.125 21.0518 9.125 21.0518 9.065ZM15.0518 5.535L17.6418 8.125H16.0518C15.7865 8.125 15.5322 8.01964 15.3447 7.83211C15.1571 7.64457 15.0518 7.39022 15.0518 7.125V5.535ZM19.0518 15.125C19.0518 15.3902 18.9464 15.6446 18.7589 15.8321C18.5713 16.0196 18.317 16.125 18.0518 16.125H10.0518C9.78654 16.125 9.53219 16.0196 9.34465 15.8321C9.15711 15.6446 9.05176 15.3902 9.05176 15.125V5.125C9.05176 4.85978 9.15711 4.60543 9.34465 4.41789C9.53219 4.23036 9.78654 4.125 10.0518 4.125H13.0518V7.125C13.0518 7.92065 13.3678 8.68371 13.9304 9.24632C14.493 9.80893 15.2561 10.125 16.0518 10.125H19.0518V15.125Z" fill="white"/>
</svg>
