<svg width="23" height="23" viewBox="0 0 23 23" fill="none" xmlns="http://www.w3.org/2000/svg">
<path d="M10.1544 7.80076V9.32441H9.03906V11.1867H10.1544V16.7225H12.4471V11.1867H13.9851C13.9851 11.1867 14.1301 10.2937 14.1998 9.31667H12.4559V8.04419C12.4559 7.85277 12.706 7.59716 12.9539 7.59716H14.202V5.65747H12.5035C10.098 5.65747 10.1544 7.52192 10.1544 7.80076Z" fill="#1877F2"/>
<path d="M11.5982 20.042C13.9459 20.042 16.1974 19.1094 17.8575 17.4493C19.5176 15.7892 20.4502 13.5377 20.4502 11.19C20.4502 8.8423 19.5176 6.59076 17.8575 4.93069C16.1974 3.27062 13.9459 2.338 11.5982 2.338C9.25051 2.338 6.99897 3.27062 5.33889 4.93069C3.67882 6.59076 2.7462 8.8423 2.7462 11.19C2.7462 13.5377 3.67882 15.7892 5.33889 17.4493C6.99897 19.1094 9.25051 20.042 11.5982 20.042ZM11.5982 22.255C5.487 22.255 0.533203 17.3012 0.533203 11.19C0.533203 5.0788 5.487 0.125 11.5982 0.125C17.7094 0.125 22.6632 5.0788 22.6632 11.19C22.6632 17.3012 17.7094 22.255 11.5982 22.255Z" fill="#1877F2"/>
</svg>
