<svg width="23" height="23" viewBox="0 0 23 23" fill="none" xmlns="http://www.w3.org/2000/svg">
<path d="M11.5952 5.51248C8.45347 5.51248 5.91792 8.04804 5.91792 11.1898C5.91792 14.3316 8.45347 16.8671 11.5952 16.8671C14.737 16.8671 17.2725 14.3316 17.2725 11.1898C17.2725 8.04804 14.737 5.51248 11.5952 5.51248ZM11.5952 14.8796C9.56347 14.8796 7.90539 13.2216 7.90539 11.1898C7.90539 9.15803 9.56347 7.49996 11.5952 7.49996C13.627 7.49996 15.2851 9.15803 15.2851 11.1898C15.2851 13.2216 13.627 14.8796 11.5952 14.8796ZM17.5051 3.95683C16.7715 3.95683 16.1791 4.5492 16.1791 5.28274C16.1791 6.01627 16.7715 6.60864 17.5051 6.60864C18.2386 6.60864 18.831 6.01904 18.831 5.28274C18.8312 5.10855 18.797 4.93604 18.7305 4.77507C18.6639 4.61411 18.5663 4.46786 18.4431 4.34469C18.3199 4.22153 18.1737 4.12387 18.0127 4.05731C17.8518 3.99076 17.6792 3.95661 17.5051 3.95683ZM22.662 11.1898C22.662 9.66182 22.6758 8.14769 22.59 6.62248C22.5042 4.85092 22.1 3.27865 20.8046 1.9832C19.5064 0.684973 17.9369 0.283603 16.1653 0.197793C14.6373 0.111983 13.1232 0.125823 11.598 0.125823C10.07 0.125823 8.55589 0.111983 7.03068 0.197793C5.25912 0.283603 3.68686 0.687741 2.3914 1.9832C1.09318 3.28142 0.691806 4.85092 0.605996 6.62248C0.520186 8.15045 0.534026 9.66459 0.534026 11.1898C0.534026 12.715 0.520186 14.2319 0.605996 15.7571C0.691806 17.5287 1.09594 19.1009 2.3914 20.3964C3.68962 21.6946 5.25912 22.096 7.03068 22.1818C8.55866 22.2676 10.0728 22.2538 11.598 22.2538C13.126 22.2538 14.6401 22.2676 16.1653 22.1818C17.9369 22.096 19.5091 21.6918 20.8046 20.3964C22.1028 19.0982 22.5042 17.5287 22.59 15.7571C22.6786 14.2319 22.662 12.7178 22.662 11.1898ZM20.2261 17.7169C20.024 18.2207 19.7804 18.5971 19.3901 18.9847C18.9998 19.375 18.6261 19.6186 18.1223 19.8206C16.6663 20.3992 13.209 20.2691 11.5952 20.2691C9.98144 20.2691 6.52136 20.3992 5.06535 19.8234C4.56157 19.6213 4.18511 19.3777 3.79758 18.9874C3.40728 18.5971 3.16369 18.2235 2.96162 17.7197C2.38586 16.2609 2.51596 12.8036 2.51596 11.1898C2.51596 9.57601 2.38586 6.11592 2.96162 4.65992C3.16369 4.15613 3.40728 3.77967 3.79758 3.39214C4.18788 3.00461 4.56157 2.75826 5.06535 2.55619C6.52136 1.98043 9.98144 2.11053 11.5952 2.11053C13.209 2.11053 16.6691 1.98043 18.1251 2.55619C18.6289 2.75826 19.0053 3.00185 19.3929 3.39214C19.7832 3.78244 20.0268 4.15613 20.2288 4.65992C20.8046 6.11592 20.6745 9.57601 20.6745 11.1898C20.6745 12.8036 20.8046 16.2609 20.2261 17.7169Z" fill="#FA7E94"/>
</svg>
