<svg width="23" height="23" viewBox="0 0 23 23" fill="none" xmlns="http://www.w3.org/2000/svg">
<g clip-path="url(#clip0_87_3718)">
<path d="M17.125 14.9487C16.4244 14.9487 15.7975 15.2253 15.3181 15.6586L8.74516 11.8328C8.79125 11.6208 8.82812 11.4087 8.82812 11.1875C8.82812 10.9663 8.79125 10.7542 8.74516 10.5422L15.2444 6.75328C15.7422 7.21422 16.3967 7.5 17.125 7.5C18.6553 7.5 19.8906 6.26469 19.8906 4.73438C19.8906 3.20406 18.6553 1.96875 17.125 1.96875C15.5947 1.96875 14.3594 3.20406 14.3594 4.73438C14.3594 4.95563 14.3962 5.16766 14.4423 5.37969L7.94312 9.16859C7.44531 8.70766 6.79078 8.42188 6.0625 8.42188C4.53219 8.42188 3.29688 9.65719 3.29688 11.1875C3.29688 12.7178 4.53219 13.9531 6.0625 13.9531C6.79078 13.9531 7.44531 13.6673 7.94312 13.2064L14.5069 17.0414C14.4608 17.235 14.4331 17.4378 14.4331 17.6406C14.4331 19.1248 15.6408 20.3325 17.125 20.3325C18.6092 20.3325 19.8169 19.1248 19.8169 17.6406C19.8169 16.1564 18.6092 14.9487 17.125 14.9487Z" fill="#B913E2"/>
</g>
<defs>
<clipPath id="clip0_87_3718">
<rect width="22.125" height="22.125" fill="white" transform="translate(0.53125 0.125)"/>
</clipPath>
</defs>
</svg>
