<svg width="23" height="23" viewBox="0 0 23 23" fill="none" xmlns="http://www.w3.org/2000/svg">
<path d="M21.0565 2.36306C20.794 2.1447 20.4773 2.00159 20.1399 1.94896C19.8026 1.89633 19.4573 1.93615 19.1407 2.06418L2.6199 8.73427C2.2666 8.87963 1.96585 9.12901 1.75758 9.44929C1.54932 9.76958 1.44338 10.1456 1.45383 10.5275C1.46428 10.9094 1.59063 11.2791 1.8161 11.5875C2.04158 11.8959 2.35551 12.1285 2.71624 12.2543L6.05804 13.4166L7.92069 19.5762C7.946 19.6585 7.98273 19.7368 8.02982 19.8089C8.03696 19.8199 8.04704 19.8282 8.05463 19.8389C8.10903 19.9148 8.17477 19.9819 8.24955 20.0378C8.27081 20.054 8.29118 20.0692 8.31391 20.0836C8.40143 20.1417 8.49835 20.1841 8.60037 20.2091L8.61128 20.21L8.61747 20.2127C8.6788 20.2251 8.74123 20.2315 8.80382 20.2316C8.80984 20.2316 8.81519 20.2287 8.82115 20.2286C8.91561 20.2269 9.00924 20.2107 9.09872 20.1804C9.11954 20.1733 9.13738 20.1614 9.15757 20.1529C9.2243 20.1252 9.28751 20.0898 9.3459 20.0472C9.39266 20.0078 9.43944 19.9684 9.48623 19.9291L11.9773 17.1788L15.6927 20.0569C16.0198 20.3116 16.4224 20.45 16.8369 20.4503C17.2713 20.4498 17.6923 20.2999 18.0293 20.0259C18.3663 19.7518 18.5988 19.3702 18.6879 18.9451L21.6957 4.17981C21.7639 3.84749 21.7404 3.50289 21.6278 3.18289C21.5152 2.86288 21.3177 2.5795 21.0565 2.36306ZM9.16936 13.7101C9.04154 13.8374 8.95416 13.9996 8.91819 14.1764L8.63286 15.5629L7.91006 13.1724L11.6577 11.2208L9.16936 13.7101ZM16.8226 18.5994L12.4319 15.1982C12.2482 15.0562 12.0178 14.9887 11.7866 15.0091C11.5553 15.0294 11.3402 15.1361 11.1842 15.308L10.3864 16.1886L10.6683 14.8182L17.1979 8.28861C17.3538 8.13296 17.4488 7.92664 17.4656 7.70702C17.4825 7.4874 17.4201 7.269 17.2899 7.09138C17.1596 6.91377 16.97 6.78868 16.7555 6.73879C16.5409 6.68889 16.3156 6.71747 16.1203 6.81937L6.74921 11.6985L3.31582 10.4421L19.8897 3.81158L16.8226 18.5994Z" fill="#0088CC"/>
</svg>
