<svg width="23" height="23" viewBox="0 0 23 23" fill="none" xmlns="http://www.w3.org/2000/svg">
<path d="M21.7267 3.76655C21.7269 3.60372 21.6838 3.44376 21.602 3.30298C21.5202 3.1622 21.4025 3.04561 21.261 2.9651C21.1194 2.88459 20.9591 2.84303 20.7963 2.84464C20.6334 2.84626 20.4739 2.891 20.334 2.97431C19.7945 3.29548 19.2135 3.54143 18.6074 3.70536C17.7417 2.96254 16.6376 2.55606 15.497 2.56021C14.2456 2.56165 13.0437 3.04935 12.1452 3.92033C11.2467 4.79131 10.7218 5.97738 10.6814 7.22811C8.21447 6.83471 5.9786 5.54709 4.40018 3.6108C4.30508 3.49541 4.18362 3.40459 4.04605 3.34599C3.90849 3.28739 3.75884 3.26272 3.60975 3.27408C3.46074 3.28635 3.31696 3.33474 3.19084 3.41505C3.06473 3.49536 2.96007 3.60518 2.88593 3.73502C2.50568 4.3986 2.28729 5.1425 2.2485 5.90632C2.2097 6.67014 2.3516 7.43234 2.66266 8.13103L2.66086 8.13283C2.52106 8.21894 2.40568 8.33947 2.32577 8.48291C2.24585 8.62634 2.20407 8.78788 2.20442 8.95208C2.20273 9.08753 2.21086 9.22292 2.22873 9.3572C2.32289 10.5172 2.83697 11.6029 3.67456 12.4109C3.61774 12.5192 3.58306 12.6376 3.57255 12.7595C3.56204 12.8813 3.57591 13.0039 3.61334 13.1203C3.97851 14.258 4.75508 15.2186 5.7911 15.8139C4.73854 16.2209 3.60203 16.3628 2.4817 16.2271C2.27435 16.2011 2.06431 16.2464 1.88603 16.3554C1.70776 16.4645 1.57184 16.6308 1.50057 16.8273C1.4293 17.0238 1.42691 17.2386 1.49379 17.4366C1.56067 17.6346 1.69285 17.804 1.86866 17.9169C3.79546 19.1579 6.03892 19.8177 8.33079 19.8174C10.9298 19.8467 13.4656 19.0162 15.5438 17.4551C17.6219 15.894 19.1259 13.6899 19.8218 11.1856C20.1473 10.0947 20.3134 8.96249 20.3152 7.82405C20.3152 7.76374 20.3152 7.70162 20.3142 7.6395C20.7956 7.12042 21.1684 6.51049 21.411 5.84544C21.6535 5.18039 21.7609 4.47362 21.7267 3.76655ZM18.6784 6.72753C18.5262 6.90761 18.4491 7.13942 18.4633 7.37482C18.4723 7.52693 18.4714 7.67997 18.4714 7.82405C18.4695 8.78607 18.3285 9.74275 18.0528 10.6644C17.4844 12.7952 16.2175 14.6737 14.4548 15.9989C12.6921 17.3242 10.5356 18.0195 8.33079 17.9737C7.53879 17.9739 6.74951 17.8809 5.97929 17.6964C6.96147 17.3799 7.87982 16.8919 8.6918 16.2551C8.84135 16.1373 8.9508 15.9762 9.00513 15.7937C9.05946 15.6113 9.05601 15.4166 8.99525 15.2362C8.9345 15.0558 8.81941 14.8986 8.66578 14.7862C8.51215 14.6739 8.32751 14.6118 8.1372 14.6085C7.37096 14.5966 6.63927 14.2877 6.09628 13.7469C6.23403 13.7208 6.37087 13.6884 6.50681 13.6497C6.70595 13.593 6.88021 13.471 7.00155 13.3032C7.12288 13.1354 7.18423 12.9317 7.1757 12.7248C7.16718 12.518 7.08928 12.32 6.95455 12.1628C6.81983 12.0056 6.63611 11.8983 6.43299 11.8582C5.98822 11.7703 5.5697 11.5811 5.20995 11.3052C4.85021 11.0293 4.55893 10.6742 4.35877 10.2674C4.52538 10.2901 4.69305 10.3042 4.86112 10.3097C5.06078 10.3127 5.25623 10.2521 5.4192 10.1368C5.58217 10.0214 5.70422 9.85713 5.76769 9.6678C5.82852 9.47676 5.82539 9.27109 5.75878 9.08198C5.69217 8.89287 5.56571 8.73064 5.39858 8.61989C4.99309 8.34975 4.66094 7.98326 4.43186 7.55324C4.20279 7.12322 4.08395 6.64309 4.08599 6.15587C4.08599 6.09465 4.08779 6.03343 4.09139 5.97311C6.15755 7.90007 8.8375 9.036 11.6591 9.18077C11.8015 9.18638 11.9433 9.15955 12.0739 9.10232C12.2044 9.04508 12.3202 8.95893 12.4126 8.85037C12.504 8.74076 12.5688 8.61143 12.6017 8.47255C12.6347 8.33367 12.6349 8.18903 12.6025 8.05003C12.5498 7.83004 12.5229 7.60465 12.5224 7.37843C12.5232 6.5898 12.8369 5.83371 13.3945 5.27606C13.9522 4.71842 14.7083 4.40477 15.4969 4.40393C15.9026 4.40285 16.3042 4.48589 16.6762 4.64781C17.0483 4.80974 17.3827 5.04703 17.6584 5.34472C17.7648 5.45911 17.8986 5.54439 18.0472 5.59246C18.1958 5.64053 18.3542 5.64978 18.5074 5.61933C18.8861 5.54564 19.2593 5.44638 19.6246 5.32225C19.3755 5.83202 19.0571 6.30492 18.6784 6.72753Z" fill="#00ACEE"/>
</svg>
