<svg width="23" height="23" viewBox="0 0 23 23" fill="none" xmlns="http://www.w3.org/2000/svg">
<path d="M15.8344 13.0313C15.65 12.9392 14.4516 12.386 14.2672 12.2938C14.0828 12.2017 13.8984 12.2017 13.7141 12.386C13.5297 12.5704 13.1609 13.1235 12.9766 13.3079C12.8844 13.4923 12.7 13.4923 12.5156 13.4001C11.8703 13.1235 11.225 12.7548 10.6719 12.2938C10.2109 11.8329 9.75 11.2798 9.38125 10.7267C9.28906 10.5423 9.38125 10.3579 9.47344 10.2657C9.56563 10.1735 9.65781 9.98916 9.84219 9.89697C9.93438 9.80479 10.0266 9.62041 10.0266 9.52822C10.1188 9.43603 10.1188 9.25166 10.0266 9.15947C9.93438 9.06729 9.47344 7.96104 9.28906 7.5001C9.19688 6.85479 9.0125 6.85479 8.82813 6.85479C8.73594 6.85479 8.55156 6.85479 8.36719 6.85479C8.18281 6.85479 7.90625 7.03916 7.81406 7.13135C7.26094 7.68447 6.98438 8.32978 6.98438 9.06729C7.07656 9.89697 7.35313 10.7267 7.90625 11.4642C8.92031 12.9392 10.2109 14.1376 11.7781 14.8751C12.2391 15.0595 12.6078 15.2438 13.0688 15.336C13.5297 15.5204 13.9906 15.5204 14.5438 15.4282C15.1891 15.336 15.7422 14.8751 16.1109 14.322C16.2953 13.9532 16.2953 13.5845 16.2031 13.2157C16.2031 13.2157 16.0188 13.1235 15.8344 13.0313ZM18.1391 4.64229C14.5438 1.04697 8.73594 1.04697 5.14063 4.64229C2.19062 7.59229 1.6375 12.1095 3.66563 15.7048L2.375 20.4063L7.26094 19.1157C8.64375 19.8532 10.1188 20.222 11.5938 20.222C16.6641 20.222 20.7203 16.1657 20.7203 11.0954C20.8125 8.69853 19.7984 6.39385 18.1391 4.64229ZM15.65 17.5485C14.4516 18.286 13.0688 18.747 11.5938 18.747C10.2109 18.747 8.92031 18.3782 7.72188 17.7329L7.44531 17.5485L4.5875 18.286L5.325 15.5204L5.14063 15.2438C2.92812 11.5563 4.03437 6.94697 7.62969 4.64229C11.225 2.3376 15.8344 3.53604 18.0469 7.03916C20.2594 10.6345 19.2453 15.336 15.65 17.5485Z" fill="#25D366"/>
</svg>
