<svg width="34" height="38" viewBox="0 0 34 38" fill="none" xmlns="http://www.w3.org/2000/svg">
<path d="M17.0002 20.1106C16.2068 20.1106 15.5835 19.4144 15.5835 18.5636C15.5835 17.7127 16.221 17.0166 17.0002 17.0166C17.7793 17.0166 18.4168 17.7127 18.4168 18.5636C18.4168 19.4144 17.7935 20.1106 17.0002 20.1106Z" fill="#B913E2"/>
<path d="M22.6667 20.1106C21.8733 20.1106 21.25 19.4144 21.25 18.5636C21.25 17.7127 21.8875 17.0166 22.6667 17.0166C23.4458 17.0166 24.0833 17.7127 24.0833 18.5636C24.0833 19.4144 23.46 20.1106 22.6667 20.1106Z" fill="#B913E2"/>
<path d="M11.3332 20.1106C10.5398 20.1106 9.9165 19.4144 9.9165 18.5636C9.9165 17.7127 10.554 17.0166 11.3332 17.0166C12.1123 17.0166 12.7498 17.7127 12.7498 18.5636C12.7498 19.4144 12.1265 20.1106 11.3332 20.1106Z" fill="#B913E2"/>
</svg>
