<svg width="25" height="25" viewBox="0 0 25 25" fill="none" xmlns="http://www.w3.org/2000/svg">
<path d="M16.0508 20.125H8.05078C7.25513 20.125 6.49207 19.8089 5.92946 19.2463C5.36685 18.6837 5.05078 17.9206 5.05078 17.125V7.125C5.05078 6.85978 4.94542 6.60543 4.75789 6.41789C4.57035 6.23036 4.316 6.125 4.05078 6.125C3.78556 6.125 3.53121 6.23036 3.34367 6.41789C3.15614 6.60543 3.05078 6.85978 3.05078 7.125V17.125C3.05078 18.4511 3.57757 19.7229 4.51525 20.6605C5.45293 21.5982 6.7247 22.125 8.05078 22.125H16.0508C16.316 22.125 16.5704 22.0196 16.7579 21.8321C16.9454 21.6446 17.0508 21.3902 17.0508 21.125C17.0508 20.8598 16.9454 20.6054 16.7579 20.4179C16.5704 20.2304 16.316 20.125 16.0508 20.125ZM21.0508 9.065C21.0404 8.97313 21.0203 8.88263 20.9908 8.795V8.705C20.9427 8.60218 20.8786 8.50767 20.8008 8.425L14.8008 2.425C14.7181 2.34722 14.6236 2.28308 14.5208 2.235H14.4308L14.1108 2.125H10.0508C9.25513 2.125 8.49207 2.44107 7.92946 3.00368C7.36685 3.56629 7.05078 4.32935 7.05078 5.125V15.125C7.05078 15.9206 7.36685 16.6837 7.92946 17.2463C8.49207 17.8089 9.25513 18.125 10.0508 18.125H18.0508C18.8464 18.125 19.6095 17.8089 20.1721 17.2463C20.7347 16.6837 21.0508 15.9206 21.0508 15.125V9.125C21.0508 9.125 21.0508 9.125 21.0508 9.065ZM15.0508 5.535L17.6408 8.125H16.0508C15.7856 8.125 15.5312 8.01964 15.3437 7.83211C15.1561 7.64457 15.0508 7.39022 15.0508 7.125V5.535ZM19.0508 15.125C19.0508 15.3902 18.9454 15.6446 18.7579 15.8321C18.5704 16.0196 18.316 16.125 18.0508 16.125H10.0508C9.78556 16.125 9.53121 16.0196 9.34367 15.8321C9.15614 15.6446 9.05078 15.3902 9.05078 15.125V5.125C9.05078 4.85978 9.15614 4.60543 9.34367 4.41789C9.53121 4.23036 9.78556 4.125 10.0508 4.125H13.0508V7.125C13.0508 7.92065 13.3669 8.68371 13.9295 9.24632C14.4921 9.80893 15.2551 10.125 16.0508 10.125H19.0508V15.125Z" fill="white"/>
</svg>
