<svg width="26" height="26" viewBox="0 0 26 26" fill="none" xmlns="http://www.w3.org/2000/svg">
<path d="M11.7001 23.9417C11.3859 23.9417 11.0717 23.8875 10.7792 23.7792C9.42508 23.335 8.55842 21.84 8.86175 20.4534L9.39258 17.0408C9.40342 16.965 9.40341 16.8567 9.32758 16.77C9.27342 16.7158 9.19758 16.6834 9.11092 16.6834H4.77758C3.71592 16.6834 2.79508 16.2392 2.25342 15.47C1.72258 14.7225 1.61425 13.7367 1.96092 12.7834L4.55008 4.89668C4.95092 3.32585 6.63008 2.05835 8.36342 2.05835H12.4801C13.0867 2.05835 14.4084 2.24252 15.1126 2.94668L18.3951 5.48168L17.3984 6.77085L14.0401 4.17085C13.7692 3.90002 13.0867 3.68335 12.4801 3.68335H8.36342C7.38842 3.68335 6.33758 4.46335 6.12092 5.34085L3.49925 13.3034C3.32592 13.78 3.35842 14.2134 3.58592 14.5275C3.82425 14.8633 4.25758 15.0583 4.78842 15.0583H9.12175C9.68508 15.0583 10.2051 15.2967 10.5626 15.7084C10.9309 16.1309 11.0934 16.6942 11.0067 17.2792L10.4651 20.7567C10.3351 21.3633 10.7467 22.0459 11.3317 22.2409C11.8517 22.4359 12.5451 22.1542 12.7834 21.8075L17.2251 15.1992L18.5684 16.1092L14.1267 22.7175C13.6176 23.4758 12.6534 23.9417 11.7001 23.9417Z" fill="white"/>
<path d="M21.2549 19.6083H20.1716C18.1674 19.6083 17.1924 18.6658 17.1924 16.7375V6.12083C17.1924 4.1925 18.1674 3.25 20.1716 3.25H21.2549C23.2591 3.25 24.2341 4.1925 24.2341 6.12083V16.7375C24.2341 18.6658 23.2591 19.6083 21.2549 19.6083ZM20.1716 4.875C18.9907 4.875 18.8174 5.15667 18.8174 6.12083V16.7375C18.8174 17.7017 18.9907 17.9833 20.1716 17.9833H21.2549C22.4357 17.9833 22.6091 17.7017 22.6091 16.7375V6.12083C22.6091 5.15667 22.4357 4.875 21.2549 4.875H20.1716Z" fill="white"/>
</svg>
