<svg width="80" height="80" viewBox="0 0 80 80" fill="none" xmlns="http://www.w3.org/2000/svg">
<path d="M40.0001 40.0001V70.0002M40.0001 40.0001L31.6667 46.6668M40.0001 40.0001L48.3334 46.6668M16.78 30.3901C13.6274 31.1834 10.873 33.1007 9.03421 35.7816C7.19546 38.4625 6.39898 41.7227 6.79439 44.9494C7.18981 48.1762 8.74991 51.1475 11.1816 53.3052C13.6133 55.4628 16.7491 56.6582 20 56.6668H23.3334" stroke="#B913E2" stroke-width="2" stroke-linecap="round" stroke-linejoin="round"/>
<path d="M52.7669 23.7934C51.6276 19.282 48.8155 15.3726 44.9006 12.8576C40.9858 10.3427 36.2611 9.41042 31.6844 10.2498C27.1077 11.0892 23.0213 13.6374 20.2537 17.3779C17.4862 21.1184 16.2444 25.7713 16.7802 30.3934C16.7802 30.3934 17.2902 33.3334 18.3335 35.0001" stroke="#B913E2" stroke-width="2" stroke-linecap="round" stroke-linejoin="round"/>
<path d="M56.6663 56.6668C59.0198 56.6652 61.3463 56.1652 63.4926 55.1997C65.6388 54.2342 67.5563 52.8251 69.1188 51.0651C70.6812 49.3051 71.8532 47.2342 72.5576 44.9886C73.262 42.743 73.4829 40.3737 73.2056 38.0366C72.9284 35.6996 72.1593 33.4477 70.949 31.4293C69.7387 29.4109 68.1147 27.6717 66.1838 26.3261C64.2529 24.9806 62.059 24.0592 59.7463 23.6227C57.4337 23.1862 55.0549 23.2444 52.7663 23.7935L48.333 25.0002" stroke="#B913E2" stroke-width="2" stroke-linecap="round" stroke-linejoin="round"/>
</svg>
