<svg width="24" height="24" viewBox="0 0 24 24" fill="none" xmlns="http://www.w3.org/2000/svg">
<path d="M6.28016 22.75C4.15016 22.75 2.41016 21.01 2.41016 18.88C2.41016 16.75 4.15016 15.01 6.28016 15.01C8.41016 15.01 10.1502 16.75 10.1502 18.88C10.1502 21.01 8.41016 22.75 6.28016 22.75ZM6.28016 16.51C4.97016 16.51 3.91016 17.57 3.91016 18.88C3.91016 20.19 4.97016 21.25 6.28016 21.25C7.59016 21.25 8.65016 20.19 8.65016 18.88C8.65016 17.57 7.59016 16.51 6.28016 16.51Z" fill="white"/>
<path d="M9.40039 19.6299C8.99039 19.6299 8.65039 19.2899 8.65039 18.8799V6.29989C8.65039 4.71989 9.60039 3.47989 11.1204 3.06989L17.3604 1.36989C18.6304 1.01989 19.7004 1.14989 20.4504 1.72989C21.2104 2.30989 21.5904 3.27989 21.5904 4.60989V16.8099C21.5904 17.2199 21.2504 17.5599 20.8404 17.5599C20.4304 17.5599 20.0904 17.2199 20.0904 16.8099V4.59989C20.0904 4.01989 19.9904 3.25989 19.5404 2.91989C19.0504 2.53989 18.2104 2.68989 17.7504 2.81989L11.5104 4.51989C10.6404 4.75989 10.1504 5.40989 10.1504 6.30989V18.8899C10.1504 19.2899 9.81039 19.6299 9.40039 19.6299Z" fill="white"/>
<path d="M17.7196 20.6699C15.5896 20.6699 13.8496 18.9299 13.8496 16.7999C13.8496 14.6699 15.5896 12.9299 17.7196 12.9299C19.8496 12.9299 21.5896 14.6699 21.5896 16.7999C21.5896 18.9299 19.8496 20.6699 17.7196 20.6699ZM17.7196 14.4299C16.4096 14.4299 15.3496 15.4899 15.3496 16.7999C15.3496 18.1099 16.4096 19.1699 17.7196 19.1699C19.0296 19.1699 20.0896 18.1099 20.0896 16.7999C20.0896 15.4899 19.0296 14.4299 17.7196 14.4299Z" fill="white"/>
<path d="M9.3998 10.27C9.0698 10.27 8.7698 10.05 8.6798 9.72003C8.5698 9.32003 8.7998 8.90003 9.1998 8.79003L20.6398 5.67003C21.0398 5.56003 21.4498 5.80003 21.5598 6.20003C21.6698 6.60003 21.4298 7.01003 21.0298 7.12003L9.5998 10.24C9.5298 10.26 9.4598 10.27 9.3998 10.27Z" fill="white"/>
</svg>
