<svg width="88" height="78" viewBox="0 0 88 78" fill="none" xmlns="http://www.w3.org/2000/svg">
<path d="M36.0864 45.7506L36.0836 45.7486C36.0659 45.7358 36.056 45.7227 36.0503 45.7116C36.0447 45.7007 36.0405 45.6869 36.0405 45.6683V21.0806C36.0405 21.0252 36.0852 20.9702 36.1593 20.9702H40.4843C40.5144 20.9702 40.5438 20.9822 40.5665 21.0047C40.5876 21.0256 40.5935 21.0456 40.5932 21.0644L40.5931 21.0725V21.0806V42.9716V43.4848L41.01 43.784L53.6656 52.8656L53.6672 52.8668C53.7116 52.8985 53.7251 52.9628 53.6889 53.0126L53.4983 53.2753V53.2808L51.1265 56.496L51.1265 56.496L51.1218 56.5025C51.1088 56.5205 51.0892 56.5345 51.0569 56.5393C51.0234 56.5443 50.9874 56.537 50.9558 56.515C50.9554 56.5146 50.9549 56.5143 50.9545 56.514L36.0864 45.7506ZM61.8311 34.1888V29.8436H87.0002V34.1888H61.8311ZM61.8311 47.6724V43.3271H73.6154V47.6724H61.8311Z" fill="#B913E2" stroke="#171A1F" stroke-width="2"/>
<path d="M66.881 56.106L66.8784 56.1101C65.5705 58.1646 64.0457 60.0668 62.2943 61.8052C59.2769 64.8002 55.763 67.1529 51.8579 68.7893C47.8087 70.4869 43.5119 71.3456 39.0855 71.3456C34.6497 71.3456 30.353 70.4871 26.3132 68.7893C22.4081 67.1529 18.8941 64.8002 15.8767 61.8052C12.8595 58.8104 10.4885 55.3222 8.83916 51.4446C7.12744 47.4325 6.26179 43.1646 6.26179 38.7584C6.26179 34.3517 7.1276 30.0941 8.83872 26.0731L66.881 56.106ZM66.881 56.106C66.995 55.9249 67.2027 55.8097 67.4232 55.8097H73.0558C66.619 68.4063 53.5793 76.5236 39.0755 76.5236C18.0157 76.5236 0.961156 59.5652 1.00007 38.6809C1.03897 17.8398 18.5059 0.742064 39.5426 1.00295L39.5435 1.00296C53.8612 1.16664 66.6873 9.25446 73.0558 21.707H67.4232C67.2027 21.707 66.995 21.5918 66.881 21.4107L66.8784 21.4066M66.881 56.106L66.8784 21.4066M66.8784 21.4066C65.5705 19.3521 64.0457 17.4499 62.2943 15.7115C59.2771 12.7168 55.7636 10.3642 51.8589 8.72784C47.8188 7.02971 43.5216 6.17112 39.0855 6.17112C34.6597 6.17112 30.3527 7.02958 26.3127 8.72763C22.4078 10.364 18.894 12.7166 15.8767 15.7115C12.8593 18.7065 10.4882 22.195 8.8388 26.0729L66.8784 21.4066Z" fill="white" stroke="#171A1F" stroke-width="2"/>
</svg>
