<svg width="32" height="33" viewBox="0 0 32 33" fill="none" xmlns="http://www.w3.org/2000/svg">
<ellipse cx="16.1489" cy="16.1712" rx="15.4848" ry="15.9331" fill="#B913E2"/>
<path d="M21.0447 13.2747L14.141 9.72298C9.50365 7.33301 7.60031 9.29146 9.92303 14.0631L10.6247 15.507C10.8263 15.9303 10.8263 16.4199 10.6247 16.8431L9.92303 18.2788C7.60031 23.0504 9.49559 25.0088 14.141 22.6189L21.0447 19.0671C24.1417 17.4738 24.1417 14.8681 21.0447 13.2747ZM18.4397 16.7933H14.0846C13.7539 16.7933 13.4797 16.5112 13.4797 16.1709C13.4797 15.8307 13.7539 15.5485 14.0846 15.5485H18.4397C18.7704 15.5485 19.0446 15.8307 19.0446 16.1709C19.0446 16.5112 18.7704 16.7933 18.4397 16.7933Z" fill="white"/>
</svg>
