<svg width="28" height="28" viewBox="0 0 28 28" fill="none" xmlns="http://www.w3.org/2000/svg">
<g clip-path="url(#clip0_311_8845)">
<path d="M22.7499 8.56584L22.7499 8.56585L22.7546 8.56661C23.4007 8.67141 23.5467 8.91639 23.571 8.99291C23.5963 9.07227 23.6167 9.36283 23.1483 9.83242L21.24 11.7457L21.771 12.2754L21.24 11.7457C20.9686 12.0178 20.7881 12.3766 20.6901 12.7222C20.5927 13.0662 20.5562 13.471 20.6508 13.8565L21.2014 16.2258L21.2017 16.2269C21.4054 17.0978 21.1808 17.3216 21.1685 17.3306C21.159 17.3376 20.8822 17.4886 20.11 17.0262L20.1065 17.0241L17.8115 15.6666C17.4592 15.4525 17.0408 15.3694 16.6667 15.3694C16.2925 15.3694 15.8742 15.4525 15.5218 15.6666L13.23 17.0222C13.2295 17.0225 13.229 17.0228 13.2285 17.0231C12.4555 17.4748 12.1749 17.3293 12.162 17.3199C12.1534 17.3136 11.9277 17.0988 12.1317 16.2269L12.1319 16.2258L12.6837 13.8514L12.6856 13.8436L12.6872 13.8357C12.7631 13.4743 12.7288 13.0808 12.6372 12.7405C12.5463 12.4025 12.3751 12.0282 12.0934 11.7457L11.5623 12.2754L12.0934 11.7457L10.185 9.83242C9.71391 9.36012 9.73839 9.07624 9.76187 9.00285C9.78614 8.92699 9.93437 8.68132 10.5866 8.5653L13.0425 8.1511C13.0426 8.15108 13.0428 8.15106 13.0429 8.15104C13.4013 8.09106 13.7354 7.91587 13.9962 7.71975C14.2575 7.52325 14.5135 7.25443 14.6707 6.93922L16.0273 4.21906L16.0336 4.20626L16.0395 4.19323C16.3218 3.56873 16.5889 3.52783 16.6293 3.52783C16.6824 3.52783 16.9667 3.58458 17.2831 4.21906L17.9455 3.8887L17.2831 4.21906L18.6396 6.93922C18.7972 7.2551 19.0542 7.52496 19.3212 7.72289C19.5881 7.92064 19.9271 8.09265 20.293 8.15146L22.7499 8.56584Z" stroke="#9CA3AF" stroke-width="1.5"/>
<path d="M29.5807 31.5922H5.30577C5.33299 26.2834 10.6302 21.75 17.4433 21.75C24.2563 21.75 29.5535 26.2834 29.5807 31.5922Z" stroke="#9CA3AF" stroke-width="1.5"/>
</g>
<defs>
<clipPath id="clip0_311_8845">
<rect width="28" height="28" fill="white"/>
</clipPath>
</defs>
</svg>
