<svg width="23" height="23" viewBox="0 0 23 23" fill="none" xmlns="http://www.w3.org/2000/svg">
<path d="M21.0565 2.36319C20.794 2.14482 20.4773 2.00171 20.1399 1.94908C19.8026 1.89645 19.4573 1.93627 19.1407 2.0643L2.6199 8.73439C2.2666 8.87976 1.96585 9.12913 1.75758 9.44942C1.54932 9.7697 1.44338 10.1457 1.45383 10.5276C1.46428 10.9095 1.59063 11.2792 1.8161 11.5877C2.04158 11.8961 2.35551 12.1286 2.71624 12.2544L6.05804 13.4167L7.92069 19.5763C7.946 19.6586 7.98273 19.7369 8.02982 19.809C8.03696 19.8201 8.04704 19.8283 8.05463 19.839C8.10903 19.9149 8.17477 19.982 8.24955 20.0379C8.27081 20.0542 8.29118 20.0693 8.31391 20.0837C8.40143 20.1418 8.49835 20.1843 8.60037 20.2092L8.61128 20.2101L8.61747 20.2128C8.6788 20.2253 8.74123 20.2316 8.80382 20.2317C8.80984 20.2317 8.81519 20.2288 8.82115 20.2287C8.91561 20.2271 9.00924 20.2108 9.09872 20.1805C9.11954 20.1734 9.13738 20.1615 9.15757 20.153C9.2243 20.1253 9.28751 20.0899 9.3459 20.0474C9.39266 20.008 9.43944 19.9686 9.48623 19.9292L11.9773 17.1789L15.6927 20.057C16.0198 20.3117 16.4224 20.4501 16.8369 20.4505C17.2713 20.4499 17.6923 20.3 18.0293 20.026C18.3663 19.7519 18.5988 19.3703 18.6879 18.9452L21.6957 4.17993C21.7639 3.84761 21.7404 3.50302 21.6278 3.18301C21.5152 2.863 21.3177 2.57962 21.0565 2.36319ZM9.16936 13.7102C9.04154 13.8375 8.95416 13.9997 8.91819 14.1765L8.63286 15.563L7.91006 13.1725L11.6577 11.221L9.16936 13.7102ZM16.8226 18.5995L12.4319 15.1983C12.2482 15.0563 12.0178 14.9888 11.7866 15.0092C11.5553 15.0295 11.3402 15.1363 11.1842 15.3081L10.3864 16.1887L10.6683 14.8184L17.1979 8.28873C17.3538 8.13308 17.4488 7.92676 17.4656 7.70714C17.4825 7.48752 17.4201 7.26912 17.2899 7.09151C17.1596 6.91389 16.97 6.78881 16.7555 6.73891C16.5409 6.68901 16.3156 6.7176 16.1203 6.81949L6.74921 11.6986L3.31582 10.4422L19.8897 3.8117L16.8226 18.5995Z" fill="#0088CC"/>
</svg>
