<svg width="23" height="23" viewBox="0 0 23 23" fill="none" xmlns="http://www.w3.org/2000/svg">
<path d="M21.7267 3.76667C21.7269 3.60384 21.6838 3.44389 21.602 3.3031C21.5202 3.16232 21.4025 3.04574 21.261 2.96522C21.1194 2.88471 20.9591 2.84315 20.7963 2.84476C20.6334 2.84638 20.4739 2.89112 20.334 2.97443C19.7945 3.2956 19.2135 3.54156 18.6074 3.70548C17.7417 2.96266 16.6376 2.55618 15.497 2.56033C14.2456 2.56177 13.0437 3.04947 12.1452 3.92045C11.2467 4.79143 10.7218 5.9775 10.6814 7.22823C8.21447 6.83483 5.9786 5.54721 4.40018 3.61092C4.30508 3.49554 4.18362 3.40471 4.04605 3.34611C3.90849 3.28751 3.75884 3.26285 3.60975 3.27421C3.46074 3.28648 3.31696 3.33486 3.19084 3.41517C3.06473 3.49548 2.96007 3.60531 2.88593 3.73514C2.50568 4.39872 2.28729 5.14262 2.2485 5.90644C2.2097 6.67026 2.3516 7.43246 2.66266 8.13115L2.66086 8.13295C2.52106 8.21906 2.40568 8.33959 2.32577 8.48303C2.24585 8.62647 2.20407 8.78801 2.20442 8.9522C2.20273 9.08765 2.21086 9.22304 2.22873 9.35732C2.32289 10.5173 2.83697 11.6031 3.67456 12.411C3.61774 12.5193 3.58306 12.6378 3.57255 12.7596C3.56204 12.8814 3.57591 13.0041 3.61334 13.1204C3.97851 14.2582 4.75508 15.2187 5.7911 15.814C4.73854 16.2211 3.60203 16.363 2.4817 16.2273C2.27435 16.2013 2.06431 16.2465 1.88603 16.3555C1.70776 16.4646 1.57184 16.631 1.50057 16.8274C1.4293 17.0239 1.42691 17.2387 1.49379 17.4367C1.56067 17.6347 1.69285 17.8041 1.86866 17.9171C3.79546 19.1581 6.03892 19.8179 8.33079 19.8176C10.9298 19.8468 13.4656 19.0163 15.5438 17.4552C17.6219 15.8941 19.1259 13.69 19.8218 11.1857C20.1473 10.0948 20.3134 8.96261 20.3152 7.82418C20.3152 7.76386 20.3152 7.70174 20.3142 7.63963C20.7956 7.12055 21.1684 6.51061 21.411 5.84556C21.6535 5.18052 21.7609 4.47374 21.7267 3.76667ZM18.6784 6.72765C18.5262 6.90773 18.4491 7.13954 18.4633 7.37495C18.4723 7.52706 18.4714 7.68009 18.4714 7.82418C18.4695 8.78619 18.3285 9.74288 18.0528 10.6645C17.4844 12.7953 16.2175 14.6738 14.4548 15.999C12.6921 17.3243 10.5356 18.0197 8.33079 17.9738C7.53879 17.9741 6.74951 17.881 5.97929 17.6965C6.96147 17.38 7.87982 16.892 8.6918 16.2552C8.84135 16.1374 8.9508 15.9763 9.00513 15.7939C9.05946 15.6114 9.05601 15.4167 8.99525 15.2363C8.9345 15.0559 8.81941 14.8987 8.66578 14.7864C8.51215 14.674 8.32751 14.6119 8.1372 14.6086C7.37096 14.5967 6.63927 14.2878 6.09628 13.747C6.23403 13.7209 6.37087 13.6885 6.50681 13.6498C6.70595 13.5931 6.88021 13.4711 7.00155 13.3033C7.12288 13.1356 7.18423 12.9318 7.1757 12.725C7.16718 12.5181 7.08928 12.3201 6.95455 12.1629C6.81983 12.0057 6.63611 11.8984 6.43299 11.8583C5.98822 11.7704 5.5697 11.5812 5.20995 11.3053C4.85021 11.0294 4.55893 10.6743 4.35877 10.2675C4.52538 10.2902 4.69305 10.3044 4.86112 10.3098C5.06078 10.3128 5.25623 10.2523 5.4192 10.1369C5.58217 10.0215 5.70422 9.85725 5.76769 9.66793C5.82852 9.47688 5.82539 9.27121 5.75878 9.0821C5.69217 8.893 5.56571 8.73077 5.39858 8.62001C4.99309 8.34988 4.66094 7.98339 4.43186 7.55336C4.20279 7.12334 4.08395 6.64321 4.08599 6.15599C4.08599 6.09478 4.08779 6.03355 4.09139 5.97324C6.15755 7.90019 8.8375 9.03612 11.6591 9.18089C11.8015 9.1865 11.9433 9.15968 12.0739 9.10244C12.2044 9.0452 12.3202 8.95905 12.4126 8.85049C12.504 8.74088 12.5688 8.61155 12.6017 8.47267C12.6347 8.33379 12.6349 8.18916 12.6025 8.05016C12.5498 7.83016 12.5229 7.60477 12.5224 7.37855C12.5232 6.58992 12.8369 5.83383 13.3945 5.27618C13.9522 4.71854 14.7083 4.40489 15.4969 4.40406C15.9026 4.40297 16.3042 4.48601 16.6762 4.64794C17.0483 4.80986 17.3827 5.04716 17.6584 5.34484C17.7648 5.45923 17.8986 5.54451 18.0472 5.59258C18.1958 5.64065 18.3542 5.6499 18.5074 5.61946C18.8861 5.54576 19.2593 5.4465 19.6246 5.32237C19.3755 5.83214 19.0571 6.30504 18.6784 6.72765Z" fill="#00ACEE"/>
</svg>
