<svg width="62" height="62" viewBox="0 0 62 62" fill="none" xmlns="http://www.w3.org/2000/svg">
<circle cx="31" cy="31" r="30.5" stroke="#B913E2"/>
<path d="M40.0249 27.0546L20.4784 38.8417C19.3277 39.5321 17.8481 38.7102 17.8481 37.3621V24.2106C17.8481 18.4733 24.0458 14.8895 29.0269 17.7499L36.5726 22.0899L40.0084 24.0627C41.1428 24.7367 41.1592 26.3806 40.0249 27.0546Z" fill="#B913E2"/>
<path d="M41.0112 36.688L34.3532 40.5348L27.7117 44.3652C25.328 45.7297 22.6319 45.4502 20.6757 44.0693C19.7222 43.4117 19.8372 41.9486 20.84 41.3568L41.7345 28.83C42.7209 28.2381 44.0196 28.7971 44.2004 29.9314C44.6114 32.4795 43.5593 35.2249 41.0112 36.688Z" fill="#B913E2"/>
</svg>
