<svg width="28" height="28" viewBox="0 0 28 28" fill="none" xmlns="http://www.w3.org/2000/svg">
<path d="M14.0002 25.2584C13.6385 25.2584 13.2885 25.2117 12.9968 25.1067C8.54016 23.5784 1.4585 18.1534 1.4585 10.1384C1.4585 6.05503 4.76016 2.7417 8.82016 2.7417C10.7918 2.7417 12.6352 3.5117 14.0002 4.88837C15.3652 3.5117 17.2085 2.7417 19.1802 2.7417C23.2402 2.7417 26.5418 6.0667 26.5418 10.1384C26.5418 18.165 19.4602 23.5784 15.0035 25.1067C14.7118 25.2117 14.3618 25.2584 14.0002 25.2584ZM8.82016 4.4917C5.7285 4.4917 3.2085 7.02337 3.2085 10.1384C3.2085 18.1067 10.8735 22.54 13.5685 23.4617C13.7785 23.5317 14.2335 23.5317 14.4435 23.4617C17.1268 22.54 24.8035 18.1184 24.8035 10.1384C24.8035 7.02337 22.2835 4.4917 19.1918 4.4917C17.4185 4.4917 15.7735 5.32003 14.7118 6.75503C14.3852 7.19837 13.6385 7.19837 13.3118 6.75503C12.2268 5.30837 10.5935 4.4917 8.82016 4.4917Z" fill="#FFFFFF"/>
</svg>
