<svg width="41" height="41" viewBox="0 0 41 41" fill="none" xmlns="http://www.w3.org/2000/svg">
<path d="M30.1338 18.0504C29.4505 18.0504 28.8838 17.4837 28.8838 16.8004V13.467C28.8838 8.21704 27.4005 4.71704 20.1338 4.71704C12.8671 4.71704 11.3838 8.21704 11.3838 13.467V16.8004C11.3838 17.4837 10.8171 18.0504 10.1338 18.0504C9.45046 18.0504 8.88379 17.4837 8.88379 16.8004V13.467C8.88379 8.63371 10.0505 2.21704 20.1338 2.21704C30.2171 2.21704 31.3838 8.63371 31.3838 13.467V16.8004C31.3838 17.4837 30.8171 18.0504 30.1338 18.0504Z" fill="white"/>
<path d="M20.1337 32.2171C17.1504 32.2171 14.717 29.7838 14.717 26.8005C14.717 23.8171 17.1504 21.3838 20.1337 21.3838C23.117 21.3838 25.5504 23.8171 25.5504 26.8005C25.5504 29.7838 23.117 32.2171 20.1337 32.2171ZM20.1337 23.8838C18.5337 23.8838 17.217 25.2005 17.217 26.8005C17.217 28.4005 18.5337 29.7171 20.1337 29.7171C21.7337 29.7171 23.0504 28.4005 23.0504 26.8005C23.0504 25.2005 21.7337 23.8838 20.1337 23.8838Z" fill="white"/>
<path d="M28.467 38.0505H11.8004C4.45037 38.0505 2.21704 35.8172 2.21704 28.4672V25.1339C2.21704 17.7839 4.45037 15.5505 11.8004 15.5505H28.467C35.817 15.5505 38.0504 17.7839 38.0504 25.1339V28.4672C38.0504 35.8172 35.817 38.0505 28.467 38.0505ZM11.8004 18.0505C5.83371 18.0505 4.71704 19.1839 4.71704 25.1339V28.4672C4.71704 34.4172 5.83371 35.5505 11.8004 35.5505H28.467C34.4337 35.5505 35.5504 34.4172 35.5504 28.4672V25.1339C35.5504 19.1839 34.4337 18.0505 28.467 18.0505H11.8004Z" fill="white"/>
</svg>
