<svg width="28" height="28" viewBox="0 0 28 28" fill="none" xmlns="http://www.w3.org/2000/svg">
<path d="M20.9997 9.22832C20.9647 9.22832 20.9414 9.22832 20.9064 9.22832H20.848C18.643 9.15832 16.998 7.45497 16.998 5.35497C16.998 3.20831 18.748 1.46997 20.883 1.46997C23.018 1.46997 24.7681 3.21997 24.7681 5.35497C24.7564 7.46664 23.1114 9.16998 21.0114 9.23998C21.0114 9.22831 21.0114 9.22832 20.9997 9.22832ZM20.883 3.20831C19.7047 3.20831 18.748 4.16498 18.748 5.34331C18.748 6.49831 19.6464 7.43165 20.8014 7.47832C20.813 7.46665 20.9064 7.46665 21.0114 7.47832C22.143 7.41998 23.018 6.48665 23.0297 5.34331C23.0297 4.16498 22.073 3.20831 20.883 3.20831Z" fill="#9CA3AF"/>
<path d="M21.0117 17.8267C20.5567 17.8267 20.1018 17.7917 19.6468 17.71C19.1684 17.6283 18.8534 17.1733 18.9351 16.695C19.0167 16.2167 19.4717 15.9017 19.9501 15.9833C21.3851 16.2283 22.9018 15.96 23.9167 15.2834C24.4651 14.9217 24.7568 14.4667 24.7568 14.0117C24.7568 13.5567 24.4534 13.1133 23.9167 12.7517C22.9018 12.075 21.3617 11.8067 19.9151 12.0633C19.4367 12.1567 18.9818 11.83 18.9001 11.3517C18.8184 10.8733 19.1334 10.4183 19.6118 10.3367C21.5134 9.99835 23.4851 10.36 24.8851 11.2933C25.9118 11.9817 26.5068 12.9617 26.5068 14.0117C26.5068 15.05 25.9234 16.0417 24.8851 16.7417C23.8234 17.4417 22.4467 17.8267 21.0117 17.8267Z" fill="#9CA3AF"/>
<path d="M6.96506 9.22826C6.95339 9.22826 6.94173 9.22826 6.94173 9.22826C4.84173 9.15826 3.19673 7.45491 3.18506 5.35491C3.18506 3.20825 4.93506 1.45825 7.07006 1.45825C9.20506 1.45825 10.9551 3.20825 10.9551 5.34325C10.9551 7.45492 9.31006 9.15826 7.21006 9.22826L6.96506 8.35326L7.04673 9.22826C7.02339 9.22826 6.98839 9.22826 6.96506 9.22826ZM7.08173 7.47826C7.15173 7.47826 7.21006 7.47825 7.28006 7.48992C8.31839 7.44325 9.22839 6.50991 9.22839 5.35491C9.22839 4.17658 8.27173 3.21991 7.09339 3.21991C5.91506 3.21991 4.95839 4.17658 4.95839 5.35491C4.95839 6.49825 5.84506 7.41992 6.97673 7.48992C6.98839 7.47825 7.03506 7.47826 7.08173 7.47826Z" fill="#9CA3AF"/>
<path d="M6.95325 17.8267C5.51825 17.8267 4.14158 17.4417 3.07992 16.7417C2.05325 16.0534 1.45825 15.0617 1.45825 14.0117C1.45825 12.9733 2.05325 11.9817 3.07992 11.2933C4.47992 10.36 6.45158 9.99835 8.35325 10.3367C8.83158 10.4183 9.14659 10.8733 9.06492 11.3517C8.98325 11.83 8.52825 12.1567 8.04992 12.0633C6.60325 11.8067 5.07492 12.075 4.04825 12.7517C3.49992 13.1133 3.20825 13.5567 3.20825 14.0117C3.20825 14.4667 3.51159 14.9217 4.04825 15.2834C5.06325 15.96 6.57992 16.2283 8.01492 15.9833C8.49325 15.9017 8.94825 16.2283 9.02992 16.695C9.11159 17.1733 8.79659 17.6283 8.31825 17.71C7.86325 17.7917 7.40825 17.8267 6.95325 17.8267Z" fill="#9CA3AF"/>
<path d="M13.9997 17.9434C13.9647 17.9434 13.9414 17.9434 13.9064 17.9434H13.848C11.643 17.8734 9.99805 16.1701 9.99805 14.0701C9.99805 11.9234 11.748 10.1851 13.883 10.1851C16.018 10.1851 17.768 11.9351 17.768 14.0701C17.7564 16.1817 16.1114 17.8851 14.0114 17.9551C14.0114 17.9434 14.0114 17.9434 13.9997 17.9434ZM13.883 11.9234C12.7047 11.9234 11.748 12.8801 11.748 14.0584C11.748 15.2134 12.6464 16.1467 13.8014 16.1934C13.813 16.1817 13.9064 16.1817 14.0114 16.1934C15.143 16.1351 16.018 15.2017 16.0297 14.0584C16.0297 12.8917 15.073 11.9234 13.883 11.9234Z" fill="#9CA3AF"/>
<path d="M13.9998 26.5533C12.5998 26.5533 11.1998 26.1917 10.1148 25.4567C9.08816 24.7684 8.49316 23.7884 8.49316 22.7384C8.49316 21.7 9.0765 20.6967 10.1148 20.0083C12.2965 18.5617 15.7148 18.5617 17.8848 20.0083C18.9115 20.6967 19.5065 21.6767 19.5065 22.7267C19.5065 23.765 18.9232 24.7684 17.8848 25.4567C16.7998 26.18 15.3998 26.5533 13.9998 26.5533ZM11.0832 21.4784C10.5348 21.84 10.2432 22.295 10.2432 22.75C10.2432 23.205 10.5465 23.6483 11.0832 24.01C12.6582 25.0717 15.3298 25.0717 16.9048 24.01C17.4532 23.6483 17.7448 23.1934 17.7448 22.7384C17.7448 22.2834 17.4415 21.84 16.9048 21.4784C15.3415 20.4167 12.6698 20.4284 11.0832 21.4784Z" fill="#9CA3AF"/>
</svg>
