<svg width="28" height="28" viewBox="0 0 28 28" fill="none" xmlns="http://www.w3.org/2000/svg">
<path d="M17.4999 26.5416H10.4999C4.16492 26.5416 1.45825 23.8349 1.45825 17.4999V10.4999C1.45825 4.16492 4.16492 1.45825 10.4999 1.45825H17.4999C23.8349 1.45825 26.5416 4.16492 26.5416 10.4999V17.4999C26.5416 23.8349 23.8349 26.5416 17.4999 26.5416ZM10.4999 3.20825C5.12158 3.20825 3.20825 5.12158 3.20825 10.4999V17.4999C3.20825 22.8783 5.12158 24.7916 10.4999 24.7916H17.4999C22.8783 24.7916 24.7916 22.8783 24.7916 17.4999V10.4999C24.7916 5.12158 22.8783 3.20825 17.4999 3.20825H10.4999Z" fill="#9CA3AF"/>
<path d="M14 26.5416C13.5217 26.5416 13.125 26.1449 13.125 25.6666V2.33325C13.125 1.85492 13.5217 1.45825 14 1.45825C14.4783 1.45825 14.875 1.85492 14.875 2.33325V25.6666C14.875 26.1449 14.4783 26.5416 14 26.5416Z" fill="#9CA3AF"/>
<path d="M13.9999 11.9583H2.33325C1.85492 11.9583 1.45825 11.5616 1.45825 11.0833C1.45825 10.6049 1.85492 10.2083 2.33325 10.2083H13.9999C14.4783 10.2083 14.8749 10.6049 14.8749 11.0833C14.8749 11.5616 14.4783 11.9583 13.9999 11.9583Z" fill="#9CA3AF"/>
<path d="M25.6667 17.7917H14C13.5217 17.7917 13.125 17.3951 13.125 16.9167C13.125 16.4384 13.5217 16.0417 14 16.0417H25.6667C26.145 16.0417 26.5417 16.4384 26.5417 16.9167C26.5417 17.3951 26.145 17.7917 25.6667 17.7917Z" fill="#9CA3AF"/>
</svg>
