<svg width="20" height="20" viewBox="0 0 20 20" fill="none" xmlns="http://www.w3.org/2000/svg">
<circle cx="10" cy="10" r="9.5" stroke="white"/>
<path d="M10.3728 4.87657L10.9027 5.93913C10.9745 6.08321 11.1631 6.22729 11.3338 6.25431L12.2948 6.41639C12.9055 6.51544 13.0492 6.96569 12.6091 7.40692L11.8637 8.15431C11.7379 8.28038 11.6661 8.52353 11.711 8.70362L11.9265 9.63112C12.0972 10.3605 11.711 10.6487 11.0643 10.2614L10.1662 9.73016C10.0045 9.63111 9.73507 9.63111 9.5734 9.73016L8.67526 10.2614C8.0286 10.6396 7.6424 10.3605 7.81304 9.63112L8.0286 8.70362C8.06452 8.53253 8.00165 8.28038 7.87591 8.15431L7.13046 7.40692C6.69037 6.96569 6.83407 6.52445 7.44481 6.41639L8.40582 6.25431C8.56748 6.22729 8.75609 6.08321 8.82795 5.93913L9.35785 4.87657C9.61831 4.30026 10.0853 4.30026 10.3728 4.87657Z" fill="white"/>
<path d="M10.1729 11.5625C7.39825 11.5625 5.13867 13.4233 5.13867 15.7161C5.13867 15.8712 5.26051 15.9931 5.41558 15.9931H14.9302C15.0853 15.9931 15.2071 15.8712 15.2071 15.7161C15.2071 13.4233 12.9475 11.5625 10.1729 11.5625Z" fill="white"/>
</svg>
