<svg width="168" height="168" viewBox="0 0 168 168" fill="none" xmlns="http://www.w3.org/2000/svg">
<circle cx="84" cy="84" r="84" fill="#22262C"/>
<path d="M82.8176 55.3564C87.8741 55.3564 91.9731 51.0233 91.9731 45.6782C91.9731 40.3331 87.8741 36 82.8176 36C77.7612 36 73.6621 40.3331 73.6621 45.6782C73.6621 51.0233 77.7612 55.3564 82.8176 55.3564Z" stroke="#890EA8" stroke-width="2" stroke-miterlimit="10" stroke-linecap="square"/>
<path d="M86.7257 98.9086L86.7257 127.664C86.6985 128.939 87.131 130.177 87.9354 131.128C88.7399 132.078 89.8561 132.67 91.0578 132.782C91.6592 132.817 92.2611 132.727 92.8293 132.515C93.3974 132.304 93.9205 131.976 94.3685 131.551C94.8166 131.125 95.1809 130.611 95.4405 130.036C95.7 129.462 95.8498 128.839 95.8812 128.203C95.8812 128.114 95.8812 128.025 95.8812 127.937L95.8812 73.1001L119.644 71.7048C120.646 71.6458 121.588 71.1831 122.277 70.412C122.966 69.6409 123.349 68.6199 123.348 67.5593C123.346 66.4614 122.932 65.409 122.197 64.6333C121.462 63.8576 120.466 63.4219 119.428 63.4219L47.9201 63.4219C46.8815 63.4219 45.8853 63.8576 45.1503 64.6333C44.4153 65.409 44.0016 66.4614 44 67.5593C44 68.6188 44.3838 69.6381 45.0725 70.4079C45.7613 71.1776 46.7027 71.6394 47.7034 71.6983L71.4665 73.1001L71.4665 127.664C71.4393 128.939 71.8718 130.177 72.6762 131.128C73.4807 132.078 74.5969 132.67 75.7986 132.782C76.4 132.817 77.002 132.727 77.5701 132.515C78.1382 132.304 78.6613 131.976 79.1094 131.551C79.5574 131.125 79.9217 130.611 80.1813 130.036C80.4408 129.462 80.5906 128.839 80.622 128.203C80.622 128.114 80.622 128.025 80.622 127.937L80.622 98.9086H86.7257Z" stroke="#890EA8" stroke-width="2" stroke-miterlimit="10" stroke-linecap="square"/>
</svg>
