<svg width="20" height="21" viewBox="0 0 20 21" fill="none" xmlns="http://www.w3.org/2000/svg">
<path d="M16.4193 19.952L16.4185 19.9516L11.0133 17.1086C10.5935 16.8834 10.0902 16.7925 9.62916 16.7925C9.16628 16.7925 8.6619 16.8841 8.23914 17.1073C8.23893 17.1074 8.23872 17.1075 8.23851 17.1076L2.83381 19.9504C2.8335 19.9505 2.83319 19.9507 2.83288 19.9508C2.09835 20.3336 1.58345 20.283 1.29905 20.1244C1.02824 19.9733 0.75 19.6022 0.75 18.8414V4.05169C0.75 2.27725 2.29386 0.75 4.27778 0.75H14.9611C16.9434 0.75 18.4901 2.2762 18.5 4.05362V18.8414C18.5 19.6095 18.2204 19.982 17.951 20.1322C17.6686 20.2898 17.1549 20.34 16.4193 19.952ZM5.09008 6.84502L5.08677 6.85317L5.08366 6.8614C4.76904 7.69151 5.23288 8.56911 6.04114 8.84457C7.19354 9.23841 8.40585 9.4412 9.61946 9.4412C10.8331 9.4412 12.0454 9.23841 13.1978 8.84457C14.006 8.56911 14.4699 7.69151 14.1553 6.8614C13.8455 6.04401 12.9322 5.67835 12.1486 5.94477L12.1478 5.94503C10.5206 6.50026 8.72939 6.50026 7.10216 5.94503L7.10139 5.94477C6.31184 5.67633 5.41318 6.04936 5.09008 6.84502Z" stroke="#9CA3AF" stroke-width="1.5"/>
</svg>
