<svg width="36" height="36" viewBox="0 0 36 36" fill="none" xmlns="http://www.w3.org/2000/svg">
<circle cx="18" cy="18" r="17.5" fill="#1F2229" stroke="#2C3037"/>
<path d="M14.6689 12.5351L15.8027 10.2676H20.3377L21.4714 12.5351H14.6689Z" stroke="white" stroke-width="1.2" stroke-linejoin="round"/>
<path d="M24.4946 12.5352H11.6455C11.0193 12.5352 10.5117 13.0428 10.5117 13.6689V22.7389C10.5117 23.3651 11.0193 23.8727 11.6455 23.8727H24.4946C25.1208 23.8727 25.6284 23.3651 25.6284 22.7389V13.6689C25.6284 13.0428 25.1208 12.5352 24.4946 12.5352Z" stroke="white" stroke-width="1.2" stroke-linejoin="round"/>
<path d="M18.0702 21.2273C19.74 21.2273 21.0935 19.8737 21.0935 18.204C21.0935 16.5342 19.74 15.1807 18.0702 15.1807C16.4005 15.1807 15.0469 16.5342 15.0469 18.204C15.0469 19.8737 16.4005 21.2273 18.0702 21.2273Z" stroke="white" stroke-width="1.2" stroke-linejoin="round"/>
</svg>
