<svg width="64" height="64" viewBox="0 0 64 64" fill="none" xmlns="http://www.w3.org/2000/svg">
<rect x="0.5" y="0.5" width="63" height="63" rx="31.5" stroke="#767676" stroke-dasharray="4 4"/>
<path d="M32.3807 32.2692V42.5207M32.3807 32.2692L29.5331 34.5473M32.3807 32.2692L35.2283 34.5473M24.4461 28.9854C23.3688 29.2564 22.4276 29.9116 21.7992 30.8277C21.1709 31.7438 20.8987 32.8578 21.0339 33.9605C21.169 35.0631 21.7021 36.0785 22.533 36.8157C23.364 37.553 24.4355 37.9615 25.5464 37.9645H26.6855" stroke="#B913E2" stroke-width="2" stroke-linecap="round" stroke-linejoin="round"/>
<path d="M36.7433 26.7309C36.354 25.1892 35.3931 23.8533 34.0553 22.9939C32.7176 22.1345 31.1031 21.816 29.5392 22.1028C27.9752 22.3896 26.5789 23.2604 25.6331 24.5386C24.6874 25.8168 24.2631 27.4067 24.4462 28.9862C24.4462 28.9862 24.6204 29.9908 24.977 30.5603" stroke="#B913E2" stroke-width="2" stroke-linecap="round" stroke-linejoin="round"/>
<path d="M38.0764 37.9647C38.8806 37.9642 39.6755 37.7933 40.409 37.4634C41.1424 37.1334 41.7976 36.6519 42.3315 36.0505C42.8654 35.4491 43.2659 34.7414 43.5066 33.9741C43.7473 33.2067 43.8228 32.3971 43.7281 31.5985C43.6333 30.7999 43.3705 30.0304 42.9569 29.3407C42.5434 28.6509 41.9884 28.0566 41.3286 27.5968C40.6688 27.137 39.9191 26.8222 39.1288 26.673C38.3386 26.5239 37.5257 26.5438 36.7437 26.7314L35.2287 27.1437" stroke="#B913E2" stroke-width="2" stroke-linecap="round" stroke-linejoin="round"/>
</svg>
