<svg width="56" height="48" viewBox="0 0 56 48" fill="none" xmlns="http://www.w3.org/2000/svg">
<path d="M32.2231 34.8654L22.8809 28.2353V13.1147H25.5193V26.6064V26.9958L25.8378 27.2198L33.7722 32.8016L33.67 32.9398V32.9425L32.2231 34.8654ZM39.1697 21.0376V18.6088H54.829V21.0376H39.1697ZM39.1697 29.3861V26.9574H46.3755V29.3861H39.1697Z" fill="#B913E2" stroke="#171A1F" stroke-width="1.5"/>
<path d="M42.3352 34.8175L42.3372 34.8143C42.3842 34.7411 42.4771 34.6863 42.5831 34.6863H45.9346C41.8578 42.3286 33.7257 47.25 24.6793 47.25C11.4287 47.25 0.725633 36.7938 0.750042 23.9502C0.774444 11.1339 11.7372 0.590901 24.973 0.751817L24.9737 0.751825C33.9029 0.851898 41.9014 5.75517 45.9345 13.3094H42.5831C42.4771 13.3094 42.3842 13.2546 42.3372 13.1814L42.3352 13.1783C41.5039 11.898 40.5347 10.7129 39.4219 9.62996C37.5049 7.76467 35.2731 6.29988 32.794 5.28135C30.2287 4.22431 27.5008 3.69012 24.6856 3.69012C21.8769 3.69012 19.1428 4.22421 16.5776 5.28119C14.0982 6.29973 11.8663 7.76457 9.94927 9.62996C8.03212 11.4955 6.5245 13.6696 5.4755 16.0874C4.38725 18.5945 3.83639 21.2498 3.83639 23.9979C3.83639 26.7455 4.38707 29.4071 5.47567 31.9087C6.52466 34.3264 8.03222 36.5004 9.94927 38.3658C11.8662 40.2311 14.098 41.6959 16.5772 42.7144C19.1424 43.7714 21.8703 44.3056 24.6856 44.3056C27.4947 44.3056 30.2224 43.7713 32.7934 42.7146C35.2728 41.6961 37.5048 40.2312 39.4219 38.3658C40.5347 37.2829 41.5039 36.0977 42.3352 34.8175Z" fill="white" stroke="#171A1F" stroke-width="1.5"/>
</svg>
