<svg width="30" height="30" viewBox="0 0 30 30" fill="none" xmlns="http://www.w3.org/2000/svg">
<circle cx="15" cy="15" r="14.5"/>
<path d="M18.9062 9.29688H11.0938C8.75 9.29688 7.1875 10.4688 7.1875 13.2031V18.6719C7.1875 21.4062 8.75 22.5781 11.0938 22.5781H18.9062C21.25 22.5781 22.8125 21.4062 22.8125 18.6719V13.2031C22.8125 10.4688 21.25 9.29688 18.9062 9.29688ZM19.2734 14.0547L16.8281 16.0078C16.3125 16.4219 15.6562 16.625 15 16.625C14.3438 16.625 13.6797 16.4219 13.1719 16.0078L10.7266 14.0547C10.4766 13.8516 10.4375 13.4766 10.6328 13.2266C10.8359 12.9766 11.2031 12.9297 11.4531 13.1328L13.8984 15.0859C14.4922 15.5625 15.5 15.5625 16.0938 15.0859L18.5391 13.1328C18.7891 12.9297 19.1641 12.9687 19.3594 13.2266C19.5625 13.4766 19.5234 13.8516 19.2734 14.0547Z" />
</svg>
