<svg width="32" height="32" viewBox="0 0 32 32" fill="none" xmlns="http://www.w3.org/2000/svg">
<circle cx="16" cy="16" r="16" fill="#B913E2"/>
<path d="M21.0583 13.0915L13.925 9.52487C9.13334 7.12487 7.16667 9.09153 9.56667 13.8832L10.2917 15.3332C10.5 15.7582 10.5 16.2499 10.2917 16.6749L9.56667 18.1165C7.16667 22.9082 9.12501 24.8749 13.925 22.4749L21.0583 18.9082C24.2583 17.3082 24.2583 14.6915 21.0583 13.0915ZM18.3667 16.6249H13.8667C13.525 16.6249 13.2417 16.3415 13.2417 15.9999C13.2417 15.6582 13.525 15.3749 13.8667 15.3749H18.3667C18.7083 15.3749 18.9917 15.6582 18.9917 15.9999C18.9917 16.3415 18.7083 16.6249 18.3667 16.6249Z" fill="white"/>
</svg>
