<svg width="36" height="37" viewBox="0 0 36 37" fill="none" xmlns="http://www.w3.org/2000/svg">
<circle cx="16" cy="18" r="11" fill="#B913E2"/>
<path d="M18 3.73096C9.72 3.73096 3 10.451 3 18.731C3 27.011 9.72 33.731 18 33.731C26.28 33.731 33 27.011 33 18.731C33 10.451 26.28 3.73096 18 3.73096ZM21.99 21.326L20.07 22.436L18.15 23.546C15.675 24.971 13.65 23.801 13.65 20.951V18.731V16.511C13.65 13.646 15.675 12.491 18.15 13.916L20.07 15.026L21.99 16.136C24.465 17.561 24.465 19.901 21.99 21.326Z" fill="white"/>
</svg>
