<svg width="32" height="32" viewBox="0 0 32 32" fill="none" xmlns="http://www.w3.org/2000/svg">
<path d="M22.4267 2.66675H9.57333C6.73333 2.66675 4.42667 4.98675 4.42667 7.81342V26.6001C4.42667 29.0001 6.14667 30.0134 8.25333 28.8534L14.76 25.2401C15.4533 24.8534 16.5733 24.8534 17.2533 25.2401L23.76 28.8534C25.8667 30.0267 27.5867 29.0134 27.5867 26.6001V7.81342C27.5733 4.98675 25.2667 2.66675 22.4267 2.66675ZM20.0133 13.0001C18.72 13.4667 17.36 13.7067 16 13.7067C14.64 13.7067 13.28 13.4667 11.9867 13.0001C11.4667 12.8134 11.2 12.2401 11.3867 11.7201C11.5867 11.2001 12.16 10.9334 12.68 11.1201C14.8267 11.8934 17.1867 11.8934 19.3333 11.1201C19.8533 10.9334 20.4267 11.2001 20.6133 11.7201C20.8 12.2401 20.5333 12.8134 20.0133 13.0001Z" />
</svg>
