<svg width="27" height="27" viewBox="0 0 27 27" fill="none" xmlns="http://www.w3.org/2000/svg">
<g clip-path="url(#clip0_119_1804)">
<path d="M15.1302 26.6668C15.0705 26.6355 15.0108 26.6036 14.9504 26.5737C14.3788 26.2911 14.2275 25.5716 14.6754 25.1112C15.5566 24.205 16.4532 23.3126 17.3559 22.4279C17.7455 22.0459 18.3288 22.0883 18.6941 22.5084C19.0288 22.8939 19.3441 23.2952 19.6809 23.7057C20.3413 23.3647 20.9455 22.9508 21.4927 22.4591C23.5615 20.6008 24.6733 18.2904 24.7566 15.4994C24.7782 14.7855 25.2913 14.3439 25.9198 14.4994C26.3525 14.6064 26.6268 14.98 26.6177 15.4689C26.5872 17.173 26.2205 18.8022 25.4365 20.3168C23.6907 23.6897 20.9462 25.7543 17.2163 26.4952C16.8198 26.5737 16.415 26.6105 16.0136 26.6661H15.1295L15.1302 26.6668Z" fill="white"/>
<path d="M-0.000282118 10.6549C0.0851346 10.1091 0.12819 9.55283 0.263607 9.0202C1.45736 4.33478 4.41569 1.41533 9.1143 0.286862C9.7893 0.125056 10.5025 0.112556 11.1997 0.056306C11.6192 0.0222782 11.9372 0.216723 12.1171 0.604223C12.2872 0.970195 12.2081 1.34936 11.8886 1.67158C11.0344 2.532 10.1789 3.39103 9.31569 4.24242C8.87055 4.68131 8.29208 4.64589 7.88444 4.16394C7.56639 3.78756 7.25875 3.40214 6.93722 3.01047C5.97889 3.51742 5.13652 4.15839 4.41152 4.94936C2.78583 6.72436 1.91916 8.80978 1.86013 11.2237C1.84277 11.9431 1.29694 12.3903 0.66569 12.2112C0.317079 12.1126 0.135829 11.8473 -0.000976562 11.5389C-0.000976562 11.2445 -0.000976562 10.9501 -0.000976562 10.6549H-0.000282118Z" fill="white"/>
<path d="M25.5124 9.81173C25.4971 10.4756 25.2506 11.0978 24.7846 11.6346C24.7054 11.7263 24.62 11.8124 24.5339 11.8985C20.3061 16.1263 16.077 20.352 11.8513 24.5819C11.3402 25.0937 10.7568 25.4499 10.0249 25.5346C9.27071 25.6215 8.62349 25.4096 8.0853 24.8687C7.49849 24.2791 6.9096 23.6916 6.32141 23.1034C4.85682 21.6388 3.42071 20.1451 1.91863 18.7208C0.766547 17.6277 0.978352 16.0541 1.83738 15.0833C1.92349 14.986 2.01516 14.8937 2.10682 14.802C6.32141 10.586 10.5381 6.37215 14.7506 2.1534C15.2679 1.63534 15.8534 1.26729 16.595 1.18256C17.3492 1.09645 17.995 1.30965 18.5339 1.84923C19.8742 3.19229 21.2172 4.53256 22.5596 5.87423C23.3075 6.62145 24.0513 7.37284 24.804 8.11451C25.2672 8.57076 25.4992 9.11798 25.511 9.81173H25.5124ZM20.9665 9.58673C20.7742 9.48534 20.545 9.42145 20.3957 9.27562C19.3853 8.28881 18.3922 7.28465 17.3936 6.28604C17.1082 5.99992 17.0707 5.65965 17.2193 5.30409C17.2839 5.14923 17.4047 5.01451 17.5131 4.88117C17.7902 4.53742 17.8485 4.12076 17.6561 3.79367C17.377 3.31867 16.9027 3.01798 16.4922 3.13465C16.2485 3.20409 16.002 3.36034 15.8207 3.54159C11.702 7.64506 7.59224 11.7576 3.48113 15.8687C3.40196 15.9478 3.32002 16.0277 3.25405 16.118C2.97349 16.5013 2.98807 16.9819 3.3096 17.3048C5.3228 19.3228 7.33877 21.3381 9.35683 23.3513C9.65891 23.6527 10.0797 23.6978 10.454 23.4715C10.5929 23.3874 10.7152 23.2715 10.8311 23.1562C13.302 20.6888 15.7707 18.2194 18.2402 15.7506C19.8763 14.1152 21.5117 12.4784 23.1492 10.8444C23.3631 10.6312 23.536 10.4013 23.5568 10.086C23.5936 9.5402 23.2138 9.25548 22.8332 9.00131C22.5193 8.79159 22.0985 8.88742 21.7589 9.18951C21.5388 9.38604 21.3027 9.53256 20.9659 9.58673H20.9665Z" fill="white"/>
</g>
<defs>
<clipPath id="clip0_119_1804">
<rect width="26.6667" height="26.6667" fill="white"/>
</clipPath>
</defs>
</svg>
