<svg width="32" height="32" viewBox="0 0 32 32" fill="none" xmlns="http://www.w3.org/2000/svg">
<g clip-path="url(#clip0_311_5772)">
<path d="M32 13.7102H25.4095V0.529297H32V13.7102ZM28.7381 1.89451C27.7683 1.89451 26.9824 2.68143 26.9824 3.65052C26.9824 4.61998 27.7683 5.40622 28.7381 5.40622C29.7075 5.40622 30.4938 4.61998 30.4938 3.65052C30.4938 2.68143 29.7078 1.89451 28.7381 1.89451Z" />
<path d="M7.65776 18.605C7.65776 18.605 7.83407 19.6473 7.08997 19.8783C7.08997 19.8783 6.29746 20.0265 6.09448 19.3125L5.79691 14.9489C5.76596 14.5116 6.00256 14.1676 6.00256 14.1676C6.09056 14.0398 6.19367 13.9126 6.30211 13.7877C6.70577 13.5903 7.20103 13.3629 7.7708 13.1306C7.70126 13.2212 7.63208 13.3168 7.56683 13.4156C7.56683 13.4156 7.27983 13.9043 7.33222 14.3802L7.65776 18.605Z" />
<path d="M4.57873 20.7661C4.57873 20.7661 4.30689 20.8155 3.99876 20.7216C3.89696 19.4978 3.68111 17.0926 3.47677 15.9943C3.47677 15.9943 3.31034 15.0739 4.3289 14.4979C4.3289 14.4979 4.84163 14.1872 5.73071 13.7654C5.59493 13.9134 5.46677 14.0675 5.35969 14.2218C5.35969 14.2218 5.11122 14.577 5.14353 15.0285L5.46253 19.6211C5.46248 19.6213 5.47006 20.6257 4.57873 20.7661Z" />
<path d="M2.03214 10.5877C8.98444 4.25257 14.7488 2.59476 14.7488 2.59476C16.055 2.21447 17.8344 2.17725 17.8344 2.17725H23.7619V9.42674H21.1115C18.3142 15.6877 14.0495 19.007 14.0495 19.007C12.7947 19.9942 11.1903 21.3733 11.1903 21.3733C10.0587 22.402 9.64775 22.3134 9.64775 22.3134C8.74224 22.3134 8.7699 21.1789 8.7699 21.1789C8.7699 19.1223 12.0608 15.716 12.0608 15.716C12.678 15.0026 12.0747 14.1501 12.0747 14.1501C11.0321 12.8475 9.91467 12.3454 9.91467 12.3454C9.47243 12.0989 8.49539 12.3038 8.49539 12.3038C5.57448 12.8594 3.42141 14.3265 3.42141 14.3265C2.74952 14.7516 2.81477 15.6696 2.81477 15.6696C2.99997 16.7805 3.26031 19.6852 3.26031 19.6852C3.39312 21.3724 2.44803 21.4775 2.44803 21.4775C0.0721569 21.7533 1.90735e-06 14.7101 1.90735e-06 14.7101C0.000314713 12.1176 2.03214 10.5877 2.03214 10.5877Z" />
<circle cx="6" cy="27" r="5" fill="#B913E2"/>
<path d="M7.48444 26.9527C7.33233 26.8472 7.16012 26.7673 6.96746 26.7122C6.77481 26.6572 6.5796 26.6128 6.38228 26.5792V25.4678C6.79884 25.4877 7.24875 25.5813 7.73169 25.7481V24.7566C7.53363 24.6832 7.3173 24.6255 7.08047 24.5834C6.84404 24.5421 6.6112 24.5138 6.38262 24.5009V24H5.63531V24.5162C5.38203 24.546 5.15345 24.5995 4.95181 24.6767C4.74982 24.7532 4.57829 24.8541 4.43733 24.9792C4.29632 25.1049 4.18798 25.2529 4.113 25.4254C4.03769 25.5974 4 25.7936 4 26.0138C4 26.2841 4.04845 26.5047 4.14602 26.6752C4.24292 26.845 4.36953 26.9823 4.52455 27.0858C4.67957 27.1894 4.85429 27.267 5.04836 27.3187C5.24283 27.3703 5.43833 27.4112 5.63571 27.4406V28.5383C5.47642 28.5345 5.32897 28.5253 5.19439 28.5104C5.05946 28.4955 4.93103 28.4752 4.80869 28.4504C4.68708 28.4252 4.56759 28.3953 4.45134 28.3598C4.33617 28.3249 4.21707 28.2844 4.09433 28.2374V29.2192C4.27338 29.306 4.49796 29.3729 4.76918 29.4215C5.04039 29.4704 5.32925 29.4995 5.63599 29.5094V30H6.38331V29.4842C6.90029 29.4242 7.29891 29.2724 7.57952 29.0288C7.85972 28.7853 8 28.4492 8 28.0218C8 27.7545 7.95229 27.5362 7.85682 27.3657C7.76032 27.1955 7.63622 27.0578 7.48444 26.9527ZM5.63491 26.4542C5.4315 26.4144 5.27972 26.357 5.1789 26.2836C5.07916 26.2102 5.02895 26.1031 5.02895 25.9632C5.02895 25.8401 5.07273 25.7373 5.16028 25.6555C5.24818 25.5733 5.40679 25.5193 5.63457 25.4926V26.4542H5.63491ZM6.38223 28.5027V27.561C6.57955 27.5981 6.72665 27.6524 6.82172 27.7239C6.91754 27.7958 6.9649 27.9017 6.9649 28.0416C6.9649 28.2955 6.77083 28.4488 6.38223 28.5027Z" />
</g>
<defs>
<clipPath id="clip0_311_5772">
<rect width="32" height="32" fill="white" transform="matrix(-1 0 0 1 32 0)"/>
</clipPath>
</defs>
</svg>
