<svg width="32" height="32" viewBox="0 0 32 32" fill="none" xmlns="http://www.w3.org/2000/svg">
<path d="M22.6667 2.6665H9.33333C5.65333 2.6665 2.66666 5.63984 2.66666 9.3065V17.2798V18.6132C2.66666 22.2798 5.65333 25.2532 9.33333 25.2532H11.3333C11.6933 25.2532 12.1733 25.4932 12.4 25.7865L14.4 28.4398C15.28 29.6132 16.72 29.6132 17.6 28.4398L19.6 25.7865C19.8533 25.4532 20.2533 25.2532 20.6667 25.2532H22.6667C26.3467 25.2532 29.3333 22.2798 29.3333 18.6132V9.3065C29.3333 5.63984 26.3467 2.6665 22.6667 2.6665ZM10.6667 15.9998C9.92 15.9998 9.33333 15.3998 9.33333 14.6665C9.33333 13.9332 9.93333 13.3332 10.6667 13.3332C11.4 13.3332 12 13.9332 12 14.6665C12 15.3998 11.4133 15.9998 10.6667 15.9998ZM16 15.9998C15.2533 15.9998 14.6667 15.3998 14.6667 14.6665C14.6667 13.9332 15.2667 13.3332 16 13.3332C16.7333 13.3332 17.3333 13.9332 17.3333 14.6665C17.3333 15.3998 16.7467 15.9998 16 15.9998ZM21.3333 15.9998C20.5867 15.9998 20 15.3998 20 14.6665C20 13.9332 20.6 13.3332 21.3333 13.3332C22.0667 13.3332 22.6667 13.9332 22.6667 14.6665C22.6667 15.3998 22.08 15.9998 21.3333 15.9998Z" />
</svg>
