<svg width="32" height="32" viewBox="0 0 32 32" fill="none" xmlns="http://www.w3.org/2000/svg">
<path d="M22.4268 2.66669H9.57342C6.73342 2.66669 4.42676 4.98669 4.42676 7.81335V26.6C4.42676 29 6.14676 30.0134 8.25342 28.8534L14.7601 25.24C15.4534 24.8534 16.5734 24.8534 17.2534 25.24L23.7601 28.8534C25.8668 30.0267 27.5868 29.0134 27.5868 26.6V7.81335C27.5734 4.98669 25.2668 2.66669 22.4268 2.66669ZM20.0134 13C18.7201 13.4667 17.3601 13.7067 16.0001 13.7067C14.6401 13.7067 13.2801 13.4667 11.9868 13C11.4668 12.8134 11.2001 12.24 11.3868 11.72C11.5868 11.2 12.1601 10.9334 12.6801 11.12C14.8268 11.8934 17.1868 11.8934 19.3334 11.12C19.8534 10.9334 20.4268 11.2 20.6134 11.72C20.8001 12.24 20.5334 12.8134 20.0134 13Z" fill="#FCD34D"/>
</svg>
