<svg width="24" height="25" viewBox="0 0 24 25" fill="none" xmlns="http://www.w3.org/2000/svg">
<path d="M8 5.86719C7.59 5.86719 7.25 5.52719 7.25 5.11719V2.11719C7.25 1.70719 7.59 1.36719 8 1.36719C8.41 1.36719 8.75 1.70719 8.75 2.11719V5.11719C8.75 5.52719 8.41 5.86719 8 5.86719Z" fill="#6B7280"/>
<path d="M16 5.86719C15.59 5.86719 15.25 5.52719 15.25 5.11719V2.11719C15.25 1.70719 15.59 1.36719 16 1.36719C16.41 1.36719 16.75 1.70719 16.75 2.11719V5.11719C16.75 5.52719 16.41 5.86719 16 5.86719Z" fill="#6B7280"/>
<path d="M8.5 14.617C8.37 14.617 8.24 14.587 8.12 14.537C7.99 14.487 7.89 14.417 7.79 14.327C7.61 14.137 7.5 13.887 7.5 13.617C7.5 13.487 7.53 13.357 7.58 13.237C7.63 13.117 7.7 13.007 7.79 12.907C7.89 12.817 7.99 12.747 8.12 12.697C8.48 12.547 8.93 12.627 9.21 12.907C9.39 13.097 9.5 13.357 9.5 13.617C9.5 13.677 9.49 13.747 9.48 13.817C9.47 13.877 9.45 13.937 9.42 13.997C9.4 14.057 9.37 14.117 9.33 14.177C9.3 14.227 9.25 14.277 9.21 14.327C9.02 14.507 8.76 14.617 8.5 14.617Z" fill="#6B7280"/>
<path d="M12 14.6171C11.87 14.6171 11.74 14.5871 11.62 14.5371C11.49 14.4871 11.39 14.4171 11.29 14.3271C11.11 14.1371 11 13.8871 11 13.6171C11 13.4871 11.03 13.3571 11.08 13.2371C11.13 13.1171 11.2 13.0071 11.29 12.9071C11.39 12.8171 11.49 12.747 11.62 12.697C11.98 12.537 12.43 12.6271 12.71 12.9071C12.89 13.0971 13 13.3571 13 13.6171C13 13.6771 12.99 13.7471 12.98 13.8171C12.97 13.8771 12.95 13.9371 12.92 13.9971C12.9 14.0571 12.87 14.1171 12.83 14.1771C12.8 14.2271 12.75 14.2771 12.71 14.3271C12.52 14.5071 12.26 14.6171 12 14.6171Z" fill="#6B7280"/>
<path d="M15.5 14.6171C15.37 14.6171 15.24 14.5871 15.12 14.5371C14.99 14.4871 14.89 14.4171 14.79 14.3271C14.75 14.2771 14.71 14.2271 14.67 14.1771C14.63 14.1171 14.6 14.0571 14.58 13.9971C14.55 13.9371 14.53 13.8771 14.52 13.8171C14.51 13.7471 14.5 13.6771 14.5 13.6171C14.5 13.3571 14.61 13.0971 14.79 12.9071C14.89 12.8171 14.99 12.747 15.12 12.697C15.49 12.537 15.93 12.6271 16.21 12.9071C16.39 13.0971 16.5 13.3571 16.5 13.6171C16.5 13.6771 16.49 13.7471 16.48 13.8171C16.47 13.8771 16.45 13.9371 16.42 13.9971C16.4 14.0571 16.37 14.1171 16.33 14.1771C16.3 14.2271 16.25 14.2771 16.21 14.3271C16.02 14.5071 15.76 14.6171 15.5 14.6171Z" fill="#6B7280"/>
<path d="M8.5 18.1174C8.37 18.1174 8.24 18.0874 8.12 18.0374C8 17.9874 7.89 17.9174 7.79 17.8274C7.61 17.6374 7.5 17.3774 7.5 17.1174C7.5 16.9874 7.53 16.8574 7.58 16.7374C7.63 16.6074 7.7 16.4974 7.79 16.4074C8.16 16.0374 8.84 16.0374 9.21 16.4074C9.39 16.5974 9.5 16.8574 9.5 17.1174C9.5 17.3774 9.39 17.6374 9.21 17.8274C9.02 18.0074 8.76 18.1174 8.5 18.1174Z" fill="#6B7280"/>
<path d="M12 18.1174C11.74 18.1174 11.48 18.0074 11.29 17.8274C11.11 17.6374 11 17.3774 11 17.1174C11 16.9874 11.03 16.8574 11.08 16.7374C11.13 16.6074 11.2 16.4974 11.29 16.4074C11.66 16.0374 12.34 16.0374 12.71 16.4074C12.8 16.4974 12.87 16.6074 12.92 16.7374C12.97 16.8574 13 16.9874 13 17.1174C13 17.3774 12.89 17.6374 12.71 17.8274C12.52 18.0074 12.26 18.1174 12 18.1174Z" fill="#6B7280"/>
<path d="M15.5 18.1171C15.24 18.1171 14.98 18.0071 14.79 17.8271C14.7 17.7371 14.63 17.6271 14.58 17.4971C14.53 17.3771 14.5 17.2471 14.5 17.1171C14.5 16.9871 14.53 16.8571 14.58 16.7371C14.63 16.6071 14.7 16.4971 14.79 16.4071C15.02 16.1771 15.37 16.0671 15.69 16.1371C15.76 16.1471 15.82 16.1671 15.88 16.1971C15.94 16.2171 16 16.2471 16.06 16.2871C16.11 16.3171 16.16 16.3671 16.21 16.4071C16.39 16.5971 16.5 16.8571 16.5 17.1171C16.5 17.3771 16.39 17.6371 16.21 17.8271C16.02 18.0071 15.76 18.1171 15.5 18.1171Z" fill="#6B7280"/>
<path d="M20.5 9.95703H3.5C3.09 9.95703 2.75 9.61703 2.75 9.20703C2.75 8.79703 3.09 8.45703 3.5 8.45703H20.5C20.91 8.45703 21.25 8.79703 21.25 9.20703C21.25 9.61703 20.91 9.95703 20.5 9.95703Z" fill="#6B7280"/>
<path d="M16 22.8672H8C4.35 22.8672 2.25 20.7672 2.25 17.1172V8.61719C2.25 4.96719 4.35 2.86719 8 2.86719H16C19.65 2.86719 21.75 4.96719 21.75 8.61719V17.1172C21.75 20.7672 19.65 22.8672 16 22.8672ZM8 4.36719C5.14 4.36719 3.75 5.75719 3.75 8.61719V17.1172C3.75 19.9772 5.14 21.3672 8 21.3672H16C18.86 21.3672 20.25 19.9772 20.25 17.1172V8.61719C20.25 5.75719 18.86 4.36719 16 4.36719H8Z" fill="#6B7280"/>
</svg>
