<svg width="32" height="32" viewBox="0 0 32 32" fill="none" xmlns="http://www.w3.org/2000/svg">
<circle opacity="0.3" cx="16" cy="16" r="16" fill="white"/>
<path d="M15.8543 18.5714C17.1166 18.5714 18.14 17.5481 18.14 16.2857C18.14 15.0233 17.1166 14 15.8543 14C14.5919 14 13.5685 15.0233 13.5685 16.2857C13.5685 17.5481 14.5919 18.5714 15.8543 18.5714Z" fill="white"/>
<path d="M7.28571 18.5714C8.54808 18.5714 9.57143 17.5481 9.57143 16.2857C9.57143 15.0233 8.54808 14 7.28571 14C6.02335 14 5 15.0233 5 16.2857C5 17.5481 6.02335 18.5714 7.28571 18.5714Z" fill="white"/>
<path d="M24.4248 18.5714C25.6872 18.5714 26.7105 17.5481 26.7105 16.2857C26.7105 15.0233 25.6872 14 24.4248 14C23.1625 14 22.1391 15.0233 22.1391 16.2857C22.1391 17.5481 23.1625 18.5714 24.4248 18.5714Z" fill="white"/>
</svg>
