<svg width="86" height="86" viewBox="0 0 86 86" fill="none" xmlns="http://www.w3.org/2000/svg">
<path d="M56.267 1.16455C57.5777 0.863283 58.9496 0.977627 60.1923 1.4917C61.4351 2.00578 62.4869 2.89408 63.2018 4.03326L69.638 14.3101C70.157 15.1378 70.8565 15.8374 71.6841 16.3564L81.9601 22.7932C83.1015 23.5076 83.9919 24.5602 84.5072 25.8045C85.0225 27.0487 85.1371 28.4227 84.835 29.7351L82.1155 41.5466C81.8961 42.5012 81.8961 43.4931 82.1155 44.4477L84.835 56.2657C85.1341 57.5763 85.0181 58.9474 84.5029 60.189C83.9878 61.4305 83.0991 62.481 81.9601 63.1947L71.6841 69.6379C70.8555 70.1557 70.1557 70.8555 69.638 71.6842L63.2018 81.9611C62.4878 83.1014 61.4363 83.9911 60.1935 84.5063C58.9508 85.0216 57.5783 85.1369 56.267 84.8363L44.45 82.1165C43.4976 81.8981 42.5081 81.8981 41.5557 82.1165L29.7387 84.8363C28.4273 85.1369 27.0549 85.0216 25.8121 84.5063C24.5693 83.9911 23.5179 83.1014 22.8039 81.9611L16.3677 71.6842C15.8467 70.8559 15.1449 70.1564 14.3151 69.6379L4.04561 63.2012C2.90536 62.4871 2.01581 61.4355 1.50059 60.1926C0.985375 58.9497 0.870063 57.5772 1.17068 56.2657L3.88374 44.4477C4.10312 43.4931 4.10312 42.5012 3.88374 41.5466L1.16421 29.7351C0.862751 28.422 0.978311 27.0476 1.49479 25.8033C2.01127 24.559 2.90295 23.5067 4.04561 22.7932L14.3151 16.3564C15.1451 15.8382 15.8468 15.1385 16.3677 14.3101L22.8039 4.03326C23.5184 2.89531 24.5691 2.00782 25.8105 1.49382C27.0519 0.979811 28.4225 0.864738 29.7322 1.16455L41.5557 3.87784C42.5081 4.09625 43.4976 4.09625 44.45 3.87784L56.267 1.16455Z" stroke="white"/>
<path d="M42 40.9033C41.4192 40.9033 40.9375 40.4216 40.9375 39.8408V35.1233C40.9375 34.5425 41.4192 34.0608 42 34.0608C42.5808 34.0608 43.0625 34.5425 43.0625 35.1233V39.8408C43.0625 40.4358 42.5808 40.9033 42 40.9033Z" fill="white"/>
<path d="M42.0284 54.8291C38.3734 54.8291 34.7325 54.2483 31.2617 53.0866C29.9725 52.6616 28.995 51.7408 28.57 50.5791C28.145 49.4174 28.2867 48.0858 28.9808 46.9241L30.78 43.9208C31.1767 43.2549 31.5308 42.0083 31.5308 41.2291V38.2541C31.5308 32.4599 36.2342 27.7566 42.0284 27.7566C47.8225 27.7566 52.5259 32.4599 52.5259 38.2541V41.2291C52.5259 41.9941 52.88 43.2549 53.2767 43.9208L55.0758 46.9241C55.7417 48.0291 55.855 49.3466 55.4158 50.5508C54.9767 51.7549 54.0133 52.6758 52.795 53.0866C49.3242 54.2624 45.6833 54.8291 42.0284 54.8291ZM42.0284 29.8958C37.41 29.8958 33.6558 33.6499 33.6558 38.2683V41.2433C33.6558 42.3908 33.2025 44.0483 32.6075 45.0258L30.8083 48.0433C30.44 48.6524 30.355 49.3041 30.5675 49.8708C30.78 50.4374 31.2617 50.8624 31.9417 51.0891C38.4583 53.2566 45.6267 53.2566 52.1433 51.0891C52.7525 50.8908 53.22 50.4374 53.4325 49.8424C53.6592 49.2474 53.5884 48.5958 53.2625 48.0433L51.4634 45.0399C50.8683 44.0624 50.415 42.4049 50.415 41.2574V38.2824C50.4009 33.6499 46.6467 29.8958 42.0284 29.8958Z" fill="#B913E2"/>
<path d="M42 58.4416C40.4841 58.4416 38.9966 57.8183 37.92 56.7416C36.8433 55.665 36.22 54.1775 36.22 52.6616H38.345C38.345 53.625 38.7416 54.56 39.4216 55.24C40.1016 55.92 41.0366 56.3166 42 56.3166C44.0116 56.3166 45.655 54.6733 45.655 52.6616H47.78C47.78 55.8491 45.1875 58.4416 42 58.4416Z" fill="#B913E2"/>
</svg>
