<svg width="86" height="86" viewBox="0 0 86 86" fill="none" xmlns="http://www.w3.org/2000/svg">
<path d="M56.267 1.16455C57.5777 0.863283 58.9496 0.977627 60.1923 1.4917C61.4351 2.00578 62.4869 2.89408 63.2018 4.03326L69.638 14.3101C70.157 15.1378 70.8565 15.8374 71.6841 16.3564L81.9601 22.7932C83.1015 23.5076 83.9919 24.5602 84.5072 25.8045C85.0225 27.0487 85.1371 28.4227 84.835 29.7351L82.1155 41.5466C81.8961 42.5012 81.8961 43.4931 82.1155 44.4477L84.835 56.2657C85.1341 57.5763 85.0181 58.9474 84.5029 60.189C83.9878 61.4305 83.0991 62.481 81.9601 63.1947L71.6841 69.6379C70.8555 70.1557 70.1557 70.8555 69.638 71.6842L63.2018 81.9611C62.4878 83.1014 61.4363 83.9911 60.1935 84.5063C58.9508 85.0216 57.5783 85.1369 56.267 84.8363L44.45 82.1165C43.4976 81.8981 42.5081 81.8981 41.5557 82.1165L29.7387 84.8363C28.4273 85.1369 27.0549 85.0216 25.8121 84.5063C24.5693 83.9911 23.5179 83.1014 22.8039 81.9611L16.3677 71.6842C15.8467 70.8559 15.1449 70.1564 14.3151 69.6379L4.04561 63.2012C2.90536 62.4871 2.01581 61.4355 1.50059 60.1926C0.985375 58.9497 0.870063 57.5772 1.17068 56.2657L3.88374 44.4477C4.10312 43.4931 4.10312 42.5012 3.88374 41.5466L1.16421 29.7351C0.862751 28.422 0.978311 27.0476 1.49479 25.8033C2.01127 24.559 2.90295 23.5067 4.04561 22.7932L14.3151 16.3564C15.1451 15.8382 15.8468 15.1385 16.3677 14.3101L22.8039 4.03326C23.5184 2.89531 24.5691 2.00782 25.8105 1.49382C27.0519 0.979811 28.4225 0.864738 29.7322 1.16455L41.5557 3.87784C42.5081 4.09625 43.4976 4.09625 44.45 3.87784L56.267 1.16455Z" stroke="white"/>
<path d="M23.6376 51.6L26.3076 36.51L21.8376 39.63L20.6076 37.47L27.6276 33H29.6076L26.3376 51.6H29.9076L29.4876 54H18.9276L19.3476 51.6H23.6376ZM41.0259 42.48C40.0659 41.88 39.3459 41.24 38.8659 40.56C38.4059 39.86 38.1759 39.03 38.1759 38.07C38.1759 37.03 38.4759 36.1 39.0759 35.28C39.6759 34.46 40.4659 33.82 41.4459 33.36C42.4459 32.88 43.5459 32.64 44.7459 32.64C45.9659 32.64 47.0259 32.87 47.9259 33.33C48.8259 33.79 49.5159 34.4 49.9959 35.16C50.4959 35.9 50.7459 36.69 50.7459 37.53C50.7459 38.85 50.3459 39.92 49.5459 40.74C48.7659 41.54 47.6159 42.22 46.0959 42.78C47.4559 43.42 48.4559 44.15 49.0959 44.97C49.7559 45.79 50.0859 46.79 50.0859 47.97C50.0859 49.27 49.7259 50.4 49.0059 51.36C48.3059 52.32 47.3559 53.06 46.1559 53.58C44.9559 54.1 43.6059 54.36 42.1059 54.36C40.8059 54.36 39.6359 54.13 38.5959 53.67C37.5559 53.21 36.7359 52.57 36.1359 51.75C35.5359 50.93 35.2359 49.99 35.2359 48.93C35.2359 47.35 35.7159 46.04 36.6759 45C37.6559 43.94 39.1059 43.1 41.0259 42.48ZM44.5959 34.86C43.9759 34.86 43.3759 34.98 42.7959 35.22C42.2359 35.46 41.7759 35.82 41.4159 36.3C41.0559 36.76 40.8759 37.34 40.8759 38.04C40.8759 38.8 41.1759 39.49 41.7759 40.11C42.3959 40.71 43.1559 41.23 44.0559 41.67C45.1559 41.35 46.0959 40.86 46.8759 40.2C47.6559 39.52 48.0459 38.74 48.0459 37.86C48.0459 37.04 47.7259 36.34 47.0859 35.76C46.4659 35.16 45.6359 34.86 44.5959 34.86ZM42.4059 51.96C43.2459 51.96 44.0359 51.81 44.7759 51.51C45.5159 51.19 46.1059 50.74 46.5459 50.16C47.0059 49.58 47.2359 48.89 47.2359 48.09C47.2359 47.21 46.8859 46.4 46.1859 45.66C45.4859 44.92 44.4859 44.31 43.1859 43.83C42.3259 44.01 41.5059 44.31 40.7259 44.73C39.9459 45.13 39.3059 45.65 38.8059 46.29C38.3259 46.91 38.0859 47.65 38.0859 48.51C38.0859 49.49 38.4959 50.31 39.3159 50.97C40.1359 51.63 41.1659 51.96 42.4059 51.96ZM62.2541 44.88L61.3841 49.74H58.8341L59.7041 44.88H55.1141L55.5041 42.54H60.0941L60.9641 37.65H63.5141L62.6441 42.54H67.2041L66.8141 44.88H62.2541Z" fill="#B913E2"/>
</svg>
