<svg width="22" height="22" viewBox="0 0 22 22" fill="none" xmlns="http://www.w3.org/2000/svg">
<path d="M10.5416 19.9374C5.36248 19.9374 1.14581 15.7208 1.14581 10.5416C1.14581 5.36242 5.36248 1.14575 10.5416 1.14575C15.7208 1.14575 19.9375 5.36242 19.9375 10.5416C19.9375 15.7208 15.7208 19.9374 10.5416 19.9374ZM10.5416 2.52075C6.11415 2.52075 2.52081 6.12325 2.52081 10.5416C2.52081 14.9599 6.11415 18.5624 10.5416 18.5624C14.9691 18.5624 18.5625 14.9599 18.5625 10.5416C18.5625 6.12325 14.9691 2.52075 10.5416 2.52075Z" fill="#B913E2"/>
<path d="M20.1667 20.8542C19.9925 20.8542 19.8183 20.7901 19.6808 20.6526L17.8475 18.8192C17.5817 18.5534 17.5817 18.1134 17.8475 17.8476C18.1133 17.5817 18.5533 17.5817 18.8192 17.8476L20.6525 19.6809C20.9183 19.9467 20.9183 20.3867 20.6525 20.6526C20.515 20.7901 20.3408 20.8542 20.1667 20.8542Z" fill="#B913E2"/>
</svg>
